%TF.GenerationSoftware,KiCad,Pcbnew,9.0.3*%
%TF.CreationDate,2025-11-26T12:48:42-06:00*%
%TF.ProjectId,onyx2040,6f6e7978-3230-4343-902e-6b696361645f,rev?*%
%TF.SameCoordinates,Original*%
%TF.FileFunction,Legend,Bot*%
%TF.FilePolarity,Positive*%
%FSLAX46Y46*%
G04 Gerber Fmt 4.6, Leading zero omitted, Abs format (unit mm)*
G04 Created by KiCad (PCBNEW 9.0.3) date 2025-11-26 12:48:42*
%MOMM*%
%LPD*%
G01*
G04 APERTURE LIST*
%ADD10C,0.000000*%
G04 APERTURE END LIST*
D10*
G36*
X143091593Y-106149354D02*
G01*
X143089178Y-106230337D01*
X143081454Y-106308073D01*
X143068490Y-106383235D01*
X143050355Y-106456498D01*
X143027120Y-106528536D01*
X142998854Y-106600024D01*
X142978320Y-106644947D01*
X142955441Y-106689406D01*
X142930260Y-106733373D01*
X142902819Y-106776819D01*
X142873161Y-106819715D01*
X142841329Y-106862031D01*
X142807365Y-106903739D01*
X142771313Y-106944809D01*
X142733214Y-106985213D01*
X142693111Y-107024921D01*
X142651047Y-107063904D01*
X142607064Y-107102133D01*
X142513514Y-107176214D01*
X142412802Y-107246930D01*
X142305269Y-107314050D01*
X142191255Y-107377341D01*
X142071102Y-107436570D01*
X141945151Y-107491504D01*
X141813743Y-107541912D01*
X141677219Y-107587560D01*
X141535920Y-107628217D01*
X141390188Y-107663649D01*
X141270465Y-107687224D01*
X141142317Y-107706396D01*
X141006990Y-107721227D01*
X140865734Y-107731779D01*
X140719796Y-107738115D01*
X140570424Y-107740295D01*
X140418866Y-107738383D01*
X140266370Y-107732441D01*
X140114184Y-107722529D01*
X139963556Y-107708711D01*
X139815735Y-107691048D01*
X139671967Y-107669602D01*
X139533501Y-107644436D01*
X139401586Y-107615611D01*
X139277468Y-107583189D01*
X139162396Y-107547233D01*
X138981769Y-107482070D01*
X138813001Y-107411644D01*
X138656171Y-107336024D01*
X138511356Y-107255281D01*
X138378632Y-107169484D01*
X138258079Y-107078703D01*
X138149773Y-106983007D01*
X138100237Y-106933338D01*
X138053792Y-106882467D01*
X138010447Y-106830402D01*
X137970213Y-106777151D01*
X137933099Y-106722725D01*
X137899114Y-106667131D01*
X137868269Y-106610378D01*
X137840572Y-106552475D01*
X137816035Y-106493431D01*
X137794666Y-106433254D01*
X137776474Y-106371953D01*
X137761471Y-106309537D01*
X137749665Y-106246014D01*
X137741067Y-106181393D01*
X137735685Y-106115684D01*
X137733862Y-106059197D01*
X137946829Y-106059197D01*
X137950297Y-106146204D01*
X137960868Y-106231262D01*
X137978406Y-106314295D01*
X138002773Y-106395227D01*
X138033832Y-106473982D01*
X138071444Y-106550487D01*
X138115473Y-106624663D01*
X138165780Y-106696437D01*
X138222228Y-106765732D01*
X138284680Y-106832473D01*
X138352998Y-106896585D01*
X138427044Y-106957991D01*
X138506681Y-107016616D01*
X138591771Y-107072385D01*
X138682177Y-107125222D01*
X138777761Y-107175051D01*
X138878385Y-107221797D01*
X138983912Y-107265385D01*
X139094204Y-107305738D01*
X139209123Y-107342781D01*
X139328533Y-107376439D01*
X139452295Y-107406636D01*
X139580272Y-107433296D01*
X139712327Y-107456344D01*
X139848321Y-107475704D01*
X139988117Y-107491301D01*
X140131577Y-107503059D01*
X140278565Y-107510903D01*
X140428941Y-107514756D01*
X140582570Y-107514544D01*
X140739313Y-107510190D01*
X140938996Y-107499149D01*
X141129284Y-107481882D01*
X141310208Y-107458368D01*
X141481800Y-107428583D01*
X141644089Y-107392504D01*
X141797109Y-107350107D01*
X141940888Y-107301370D01*
X142075458Y-107246269D01*
X142200851Y-107184780D01*
X142317097Y-107116881D01*
X142424228Y-107042549D01*
X142522274Y-106961759D01*
X142611266Y-106874489D01*
X142691235Y-106780716D01*
X142762212Y-106680416D01*
X142824229Y-106573566D01*
X142848561Y-106527018D01*
X142870056Y-106484207D01*
X142888853Y-106444527D01*
X142905093Y-106407374D01*
X142918913Y-106372144D01*
X142930455Y-106338231D01*
X142939858Y-106305032D01*
X142947261Y-106271941D01*
X142952803Y-106238353D01*
X142956624Y-106203666D01*
X142958865Y-106167273D01*
X142959663Y-106128569D01*
X142959159Y-106086952D01*
X142957492Y-106041815D01*
X142951229Y-105938566D01*
X142937591Y-105826163D01*
X142911573Y-105695676D01*
X142874687Y-105550601D01*
X142828446Y-105394433D01*
X142774360Y-105230670D01*
X142713941Y-105062805D01*
X142648701Y-104894336D01*
X142580151Y-104728758D01*
X142509803Y-104569568D01*
X142439168Y-104420260D01*
X142369757Y-104284332D01*
X142303083Y-104165279D01*
X142240656Y-104066596D01*
X142183989Y-103991780D01*
X142134593Y-103944327D01*
X142113094Y-103931954D01*
X142093979Y-103927732D01*
X142089781Y-103928055D01*
X142085136Y-103929014D01*
X142080063Y-103930593D01*
X142074580Y-103932776D01*
X142068706Y-103935548D01*
X142062458Y-103938894D01*
X142048917Y-103947245D01*
X142034106Y-103957705D01*
X142018170Y-103970148D01*
X142001258Y-103984452D01*
X141983516Y-104000493D01*
X141965092Y-104018145D01*
X141946133Y-104037286D01*
X141926787Y-104057792D01*
X141907200Y-104079537D01*
X141887520Y-104102399D01*
X141867895Y-104126252D01*
X141848471Y-104150974D01*
X141829396Y-104176440D01*
X141788251Y-104236768D01*
X141741339Y-104308815D01*
X141690335Y-104389916D01*
X141636912Y-104477404D01*
X141582744Y-104568613D01*
X141529507Y-104660876D01*
X141478875Y-104751527D01*
X141432521Y-104837899D01*
X141387304Y-104920964D01*
X141343638Y-104998385D01*
X141302575Y-105068489D01*
X141265172Y-105129602D01*
X141232481Y-105180049D01*
X141205558Y-105218155D01*
X141194588Y-105232057D01*
X141185456Y-105242246D01*
X141178292Y-105248513D01*
X141173229Y-105250649D01*
X141167297Y-105250221D01*
X141159504Y-105248964D01*
X141149975Y-105246917D01*
X141138833Y-105244117D01*
X141112210Y-105236417D01*
X141080625Y-105226175D01*
X141045072Y-105213700D01*
X141006542Y-105199303D01*
X140966027Y-105183294D01*
X140924521Y-105165982D01*
X140896029Y-105154567D01*
X140866002Y-105144113D01*
X140834271Y-105134589D01*
X140800663Y-105125964D01*
X140765009Y-105118208D01*
X140727138Y-105111288D01*
X140686879Y-105105175D01*
X140644063Y-105099836D01*
X140598517Y-105095242D01*
X140550073Y-105091362D01*
X140498560Y-105088163D01*
X140443806Y-105085615D01*
X140323896Y-105082349D01*
X140188979Y-105081316D01*
X139659813Y-105086607D01*
X139448146Y-104716191D01*
X139402257Y-104636940D01*
X139352896Y-104555456D01*
X139301550Y-104473973D01*
X139249708Y-104394722D01*
X139198859Y-104319936D01*
X139150490Y-104251847D01*
X139106089Y-104192688D01*
X139067146Y-104144691D01*
X138892521Y-103954191D01*
X138739063Y-104134107D01*
X138692129Y-104195424D01*
X138639420Y-104276383D01*
X138582107Y-104374302D01*
X138521360Y-104486499D01*
X138394246Y-104743000D01*
X138267443Y-105024430D01*
X138150313Y-105309333D01*
X138098302Y-105446381D01*
X138052221Y-105576252D01*
X138013240Y-105696262D01*
X137982530Y-105803731D01*
X137961261Y-105895976D01*
X137950604Y-105970315D01*
X137946829Y-106059197D01*
X137733862Y-106059197D01*
X137733530Y-106048894D01*
X137734611Y-105981032D01*
X137738938Y-105912107D01*
X137754884Y-105811595D01*
X137785643Y-105689186D01*
X137829409Y-105548653D01*
X137884376Y-105393772D01*
X137948737Y-105228318D01*
X138020688Y-105056067D01*
X138180130Y-104706269D01*
X138264010Y-104536273D01*
X138348254Y-104374578D01*
X138431057Y-104224961D01*
X138510611Y-104091195D01*
X138585112Y-103977056D01*
X138652753Y-103886319D01*
X138711727Y-103822758D01*
X138737400Y-103802349D01*
X138760230Y-103790149D01*
X138782213Y-103782785D01*
X138804510Y-103777563D01*
X138827122Y-103774484D01*
X138850053Y-103773550D01*
X138873306Y-103774764D01*
X138896884Y-103778126D01*
X138920789Y-103783640D01*
X138945024Y-103791306D01*
X138969593Y-103801128D01*
X138994498Y-103813106D01*
X139019742Y-103827243D01*
X139045328Y-103843541D01*
X139071259Y-103862001D01*
X139097538Y-103882627D01*
X139124168Y-103905418D01*
X139151151Y-103930378D01*
X139178491Y-103957509D01*
X139206190Y-103986811D01*
X139234252Y-104018288D01*
X139262679Y-104051942D01*
X139291474Y-104087773D01*
X139320641Y-104125785D01*
X139380098Y-104208356D01*
X139441075Y-104299671D01*
X139503595Y-104399745D01*
X139567680Y-104508593D01*
X139633354Y-104626232D01*
X139781521Y-104896107D01*
X140226021Y-104885524D01*
X140329105Y-104884790D01*
X140427600Y-104886599D01*
X140520887Y-104891012D01*
X140608344Y-104898092D01*
X140689352Y-104907900D01*
X140763290Y-104920499D01*
X140797415Y-104927864D01*
X140829540Y-104935950D01*
X140859587Y-104944765D01*
X140887479Y-104954316D01*
X141109729Y-105033691D01*
X141347854Y-104626232D01*
X141403375Y-104532889D01*
X141458649Y-104443546D01*
X141513426Y-104358481D01*
X141567458Y-104277974D01*
X141620499Y-104202305D01*
X141672300Y-104131751D01*
X141722612Y-104066592D01*
X141771188Y-104007107D01*
X141817779Y-103953576D01*
X141862138Y-103906276D01*
X141904017Y-103865488D01*
X141943167Y-103831490D01*
X141979340Y-103804562D01*
X142012289Y-103784981D01*
X142041765Y-103773029D01*
X142055124Y-103770000D01*
X142067521Y-103768982D01*
X142077737Y-103769409D01*
X142088481Y-103770657D01*
X142099659Y-103772680D01*
X142111177Y-103775432D01*
X142122944Y-103778865D01*
X142134866Y-103782935D01*
X142146849Y-103787594D01*
X142158802Y-103792795D01*
X142170631Y-103798492D01*
X142182243Y-103804639D01*
X142193544Y-103811189D01*
X142204443Y-103818096D01*
X142214845Y-103825312D01*
X142224659Y-103832792D01*
X142233790Y-103840490D01*
X142242146Y-103848357D01*
X142271701Y-103879628D01*
X142300985Y-103914224D01*
X142330222Y-103952618D01*
X142359637Y-103995284D01*
X142389456Y-104042693D01*
X142419903Y-104095319D01*
X142451202Y-104153635D01*
X142483578Y-104218112D01*
X142517257Y-104289226D01*
X142552463Y-104367447D01*
X142589421Y-104453249D01*
X142628355Y-104547105D01*
X142669491Y-104649488D01*
X142713053Y-104760870D01*
X142808354Y-105012524D01*
X142911387Y-105303638D01*
X142953962Y-105434882D01*
X142990669Y-105557483D01*
X143021578Y-105672115D01*
X143046758Y-105779454D01*
X143066280Y-105880173D01*
X143080214Y-105974946D01*
X143088628Y-106064448D01*
X143090867Y-106128569D01*
X143091593Y-106149354D01*
G37*
G36*
X135384248Y-120915152D02*
G01*
X135400217Y-120925715D01*
X135452070Y-120964579D01*
X135524634Y-121022253D01*
X135610902Y-121092929D01*
X135703868Y-121170799D01*
X135796524Y-121250053D01*
X135881862Y-121324884D01*
X135952876Y-121389483D01*
X136069786Y-121500952D01*
X136177745Y-121608536D01*
X136277725Y-121713308D01*
X136370697Y-121816344D01*
X136457634Y-121918719D01*
X136539507Y-122021506D01*
X136617287Y-122125782D01*
X136691945Y-122232622D01*
X136728429Y-122287604D01*
X136763132Y-122342079D01*
X136796052Y-122396038D01*
X136827186Y-122449470D01*
X136856533Y-122502364D01*
X136884089Y-122554711D01*
X136909852Y-122606499D01*
X136933819Y-122657719D01*
X136955988Y-122708360D01*
X136976355Y-122758412D01*
X136994920Y-122807865D01*
X137011678Y-122856708D01*
X137026628Y-122904930D01*
X137039766Y-122952523D01*
X137051091Y-122999474D01*
X137060599Y-123045775D01*
X137081765Y-123160427D01*
X137152321Y-123171011D01*
X137169881Y-123173518D01*
X137186227Y-123176437D01*
X137201426Y-123179805D01*
X137215545Y-123183661D01*
X137222220Y-123185785D01*
X137228651Y-123188045D01*
X137234845Y-123190446D01*
X137240811Y-123192994D01*
X137246558Y-123195693D01*
X137252093Y-123198548D01*
X137257426Y-123201564D01*
X137262564Y-123204745D01*
X137267516Y-123208097D01*
X137272290Y-123211624D01*
X137276895Y-123215332D01*
X137281339Y-123219225D01*
X137285631Y-123223307D01*
X137289779Y-123227585D01*
X137293791Y-123232062D01*
X137297676Y-123236743D01*
X137301442Y-123241634D01*
X137305098Y-123246739D01*
X137308651Y-123252062D01*
X137312111Y-123257610D01*
X137318783Y-123269396D01*
X137325182Y-123282136D01*
X137331962Y-123297264D01*
X137337753Y-123312211D01*
X137342557Y-123326962D01*
X137346376Y-123341502D01*
X137349213Y-123355813D01*
X137351072Y-123369882D01*
X137351953Y-123383693D01*
X137351861Y-123397230D01*
X137350797Y-123410477D01*
X137348763Y-123423419D01*
X137345764Y-123436041D01*
X137341801Y-123448327D01*
X137336877Y-123460262D01*
X137330994Y-123471829D01*
X137324155Y-123483015D01*
X137316362Y-123493802D01*
X137310713Y-123501362D01*
X137305648Y-123508968D01*
X137301131Y-123516832D01*
X137297125Y-123525167D01*
X137293595Y-123534183D01*
X137290504Y-123544094D01*
X137287815Y-123555110D01*
X137285494Y-123567445D01*
X137283504Y-123581309D01*
X137281808Y-123596914D01*
X137279155Y-123634197D01*
X137277247Y-123680988D01*
X137275793Y-123738983D01*
X137274697Y-123792678D01*
X137273801Y-123816862D01*
X137272651Y-123839469D01*
X137271232Y-123860651D01*
X137269530Y-123880556D01*
X137267527Y-123899334D01*
X137265210Y-123917136D01*
X137262561Y-123934111D01*
X137259567Y-123950408D01*
X137256210Y-123966179D01*
X137252476Y-123981573D01*
X137248350Y-123996739D01*
X137243815Y-124011828D01*
X137238857Y-124026989D01*
X137233459Y-124042372D01*
X137212475Y-124093888D01*
X137188615Y-124143861D01*
X137161979Y-124192196D01*
X137132670Y-124238798D01*
X137100787Y-124283570D01*
X137066431Y-124326417D01*
X137029703Y-124367243D01*
X136990704Y-124405954D01*
X136949535Y-124442452D01*
X136906296Y-124476643D01*
X136861088Y-124508432D01*
X136814012Y-124537722D01*
X136765169Y-124564417D01*
X136714659Y-124588423D01*
X136662584Y-124609644D01*
X136609043Y-124627983D01*
X136581567Y-124635674D01*
X136551627Y-124642215D01*
X136519568Y-124647614D01*
X136485736Y-124651878D01*
X136450478Y-124655016D01*
X136414140Y-124657036D01*
X136377068Y-124657944D01*
X136339609Y-124657749D01*
X136302108Y-124656458D01*
X136264912Y-124654080D01*
X136228368Y-124650621D01*
X136192820Y-124646091D01*
X136158616Y-124640495D01*
X136126102Y-124633843D01*
X136095625Y-124626142D01*
X136067529Y-124617400D01*
X136013101Y-124596665D01*
X135960352Y-124572896D01*
X135909391Y-124546203D01*
X135860327Y-124516693D01*
X135813268Y-124484475D01*
X135768322Y-124449658D01*
X135725599Y-124412350D01*
X135685206Y-124372660D01*
X135647252Y-124330696D01*
X135611846Y-124286567D01*
X135579096Y-124240381D01*
X135549111Y-124192247D01*
X135521999Y-124142274D01*
X135497869Y-124090569D01*
X135476829Y-124037241D01*
X135458987Y-123982400D01*
X135449930Y-123947440D01*
X135448452Y-123940066D01*
X135533071Y-123940066D01*
X135545418Y-123982400D01*
X135550191Y-123996761D01*
X135555240Y-124010722D01*
X135560553Y-124024254D01*
X135566116Y-124037328D01*
X135571917Y-124049917D01*
X135577943Y-124061992D01*
X135584181Y-124073524D01*
X135590618Y-124084485D01*
X135597240Y-124094846D01*
X135604036Y-124104580D01*
X135610992Y-124113657D01*
X135618096Y-124122050D01*
X135625333Y-124129730D01*
X135632692Y-124136668D01*
X135640160Y-124142836D01*
X135643931Y-124145622D01*
X135647723Y-124148205D01*
X135663037Y-124157350D01*
X135681682Y-124166874D01*
X135703391Y-124176703D01*
X135727898Y-124186763D01*
X135784242Y-124207271D01*
X135848586Y-124227801D01*
X135918801Y-124247751D01*
X135992757Y-124266524D01*
X136068325Y-124283518D01*
X136143376Y-124298136D01*
X136178967Y-124304282D01*
X136211065Y-124310180D01*
X136225837Y-124313049D01*
X136239773Y-124315871D01*
X136252888Y-124318652D01*
X136265195Y-124321397D01*
X136276705Y-124324111D01*
X136287433Y-124326799D01*
X136297390Y-124329466D01*
X136306591Y-124332118D01*
X136315047Y-124334760D01*
X136322773Y-124337396D01*
X136329780Y-124340032D01*
X136336081Y-124342674D01*
X136341690Y-124345326D01*
X136346620Y-124347993D01*
X136350882Y-124350681D01*
X136354492Y-124353395D01*
X136357460Y-124356140D01*
X136358708Y-124357526D01*
X136359801Y-124358921D01*
X136360739Y-124360327D01*
X136361526Y-124361743D01*
X136362162Y-124363172D01*
X136362650Y-124364612D01*
X136362990Y-124366066D01*
X136363184Y-124367533D01*
X136363234Y-124369014D01*
X136363142Y-124370510D01*
X136362909Y-124372022D01*
X136362537Y-124373550D01*
X136362028Y-124375094D01*
X136361382Y-124376656D01*
X136359689Y-124379835D01*
X136357472Y-124383092D01*
X136354743Y-124386431D01*
X136351515Y-124389858D01*
X136347030Y-124393008D01*
X136340587Y-124395526D01*
X136322215Y-124398743D01*
X136297181Y-124399660D01*
X136266270Y-124398429D01*
X136230263Y-124395204D01*
X136189944Y-124390137D01*
X136099500Y-124375085D01*
X136001201Y-124354494D01*
X135901310Y-124329583D01*
X135806091Y-124301570D01*
X135762191Y-124286783D01*
X135721807Y-124271677D01*
X135712334Y-124268675D01*
X135709121Y-124268344D01*
X135706876Y-124268746D01*
X135705564Y-124269846D01*
X135705149Y-124271612D01*
X135705596Y-124274007D01*
X135706869Y-124276997D01*
X135711751Y-124284625D01*
X135719512Y-124294219D01*
X135729867Y-124305503D01*
X135742533Y-124318200D01*
X135757223Y-124332034D01*
X135773656Y-124346729D01*
X135791545Y-124362007D01*
X135810608Y-124377593D01*
X135830559Y-124393210D01*
X135851115Y-124408582D01*
X135871991Y-124423432D01*
X135892904Y-124437483D01*
X135903924Y-124444503D01*
X135915742Y-124451639D01*
X135941328Y-124466063D01*
X135968775Y-124480364D01*
X135997194Y-124494148D01*
X136025695Y-124507022D01*
X136053390Y-124518594D01*
X136079390Y-124528471D01*
X136102807Y-124536261D01*
X136212168Y-124569775D01*
X136356807Y-124495691D01*
X136391562Y-124477698D01*
X136424341Y-124460138D01*
X136455068Y-124443074D01*
X136483669Y-124426569D01*
X136510068Y-124410684D01*
X136534191Y-124395480D01*
X136555963Y-124381021D01*
X136575308Y-124367368D01*
X136592153Y-124354584D01*
X136599614Y-124348536D01*
X136606421Y-124342729D01*
X136612566Y-124337170D01*
X136618038Y-124331867D01*
X136622829Y-124326827D01*
X136626930Y-124322059D01*
X136630330Y-124317569D01*
X136633020Y-124313367D01*
X136634992Y-124309459D01*
X136636235Y-124305853D01*
X136636740Y-124302557D01*
X136636499Y-124299579D01*
X136635501Y-124296927D01*
X136633737Y-124294608D01*
X136630825Y-124292753D01*
X136625486Y-124290515D01*
X136608078Y-124285017D01*
X136582609Y-124278361D01*
X136550173Y-124270795D01*
X136511867Y-124262568D01*
X136468786Y-124253928D01*
X136422026Y-124245123D01*
X136372682Y-124236400D01*
X136268960Y-124217407D01*
X136175264Y-124198559D01*
X136090373Y-124179504D01*
X136013069Y-124159891D01*
X135976880Y-124149766D01*
X135942131Y-124139369D01*
X135908668Y-124128657D01*
X135876340Y-124117585D01*
X135844993Y-124106111D01*
X135814476Y-124094190D01*
X135784636Y-124081777D01*
X135755321Y-124068830D01*
X135731625Y-124057730D01*
X135707310Y-124045844D01*
X135683077Y-124033546D01*
X135659630Y-124021205D01*
X135637671Y-124009196D01*
X135617903Y-123997889D01*
X135601029Y-123987657D01*
X135587751Y-123978872D01*
X135533071Y-123940066D01*
X135448452Y-123940066D01*
X135442589Y-123910831D01*
X135436942Y-123872786D01*
X135432970Y-123833516D01*
X135430651Y-123793234D01*
X135430364Y-123776025D01*
X135501320Y-123776025D01*
X135501643Y-123779650D01*
X135502597Y-123783569D01*
X135506323Y-123792230D01*
X135512343Y-123801884D01*
X135520503Y-123812405D01*
X135530647Y-123823670D01*
X135542620Y-123835556D01*
X135556268Y-123847938D01*
X135571435Y-123860691D01*
X135587966Y-123873693D01*
X135605707Y-123886819D01*
X135624502Y-123899945D01*
X135644196Y-123912947D01*
X135664634Y-123925700D01*
X135685661Y-123938082D01*
X135707122Y-123949968D01*
X135728862Y-123961233D01*
X135798157Y-123993831D01*
X135872785Y-124024237D01*
X135953283Y-124052576D01*
X136040189Y-124078973D01*
X136134040Y-124103550D01*
X136235374Y-124126432D01*
X136344728Y-124147744D01*
X136462640Y-124167608D01*
X136499231Y-124173492D01*
X136532376Y-124179287D01*
X136562223Y-124185072D01*
X136588923Y-124190924D01*
X136601140Y-124193900D01*
X136612626Y-124196921D01*
X136623401Y-124199998D01*
X136633482Y-124203141D01*
X136642889Y-124206358D01*
X136651640Y-124209660D01*
X136659755Y-124213056D01*
X136667251Y-124216556D01*
X136674148Y-124220170D01*
X136680464Y-124223907D01*
X136686218Y-124227777D01*
X136691429Y-124231790D01*
X136696115Y-124235956D01*
X136700296Y-124240283D01*
X136703989Y-124244782D01*
X136707214Y-124249463D01*
X136709990Y-124254335D01*
X136712334Y-124259409D01*
X136714267Y-124264692D01*
X136715806Y-124270196D01*
X136716971Y-124275930D01*
X136717779Y-124281903D01*
X136718251Y-124288126D01*
X136718404Y-124294608D01*
X136718167Y-124300612D01*
X136717456Y-124306716D01*
X136714628Y-124319209D01*
X136709939Y-124332059D01*
X136703411Y-124345237D01*
X136695063Y-124358715D01*
X136684918Y-124372464D01*
X136672994Y-124386456D01*
X136659314Y-124400662D01*
X136643897Y-124415054D01*
X136626764Y-124429604D01*
X136607937Y-124444283D01*
X136587435Y-124459063D01*
X136565280Y-124473915D01*
X136541491Y-124488811D01*
X136516091Y-124503723D01*
X136489098Y-124518622D01*
X136472803Y-124527163D01*
X136458289Y-124534948D01*
X136445516Y-124542004D01*
X136434445Y-124548360D01*
X136425039Y-124554044D01*
X136420948Y-124556643D01*
X136417258Y-124559084D01*
X136413965Y-124561372D01*
X136411063Y-124563510D01*
X136408549Y-124565501D01*
X136406416Y-124567349D01*
X136404661Y-124569058D01*
X136403278Y-124570630D01*
X136402263Y-124572070D01*
X136401610Y-124573382D01*
X136401418Y-124573990D01*
X136401315Y-124574568D01*
X136401301Y-124575115D01*
X136401374Y-124575632D01*
X136401534Y-124576119D01*
X136401780Y-124576578D01*
X136402113Y-124577008D01*
X136402530Y-124577409D01*
X136403618Y-124578129D01*
X136405040Y-124578742D01*
X136406791Y-124579251D01*
X136408866Y-124579659D01*
X136411259Y-124579970D01*
X136413967Y-124580188D01*
X136416985Y-124580316D01*
X136420307Y-124580358D01*
X136433566Y-124579790D01*
X136448743Y-124578126D01*
X136465645Y-124575428D01*
X136484082Y-124571759D01*
X136503863Y-124567181D01*
X136524797Y-124561755D01*
X136569355Y-124548608D01*
X136616229Y-124532816D01*
X136663889Y-124514874D01*
X136710804Y-124495278D01*
X136755446Y-124474525D01*
X136852460Y-124425136D01*
X136848035Y-124359872D01*
X136931835Y-124359872D01*
X136993571Y-124289317D01*
X137000112Y-124281458D01*
X137007124Y-124272504D01*
X137022289Y-124251724D01*
X137038529Y-124227801D01*
X137055307Y-124201563D01*
X137072084Y-124173837D01*
X137088324Y-124145449D01*
X137103490Y-124117227D01*
X137117043Y-124089997D01*
X137129741Y-124064045D01*
X137141241Y-124039478D01*
X137151335Y-124016854D01*
X137159817Y-123996731D01*
X137163389Y-123987782D01*
X137166480Y-123979668D01*
X137169065Y-123972458D01*
X137171117Y-123966221D01*
X137172611Y-123961029D01*
X137173522Y-123956951D01*
X137173822Y-123954056D01*
X137173736Y-123953074D01*
X137173487Y-123952414D01*
X137172110Y-123951957D01*
X137169991Y-123951900D01*
X137167174Y-123952231D01*
X137163703Y-123952937D01*
X137159623Y-123954005D01*
X137154977Y-123955421D01*
X137144163Y-123959249D01*
X137131612Y-123964316D01*
X137117677Y-123970521D01*
X137102708Y-123977759D01*
X137087057Y-123985927D01*
X137068144Y-123996634D01*
X137050435Y-124008245D01*
X137033936Y-124020755D01*
X137018651Y-124034159D01*
X137004585Y-124048451D01*
X136991745Y-124063628D01*
X136980134Y-124079683D01*
X136969758Y-124096611D01*
X136960623Y-124114408D01*
X136952732Y-124133067D01*
X136946093Y-124152585D01*
X136940709Y-124172955D01*
X136936586Y-124194172D01*
X136933729Y-124216232D01*
X136932144Y-124239129D01*
X136931835Y-124262858D01*
X136931835Y-124359872D01*
X136848035Y-124359872D01*
X136845404Y-124321066D01*
X136844491Y-124298870D01*
X136844384Y-124275123D01*
X136844723Y-124262858D01*
X136845063Y-124250590D01*
X136846506Y-124226037D01*
X136848694Y-124202228D01*
X136851605Y-124179928D01*
X136853325Y-124169582D01*
X136855219Y-124159901D01*
X136857283Y-124150980D01*
X136859515Y-124142913D01*
X136861728Y-124135182D01*
X136864384Y-124127220D01*
X136870932Y-124110716D01*
X136878979Y-124093622D01*
X136888343Y-124076161D01*
X136898845Y-124058556D01*
X136910303Y-124041028D01*
X136922535Y-124023800D01*
X136935362Y-124007094D01*
X136948603Y-123991132D01*
X136962076Y-123976137D01*
X136975600Y-123962330D01*
X136988996Y-123949933D01*
X137002081Y-123939170D01*
X137008451Y-123934470D01*
X137014675Y-123930262D01*
X137020732Y-123926573D01*
X137026598Y-123923431D01*
X137032251Y-123920864D01*
X137037668Y-123918900D01*
X137041518Y-123917532D01*
X137045129Y-123916079D01*
X137048502Y-123914550D01*
X137051634Y-123912954D01*
X137054527Y-123911297D01*
X137057178Y-123909590D01*
X137059588Y-123907840D01*
X137061756Y-123906056D01*
X137063681Y-123904247D01*
X137065362Y-123902419D01*
X137066799Y-123900583D01*
X137067992Y-123898746D01*
X137068939Y-123896917D01*
X137069639Y-123895104D01*
X137070093Y-123893315D01*
X137070300Y-123891559D01*
X137070258Y-123889845D01*
X137069968Y-123888181D01*
X137069429Y-123886574D01*
X137068639Y-123885034D01*
X137067599Y-123883569D01*
X137066308Y-123882188D01*
X137064765Y-123880898D01*
X137062969Y-123879708D01*
X137060920Y-123878627D01*
X137058617Y-123877663D01*
X137056059Y-123876824D01*
X137053247Y-123876118D01*
X137050178Y-123875555D01*
X137046853Y-123875143D01*
X137043271Y-123874889D01*
X137039432Y-123874802D01*
X137036133Y-123874578D01*
X137032228Y-123873920D01*
X137027770Y-123872849D01*
X137022813Y-123871385D01*
X137017411Y-123869549D01*
X137011619Y-123867361D01*
X137005492Y-123864843D01*
X136999083Y-123862014D01*
X136992446Y-123858896D01*
X136985637Y-123855510D01*
X136978708Y-123851875D01*
X136971715Y-123848013D01*
X136964711Y-123843945D01*
X136957752Y-123839690D01*
X136950891Y-123835270D01*
X136944182Y-123830705D01*
X136919199Y-123811224D01*
X136895878Y-123787962D01*
X136874267Y-123761109D01*
X136854416Y-123730853D01*
X136836374Y-123697382D01*
X136820189Y-123660886D01*
X136805912Y-123621553D01*
X136793590Y-123579572D01*
X136783273Y-123535130D01*
X136775010Y-123488418D01*
X136768851Y-123439623D01*
X136764844Y-123388934D01*
X136763038Y-123336539D01*
X136763094Y-123329816D01*
X136845900Y-123329816D01*
X136846913Y-123388541D01*
X136848435Y-123415136D01*
X136850696Y-123439122D01*
X136854200Y-123465227D01*
X136858719Y-123491198D01*
X136864195Y-123516900D01*
X136870567Y-123542199D01*
X136877776Y-123566961D01*
X136885763Y-123591051D01*
X136894469Y-123614334D01*
X136903833Y-123636677D01*
X136913797Y-123657946D01*
X136924300Y-123678005D01*
X136935284Y-123696720D01*
X136946690Y-123713958D01*
X136958457Y-123729583D01*
X136970526Y-123743462D01*
X136976656Y-123749704D01*
X136982839Y-123755459D01*
X136989067Y-123760710D01*
X136995334Y-123765441D01*
X137001257Y-123769406D01*
X137007740Y-123773351D01*
X137014725Y-123777254D01*
X137022151Y-123781096D01*
X137029960Y-123784854D01*
X137038092Y-123788510D01*
X137046487Y-123792041D01*
X137055086Y-123795427D01*
X137063830Y-123798649D01*
X137072660Y-123801684D01*
X137081515Y-123804512D01*
X137090337Y-123807113D01*
X137099065Y-123809466D01*
X137107641Y-123811551D01*
X137116005Y-123813345D01*
X137124098Y-123814830D01*
X137199946Y-123827177D01*
X137191126Y-123668427D01*
X137188821Y-123621633D01*
X137187347Y-123600970D01*
X137185586Y-123581804D01*
X137183484Y-123563888D01*
X137180987Y-123546977D01*
X137178040Y-123530826D01*
X137174590Y-123515189D01*
X137170581Y-123499821D01*
X137165960Y-123484476D01*
X137160672Y-123468909D01*
X137154663Y-123452875D01*
X137147879Y-123436127D01*
X137140266Y-123418420D01*
X137122335Y-123379150D01*
X137115381Y-123365278D01*
X137107796Y-123350858D01*
X137091026Y-123320831D01*
X137072601Y-123289977D01*
X137053102Y-123259205D01*
X137049549Y-123253913D01*
X137159376Y-123253913D01*
X137159559Y-123255581D01*
X137160096Y-123257910D01*
X137162160Y-123264386D01*
X137165422Y-123273013D01*
X137169739Y-123283459D01*
X137174965Y-123295392D01*
X137180956Y-123308484D01*
X137187567Y-123322402D01*
X137194654Y-123336816D01*
X137201740Y-123351393D01*
X137208352Y-123365783D01*
X137214343Y-123379635D01*
X137219569Y-123392599D01*
X137221850Y-123398638D01*
X137223886Y-123404323D01*
X137225658Y-123409610D01*
X137227148Y-123414455D01*
X137228339Y-123418814D01*
X137229212Y-123422644D01*
X137229749Y-123425900D01*
X137229932Y-123428538D01*
X137229957Y-123429691D01*
X137230033Y-123430831D01*
X137230157Y-123431957D01*
X137230328Y-123433069D01*
X137230544Y-123434163D01*
X137230804Y-123435240D01*
X137231106Y-123436296D01*
X137231448Y-123437330D01*
X137231829Y-123438342D01*
X137232246Y-123439328D01*
X137232700Y-123440288D01*
X137233187Y-123441220D01*
X137233707Y-123442122D01*
X137234258Y-123442993D01*
X137234837Y-123443831D01*
X137235444Y-123444634D01*
X137236077Y-123445401D01*
X137236734Y-123446130D01*
X137237413Y-123446820D01*
X137238114Y-123447469D01*
X137238834Y-123448075D01*
X137239572Y-123448638D01*
X137240325Y-123449154D01*
X137241094Y-123449622D01*
X137241875Y-123450042D01*
X137242668Y-123450411D01*
X137243470Y-123450727D01*
X137244281Y-123450990D01*
X137245097Y-123451197D01*
X137245919Y-123451347D01*
X137246744Y-123451438D01*
X137247571Y-123451469D01*
X137249653Y-123451184D01*
X137251601Y-123450349D01*
X137253415Y-123448992D01*
X137255095Y-123447142D01*
X137256640Y-123444826D01*
X137258051Y-123442074D01*
X137260469Y-123435374D01*
X137262350Y-123427267D01*
X137263694Y-123417983D01*
X137264500Y-123407747D01*
X137264769Y-123396788D01*
X137264500Y-123385334D01*
X137263694Y-123373610D01*
X137262350Y-123361845D01*
X137260469Y-123350266D01*
X137258051Y-123339100D01*
X137255095Y-123328576D01*
X137251601Y-123318919D01*
X137247571Y-123310358D01*
X137245611Y-123306867D01*
X137243383Y-123303348D01*
X137240909Y-123299816D01*
X137238210Y-123296285D01*
X137235309Y-123292767D01*
X137232227Y-123289278D01*
X137228985Y-123285830D01*
X137225605Y-123282439D01*
X137218518Y-123275879D01*
X137211139Y-123269709D01*
X137203641Y-123264041D01*
X137196197Y-123258985D01*
X137188981Y-123254652D01*
X137185512Y-123252792D01*
X137182165Y-123251154D01*
X137178962Y-123249753D01*
X137175923Y-123248601D01*
X137173071Y-123247715D01*
X137170428Y-123247106D01*
X137168014Y-123246789D01*
X137165852Y-123246778D01*
X137163964Y-123247087D01*
X137162370Y-123247729D01*
X137161092Y-123248719D01*
X137160153Y-123250071D01*
X137159574Y-123251797D01*
X137159376Y-123253913D01*
X137049549Y-123253913D01*
X137033107Y-123229426D01*
X137013194Y-123201548D01*
X137003449Y-123188607D01*
X136993943Y-123176482D01*
X136984746Y-123165287D01*
X136975932Y-123155136D01*
X136958376Y-123137014D01*
X136941646Y-123119968D01*
X136926074Y-123104410D01*
X136911991Y-123090754D01*
X136905610Y-123084768D01*
X136899726Y-123079413D01*
X136894379Y-123074739D01*
X136889611Y-123070800D01*
X136885463Y-123067646D01*
X136881977Y-123065329D01*
X136880495Y-123064501D01*
X136879193Y-123063901D01*
X136878078Y-123063537D01*
X136877154Y-123063414D01*
X136875176Y-123064151D01*
X136873214Y-123066315D01*
X136869361Y-123074638D01*
X136865643Y-123087807D01*
X136862106Y-123105251D01*
X136855760Y-123150664D01*
X136850696Y-123206289D01*
X136847285Y-123267535D01*
X136845900Y-123329816D01*
X136763094Y-123329816D01*
X136763483Y-123282628D01*
X136766227Y-123227389D01*
X136771321Y-123171011D01*
X136778314Y-123109206D01*
X136780785Y-123084427D01*
X136782290Y-123063193D01*
X136782613Y-123053780D01*
X136782616Y-123045101D01*
X136782271Y-123037107D01*
X136781552Y-123029748D01*
X136780433Y-123022973D01*
X136778887Y-123016731D01*
X136776887Y-123010972D01*
X136774407Y-123005646D01*
X136771421Y-123000703D01*
X136767902Y-122996091D01*
X136763824Y-122991761D01*
X136759159Y-122987663D01*
X136753883Y-122983745D01*
X136747967Y-122979958D01*
X136741386Y-122976251D01*
X136734114Y-122972573D01*
X136717387Y-122965106D01*
X136697575Y-122957153D01*
X136647848Y-122938177D01*
X136625932Y-122930533D01*
X136600840Y-122923494D01*
X136573035Y-122917086D01*
X136542980Y-122911333D01*
X136511136Y-122906263D01*
X136477967Y-122901901D01*
X136443935Y-122898272D01*
X136409503Y-122895403D01*
X136375133Y-122893320D01*
X136341287Y-122892048D01*
X136308428Y-122891613D01*
X136277018Y-122892041D01*
X136247521Y-122893358D01*
X136220398Y-122895589D01*
X136196112Y-122898761D01*
X136175126Y-122902900D01*
X136157885Y-122907513D01*
X136140055Y-122912691D01*
X136121874Y-122918333D01*
X136103578Y-122924342D01*
X136085407Y-122930620D01*
X136067598Y-122937068D01*
X136050388Y-122943589D01*
X136034015Y-122950084D01*
X136018717Y-122956454D01*
X136004732Y-122962603D01*
X135992297Y-122968431D01*
X135981650Y-122973841D01*
X135973028Y-122978734D01*
X135966670Y-122983012D01*
X135964414Y-122984890D01*
X135962814Y-122986577D01*
X135961897Y-122988061D01*
X135961696Y-122989330D01*
X135962169Y-122993308D01*
X135963247Y-122997301D01*
X135964917Y-123001303D01*
X135967163Y-123005309D01*
X135973327Y-123013305D01*
X135981622Y-123021246D01*
X135991933Y-123029082D01*
X136004143Y-123036769D01*
X136018135Y-123044260D01*
X136033795Y-123051507D01*
X136051004Y-123058466D01*
X136069648Y-123065088D01*
X136089609Y-123071328D01*
X136110772Y-123077139D01*
X136133020Y-123082474D01*
X136156237Y-123087288D01*
X136180306Y-123091533D01*
X136205112Y-123095164D01*
X136234256Y-123099619D01*
X136263386Y-123105006D01*
X136292367Y-123111267D01*
X136321060Y-123118342D01*
X136349330Y-123126172D01*
X136377040Y-123134696D01*
X136404051Y-123143856D01*
X136430229Y-123153592D01*
X136455434Y-123163845D01*
X136479531Y-123174556D01*
X136502383Y-123185664D01*
X136523853Y-123197111D01*
X136543803Y-123208837D01*
X136562097Y-123220782D01*
X136578597Y-123232888D01*
X136593168Y-123245094D01*
X136603969Y-123256008D01*
X136614504Y-123268159D01*
X136624713Y-123281421D01*
X136634537Y-123295668D01*
X136643916Y-123310772D01*
X136652792Y-123326608D01*
X136661105Y-123343049D01*
X136668795Y-123359967D01*
X136675802Y-123377237D01*
X136682069Y-123394732D01*
X136687534Y-123412325D01*
X136692139Y-123429889D01*
X136695824Y-123447298D01*
X136698529Y-123464426D01*
X136700196Y-123481146D01*
X136700765Y-123497330D01*
X136700339Y-123516844D01*
X136699075Y-123536339D01*
X136696992Y-123555787D01*
X136694109Y-123575158D01*
X136690446Y-123594426D01*
X136686022Y-123613560D01*
X136680856Y-123632531D01*
X136674968Y-123651312D01*
X136668378Y-123669873D01*
X136661103Y-123688186D01*
X136653165Y-123706222D01*
X136644582Y-123723952D01*
X136635374Y-123741347D01*
X136625560Y-123758379D01*
X136615160Y-123775019D01*
X136604192Y-123791238D01*
X136592677Y-123807008D01*
X136580633Y-123822299D01*
X136568080Y-123837083D01*
X136555038Y-123851331D01*
X136541525Y-123865015D01*
X136527561Y-123878105D01*
X136513166Y-123890573D01*
X136498359Y-123902391D01*
X136483159Y-123913529D01*
X136467586Y-123923958D01*
X136451658Y-123933651D01*
X136435396Y-123942578D01*
X136418819Y-123950710D01*
X136401946Y-123958019D01*
X136384797Y-123964476D01*
X136367390Y-123970052D01*
X136321621Y-123981271D01*
X136273260Y-123989193D01*
X136222775Y-123993911D01*
X136170634Y-123995518D01*
X136117304Y-123994108D01*
X136063254Y-123989772D01*
X136008950Y-123982605D01*
X135954861Y-123972698D01*
X135901453Y-123960146D01*
X135849196Y-123945041D01*
X135798556Y-123927476D01*
X135750001Y-123907545D01*
X135704000Y-123885339D01*
X135661018Y-123860953D01*
X135621525Y-123834479D01*
X135585987Y-123806011D01*
X135573409Y-123795093D01*
X135562092Y-123785478D01*
X135551974Y-123777144D01*
X135547345Y-123773452D01*
X135542993Y-123770072D01*
X135538909Y-123767002D01*
X135535086Y-123764239D01*
X135531516Y-123761781D01*
X135528192Y-123759626D01*
X135525106Y-123757770D01*
X135522250Y-123756212D01*
X135519615Y-123754948D01*
X135517196Y-123753976D01*
X135514983Y-123753293D01*
X135512968Y-123752898D01*
X135511146Y-123752786D01*
X135510303Y-123752836D01*
X135509506Y-123752956D01*
X135508753Y-123753146D01*
X135508042Y-123753405D01*
X135507374Y-123753734D01*
X135506747Y-123754131D01*
X135506159Y-123754597D01*
X135505611Y-123755130D01*
X135504628Y-123756401D01*
X135503789Y-123757941D01*
X135503088Y-123759746D01*
X135502516Y-123761816D01*
X135502065Y-123764146D01*
X135501727Y-123766734D01*
X135501496Y-123769579D01*
X135501363Y-123772676D01*
X135501320Y-123776025D01*
X135430364Y-123776025D01*
X135429966Y-123752150D01*
X135430893Y-123710477D01*
X135433411Y-123668427D01*
X135437500Y-123626212D01*
X135440583Y-123603164D01*
X135518959Y-123603164D01*
X135519261Y-123607450D01*
X135520153Y-123612029D01*
X135521616Y-123616884D01*
X135523631Y-123621998D01*
X135529238Y-123632933D01*
X135536819Y-123644698D01*
X135546219Y-123657155D01*
X135557283Y-123670167D01*
X135569856Y-123683599D01*
X135583782Y-123697311D01*
X135598908Y-123711169D01*
X135615078Y-123725034D01*
X135632136Y-123738770D01*
X135649928Y-123752240D01*
X135668299Y-123765307D01*
X135687094Y-123777833D01*
X135706157Y-123789683D01*
X135725334Y-123800719D01*
X135751025Y-123813865D01*
X135777149Y-123826182D01*
X135803686Y-123837666D01*
X135830617Y-123848316D01*
X135857919Y-123858129D01*
X135885573Y-123867103D01*
X135913557Y-123875233D01*
X135941852Y-123882519D01*
X135970436Y-123888958D01*
X135999288Y-123894546D01*
X136028389Y-123899282D01*
X136057717Y-123903163D01*
X136087252Y-123906185D01*
X136116973Y-123908347D01*
X136146859Y-123909647D01*
X136176890Y-123910080D01*
X136209305Y-123909376D01*
X136240418Y-123907259D01*
X136270249Y-123903720D01*
X136284690Y-123901416D01*
X136298819Y-123898753D01*
X136312638Y-123895731D01*
X136326149Y-123892349D01*
X136339355Y-123888606D01*
X136352259Y-123884501D01*
X136364863Y-123880032D01*
X136377171Y-123875200D01*
X136389183Y-123870003D01*
X136400904Y-123864440D01*
X136412335Y-123858510D01*
X136423480Y-123852212D01*
X136434340Y-123845545D01*
X136444918Y-123838508D01*
X136455218Y-123831101D01*
X136465241Y-123823322D01*
X136474990Y-123815170D01*
X136484468Y-123806645D01*
X136493677Y-123797745D01*
X136502620Y-123788469D01*
X136511300Y-123778816D01*
X136519718Y-123768787D01*
X136527879Y-123758378D01*
X136535783Y-123747590D01*
X136543434Y-123736422D01*
X136550835Y-123724872D01*
X136558986Y-123711486D01*
X136566275Y-123698982D01*
X136572748Y-123687165D01*
X136578450Y-123675841D01*
X136583429Y-123664817D01*
X136587731Y-123653899D01*
X136591403Y-123642894D01*
X136594491Y-123631606D01*
X136597041Y-123619843D01*
X136599100Y-123607411D01*
X136600715Y-123594116D01*
X136601932Y-123579764D01*
X136602798Y-123564162D01*
X136603358Y-123547115D01*
X136603751Y-123507914D01*
X136603751Y-123377386D01*
X136529668Y-123310358D01*
X136521391Y-123303378D01*
X136512484Y-123296357D01*
X136503018Y-123289336D01*
X136493067Y-123282356D01*
X136482703Y-123275459D01*
X136471997Y-123268686D01*
X136461023Y-123262078D01*
X136449852Y-123255677D01*
X136438557Y-123249524D01*
X136427211Y-123243661D01*
X136415885Y-123238128D01*
X136404652Y-123232967D01*
X136393585Y-123228220D01*
X136382755Y-123223927D01*
X136372236Y-123220131D01*
X136362099Y-123216872D01*
X136321005Y-123204552D01*
X136278093Y-123192398D01*
X136238819Y-123181897D01*
X136222252Y-123177732D01*
X136208640Y-123174538D01*
X136146904Y-123163955D01*
X136235098Y-123273316D01*
X136257691Y-123301714D01*
X136277928Y-123327525D01*
X136295932Y-123350974D01*
X136311828Y-123372287D01*
X136325739Y-123391688D01*
X136337790Y-123409401D01*
X136348105Y-123425652D01*
X136356807Y-123440665D01*
X136364021Y-123454666D01*
X136367109Y-123461356D01*
X136369871Y-123467878D01*
X136372323Y-123474259D01*
X136374480Y-123480527D01*
X136376359Y-123486711D01*
X136377973Y-123492838D01*
X136379340Y-123498937D01*
X136380475Y-123505035D01*
X136382108Y-123517343D01*
X136382996Y-123529987D01*
X136383265Y-123543191D01*
X136383070Y-123550962D01*
X136382490Y-123558722D01*
X136381534Y-123566461D01*
X136380209Y-123574170D01*
X136378524Y-123581837D01*
X136376486Y-123589452D01*
X136374105Y-123597005D01*
X136371386Y-123604486D01*
X136368340Y-123611885D01*
X136364974Y-123619190D01*
X136361295Y-123626392D01*
X136357313Y-123633480D01*
X136353035Y-123640445D01*
X136348469Y-123647275D01*
X136338506Y-123660490D01*
X136327489Y-123673044D01*
X136315483Y-123684854D01*
X136302551Y-123695837D01*
X136295759Y-123700992D01*
X136288759Y-123705910D01*
X136281561Y-123710580D01*
X136274171Y-123714991D01*
X136266599Y-123719134D01*
X136258852Y-123722998D01*
X136250939Y-123726572D01*
X136242867Y-123729847D01*
X136234644Y-123732811D01*
X136226279Y-123735455D01*
X136209662Y-123739676D01*
X136193241Y-123742454D01*
X136177060Y-123743846D01*
X136161160Y-123743906D01*
X136145582Y-123742691D01*
X136130370Y-123740257D01*
X136115565Y-123736660D01*
X136101208Y-123731955D01*
X136087343Y-123726199D01*
X136074010Y-123719446D01*
X136061252Y-123711754D01*
X136049111Y-123703178D01*
X136037629Y-123693774D01*
X136026848Y-123683598D01*
X136016810Y-123672705D01*
X136007557Y-123661151D01*
X135999130Y-123648994D01*
X135991572Y-123636287D01*
X135984925Y-123623087D01*
X135979231Y-123609451D01*
X135974532Y-123595433D01*
X135970869Y-123581090D01*
X135968285Y-123566478D01*
X135966822Y-123551653D01*
X135966521Y-123536669D01*
X135967310Y-123523517D01*
X136047920Y-123523517D01*
X136047963Y-123530323D01*
X136048474Y-123537183D01*
X136049457Y-123544085D01*
X136050915Y-123551015D01*
X136052849Y-123557961D01*
X136055264Y-123564909D01*
X136058163Y-123571847D01*
X136061547Y-123578762D01*
X136065420Y-123585641D01*
X136069785Y-123592470D01*
X136074645Y-123599238D01*
X136080003Y-123605930D01*
X136085862Y-123612535D01*
X136092223Y-123619039D01*
X136097049Y-123623855D01*
X136101933Y-123628381D01*
X136106872Y-123632618D01*
X136111860Y-123636564D01*
X136116896Y-123640219D01*
X136121974Y-123643584D01*
X136127090Y-123646657D01*
X136132242Y-123649438D01*
X136137424Y-123651928D01*
X136142634Y-123654125D01*
X136147867Y-123656029D01*
X136153119Y-123657641D01*
X136158387Y-123658959D01*
X136163666Y-123659984D01*
X136168953Y-123660715D01*
X136174244Y-123661151D01*
X136179535Y-123661293D01*
X136184822Y-123661141D01*
X136190102Y-123660693D01*
X136195370Y-123659949D01*
X136200622Y-123658910D01*
X136205855Y-123657574D01*
X136211064Y-123655942D01*
X136216247Y-123654013D01*
X136221398Y-123651787D01*
X136226515Y-123649264D01*
X136231593Y-123646442D01*
X136236628Y-123643323D01*
X136241617Y-123639905D01*
X136246555Y-123636189D01*
X136251439Y-123632173D01*
X136256265Y-123627858D01*
X136260606Y-123623417D01*
X136264697Y-123618706D01*
X136268538Y-123613744D01*
X136272126Y-123608552D01*
X136275462Y-123603147D01*
X136278543Y-123597550D01*
X136281368Y-123591779D01*
X136283936Y-123585855D01*
X136286246Y-123579797D01*
X136288296Y-123573624D01*
X136290085Y-123567355D01*
X136291612Y-123561009D01*
X136293874Y-123548168D01*
X136295071Y-123535254D01*
X136295267Y-123528818D01*
X136295193Y-123522423D01*
X136294848Y-123516086D01*
X136294230Y-123509829D01*
X136293338Y-123503670D01*
X136292172Y-123497628D01*
X136290728Y-123491723D01*
X136289007Y-123485975D01*
X136287007Y-123480402D01*
X136284727Y-123475025D01*
X136282165Y-123469862D01*
X136279320Y-123464932D01*
X136276191Y-123460256D01*
X136272776Y-123455853D01*
X136269074Y-123451741D01*
X136265085Y-123447941D01*
X136256000Y-123440436D01*
X136247229Y-123433789D01*
X136238710Y-123427989D01*
X136230386Y-123423026D01*
X136222195Y-123418891D01*
X136218132Y-123417129D01*
X136214080Y-123415571D01*
X136210032Y-123414214D01*
X136205980Y-123413058D01*
X136201917Y-123412101D01*
X136197836Y-123411341D01*
X136193729Y-123410777D01*
X136189589Y-123410409D01*
X136185408Y-123410234D01*
X136181179Y-123410252D01*
X136176895Y-123410461D01*
X136172547Y-123410860D01*
X136163633Y-123412223D01*
X136154378Y-123414329D01*
X136144723Y-123417170D01*
X136134608Y-123420734D01*
X136123973Y-123425011D01*
X136116078Y-123428631D01*
X136108598Y-123432538D01*
X136101538Y-123436719D01*
X136094900Y-123441161D01*
X136088687Y-123445851D01*
X136082902Y-123450777D01*
X136077548Y-123455924D01*
X136072628Y-123461281D01*
X136068144Y-123466834D01*
X136064100Y-123472570D01*
X136060498Y-123478477D01*
X136057342Y-123484542D01*
X136054634Y-123490751D01*
X136052377Y-123497093D01*
X136050574Y-123503553D01*
X136049229Y-123510119D01*
X136048343Y-123516777D01*
X136047920Y-123523517D01*
X135967310Y-123523517D01*
X135967426Y-123521584D01*
X135969577Y-123506453D01*
X135973016Y-123491332D01*
X135977786Y-123476277D01*
X135983929Y-123461344D01*
X135991487Y-123446588D01*
X136000501Y-123432066D01*
X136042834Y-123368566D01*
X135834696Y-123347400D01*
X135791928Y-123343183D01*
X135751517Y-123339793D01*
X135714331Y-123337230D01*
X135681237Y-123335493D01*
X135653105Y-123334584D01*
X135630801Y-123334501D01*
X135622107Y-123334770D01*
X135615195Y-123335245D01*
X135610174Y-123335928D01*
X135607154Y-123336816D01*
X135605349Y-123338391D01*
X135603257Y-123341087D01*
X135598300Y-123349563D01*
X135592465Y-123361699D01*
X135585932Y-123376945D01*
X135571497Y-123414579D01*
X135556442Y-123458084D01*
X135542214Y-123503077D01*
X135530259Y-123545176D01*
X135525587Y-123563771D01*
X135522026Y-123579999D01*
X135519756Y-123593313D01*
X135518959Y-123603164D01*
X135440583Y-123603164D01*
X135443140Y-123584043D01*
X135450309Y-123542133D01*
X135458987Y-123500693D01*
X135469154Y-123459934D01*
X135480788Y-123420070D01*
X135493869Y-123381312D01*
X135508376Y-123343872D01*
X135509864Y-123339463D01*
X135510188Y-123335476D01*
X135509097Y-123331876D01*
X135506337Y-123328631D01*
X135501654Y-123325705D01*
X135494796Y-123323067D01*
X135485509Y-123320682D01*
X135473539Y-123318516D01*
X135440542Y-123314709D01*
X135393779Y-123311378D01*
X135331223Y-123308253D01*
X135250848Y-123305066D01*
X135193471Y-123302743D01*
X135138931Y-123299713D01*
X135087006Y-123295927D01*
X135037473Y-123291341D01*
X134990111Y-123285907D01*
X134944697Y-123279580D01*
X134901008Y-123272311D01*
X134858824Y-123264056D01*
X134817921Y-123254767D01*
X134778078Y-123244398D01*
X134768469Y-123241566D01*
X135660071Y-123241566D01*
X135660178Y-123242388D01*
X135660498Y-123243198D01*
X135661755Y-123244781D01*
X135663803Y-123246306D01*
X135666603Y-123247768D01*
X135670115Y-123249156D01*
X135674302Y-123250465D01*
X135679125Y-123251686D01*
X135684545Y-123252811D01*
X135690522Y-123253833D01*
X135697019Y-123254744D01*
X135703997Y-123255536D01*
X135711416Y-123256201D01*
X135727426Y-123257121D01*
X135744737Y-123257441D01*
X135764671Y-123257999D01*
X135789441Y-123259591D01*
X135818097Y-123262092D01*
X135849689Y-123265379D01*
X135883265Y-123269327D01*
X135917874Y-123273812D01*
X135952566Y-123278711D01*
X135986390Y-123283900D01*
X136018033Y-123288933D01*
X136047713Y-123293408D01*
X136074788Y-123297263D01*
X136098617Y-123300436D01*
X136118561Y-123302865D01*
X136133978Y-123304487D01*
X136144227Y-123305242D01*
X136147213Y-123305274D01*
X136148668Y-123305066D01*
X136148286Y-123303714D01*
X136146525Y-123301025D01*
X136139132Y-123291920D01*
X136127026Y-123278308D01*
X136110744Y-123260749D01*
X136067805Y-123216017D01*
X136014612Y-123162191D01*
X135877029Y-123024608D01*
X135767668Y-123125150D01*
X135746332Y-123145996D01*
X135726299Y-123165912D01*
X135708044Y-123184464D01*
X135692041Y-123201217D01*
X135685033Y-123208784D01*
X135678767Y-123215739D01*
X135673302Y-123222026D01*
X135668697Y-123227593D01*
X135665012Y-123232385D01*
X135662307Y-123236347D01*
X135661339Y-123238000D01*
X135660640Y-123239426D01*
X135660214Y-123240617D01*
X135660071Y-123241566D01*
X134768469Y-123241566D01*
X134739072Y-123232903D01*
X134738741Y-123232794D01*
X135559359Y-123232794D01*
X135559529Y-123234511D01*
X135560102Y-123234729D01*
X135560826Y-123234724D01*
X135562709Y-123234066D01*
X135565145Y-123232577D01*
X135568100Y-123230294D01*
X135571542Y-123227257D01*
X135575435Y-123223504D01*
X135584444Y-123214005D01*
X135594859Y-123202110D01*
X135606410Y-123188126D01*
X135618830Y-123172365D01*
X135631849Y-123155136D01*
X135638700Y-123146053D01*
X135645984Y-123136711D01*
X135661587Y-123117543D01*
X135678140Y-123098209D01*
X135695128Y-123079289D01*
X135712033Y-123061360D01*
X135728339Y-123045003D01*
X135736105Y-123037594D01*
X135743528Y-123030795D01*
X135750543Y-123024679D01*
X135757085Y-123019316D01*
X135820585Y-122971691D01*
X135776487Y-122938177D01*
X135767926Y-122931673D01*
X135759593Y-122925499D01*
X135751714Y-122919822D01*
X135744517Y-122914806D01*
X135738229Y-122910617D01*
X135735498Y-122908884D01*
X135733079Y-122907420D01*
X135731001Y-122906245D01*
X135729293Y-122905380D01*
X135727982Y-122904846D01*
X135727485Y-122904710D01*
X135727098Y-122904664D01*
X135723395Y-122908562D01*
X135716570Y-122918981D01*
X135695459Y-122955706D01*
X135667567Y-123007479D01*
X135636699Y-123066941D01*
X135606658Y-123126734D01*
X135581247Y-123179499D01*
X135564269Y-123217878D01*
X135560132Y-123229372D01*
X135559359Y-123232794D01*
X134738741Y-123232794D01*
X134700680Y-123220234D01*
X134662682Y-123206346D01*
X134631716Y-123193941D01*
X134921001Y-123193941D01*
X134922211Y-123194663D01*
X134924477Y-123195495D01*
X134931943Y-123197442D01*
X134942922Y-123199677D01*
X134956940Y-123202099D01*
X134973522Y-123204604D01*
X134992191Y-123207088D01*
X135012472Y-123209448D01*
X135033890Y-123211580D01*
X135139723Y-123223928D01*
X135140541Y-123222164D01*
X135224390Y-123222164D01*
X135317876Y-123222164D01*
X135336986Y-123222325D01*
X135355662Y-123222797D01*
X135373470Y-123223559D01*
X135389975Y-123224589D01*
X135404744Y-123225867D01*
X135417343Y-123227373D01*
X135422693Y-123228204D01*
X135427337Y-123229085D01*
X135431222Y-123230012D01*
X135434293Y-123230983D01*
X135435848Y-123231443D01*
X135437540Y-123231498D01*
X135441334Y-123230394D01*
X135445687Y-123227661D01*
X135450609Y-123223293D01*
X135456109Y-123217282D01*
X135462198Y-123209620D01*
X135468887Y-123200299D01*
X135476185Y-123189311D01*
X135492653Y-123162305D01*
X135511683Y-123128540D01*
X135533360Y-123087953D01*
X135557765Y-123040483D01*
X135656543Y-122841163D01*
X135564821Y-122777664D01*
X135471334Y-122712399D01*
X135347862Y-122968163D01*
X135224390Y-123222164D01*
X135140541Y-123222164D01*
X135263196Y-122957580D01*
X135311840Y-122852960D01*
X135352052Y-122764875D01*
X135380026Y-122702588D01*
X135391959Y-122675358D01*
X135392177Y-122674615D01*
X135392173Y-122673711D01*
X135391518Y-122671444D01*
X135390037Y-122668599D01*
X135387770Y-122665216D01*
X135384759Y-122661336D01*
X135381045Y-122657002D01*
X135376670Y-122652255D01*
X135371675Y-122647136D01*
X135366101Y-122641686D01*
X135359989Y-122635946D01*
X135346319Y-122623764D01*
X135330995Y-122610921D01*
X135314348Y-122597747D01*
X135297381Y-122584890D01*
X135281138Y-122572942D01*
X135266010Y-122562152D01*
X135252392Y-122552768D01*
X135240675Y-122545037D01*
X135235652Y-122541869D01*
X135231253Y-122539208D01*
X135227525Y-122537084D01*
X135224518Y-122535529D01*
X135222280Y-122534573D01*
X135221466Y-122534329D01*
X135220862Y-122534247D01*
X135215363Y-122541559D01*
X135204071Y-122562231D01*
X135167560Y-122636084D01*
X135062994Y-122860787D01*
X134962397Y-123087143D01*
X134930847Y-123163063D01*
X134922780Y-123185079D01*
X134921001Y-123193941D01*
X134631716Y-123193941D01*
X134624854Y-123191192D01*
X134586974Y-123174726D01*
X134548821Y-123156900D01*
X134521462Y-123142827D01*
X134493744Y-123127169D01*
X134465845Y-123110073D01*
X134461956Y-123107511D01*
X134640543Y-123107511D01*
X134693460Y-123130441D01*
X134710027Y-123137345D01*
X134725957Y-123143502D01*
X134741189Y-123148909D01*
X134755664Y-123153565D01*
X134769323Y-123157466D01*
X134782105Y-123160610D01*
X134788150Y-123161897D01*
X134793953Y-123162994D01*
X134799507Y-123163901D01*
X134804805Y-123164617D01*
X134809840Y-123165141D01*
X134814603Y-123165474D01*
X134819089Y-123165615D01*
X134823288Y-123165564D01*
X134827194Y-123165320D01*
X134830800Y-123164884D01*
X134834097Y-123164254D01*
X134837079Y-123163431D01*
X134839737Y-123162415D01*
X134842066Y-123161204D01*
X134844056Y-123159798D01*
X134845702Y-123158198D01*
X134846994Y-123156403D01*
X134847927Y-123154413D01*
X134848492Y-123152226D01*
X134848682Y-123149844D01*
X134851724Y-123138089D01*
X134860450Y-123114346D01*
X134892558Y-123036514D01*
X134940211Y-122927594D01*
X134998612Y-122798830D01*
X135150307Y-122472511D01*
X135074459Y-122407247D01*
X135059939Y-122394737D01*
X135046768Y-122383645D01*
X135034888Y-122373943D01*
X135029415Y-122369604D01*
X135024244Y-122365603D01*
X135019367Y-122361934D01*
X135014778Y-122358596D01*
X135010468Y-122355583D01*
X135006433Y-122352894D01*
X135002663Y-122350523D01*
X134999152Y-122348468D01*
X134995894Y-122346725D01*
X134992880Y-122345290D01*
X134990103Y-122344161D01*
X134987558Y-122343332D01*
X134985236Y-122342802D01*
X134983130Y-122342565D01*
X134982156Y-122342556D01*
X134981234Y-122342620D01*
X134980362Y-122342755D01*
X134979539Y-122342961D01*
X134978766Y-122343238D01*
X134978040Y-122343586D01*
X134977362Y-122344004D01*
X134976729Y-122344491D01*
X134976142Y-122345047D01*
X134975599Y-122345673D01*
X134975099Y-122346366D01*
X134974642Y-122347127D01*
X134973852Y-122348851D01*
X134973222Y-122350840D01*
X134972744Y-122353092D01*
X134972411Y-122355603D01*
X134972217Y-122358368D01*
X134972154Y-122361386D01*
X134968209Y-122373278D01*
X134958125Y-122398648D01*
X134922104Y-122483535D01*
X134869215Y-122603480D01*
X134804585Y-122745914D01*
X134640543Y-123107511D01*
X134461956Y-123107511D01*
X134437944Y-123091691D01*
X134410218Y-123072172D01*
X134382846Y-123051666D01*
X134356007Y-123030323D01*
X134329878Y-123008292D01*
X134304638Y-122985724D01*
X134295433Y-122976983D01*
X134411237Y-122976983D01*
X134488848Y-123029900D01*
X134566459Y-123082816D01*
X134584098Y-123038719D01*
X134602977Y-122993547D01*
X134642527Y-122903561D01*
X134760487Y-122640080D01*
X134872274Y-122387844D01*
X134906587Y-122309186D01*
X134915961Y-122287075D01*
X134919237Y-122278483D01*
X134918871Y-122277126D01*
X134917797Y-122275065D01*
X134916051Y-122272344D01*
X134913670Y-122269002D01*
X134907145Y-122260624D01*
X134898512Y-122250261D01*
X134888059Y-122238244D01*
X134876077Y-122224905D01*
X134862855Y-122210573D01*
X134848682Y-122195580D01*
X134837712Y-122184060D01*
X134827901Y-122173945D01*
X134819164Y-122165194D01*
X134815173Y-122161318D01*
X134811420Y-122157767D01*
X134807893Y-122154536D01*
X134804584Y-122151621D01*
X134801482Y-122149015D01*
X134798576Y-122146715D01*
X134795856Y-122144714D01*
X134793312Y-122143008D01*
X134790933Y-122141591D01*
X134788709Y-122140459D01*
X134786630Y-122139605D01*
X134784686Y-122139025D01*
X134783760Y-122138837D01*
X134782865Y-122138714D01*
X134781998Y-122138658D01*
X134781158Y-122138667D01*
X134780344Y-122138741D01*
X134779554Y-122138878D01*
X134778788Y-122139079D01*
X134778043Y-122139342D01*
X134777320Y-122139668D01*
X134776615Y-122140055D01*
X134775260Y-122141010D01*
X134773966Y-122142203D01*
X134772724Y-122143628D01*
X134771524Y-122145281D01*
X134770354Y-122147156D01*
X134769205Y-122149248D01*
X134768067Y-122151552D01*
X134766928Y-122154062D01*
X134765779Y-122156774D01*
X134748278Y-122200403D01*
X134707791Y-122295460D01*
X134582334Y-122583636D01*
X134411237Y-122976983D01*
X134295433Y-122976983D01*
X134280465Y-122962768D01*
X134257537Y-122939575D01*
X134236033Y-122916294D01*
X134216132Y-122893075D01*
X134198010Y-122870068D01*
X134181847Y-122847422D01*
X134167821Y-122825289D01*
X134140035Y-122772758D01*
X134244715Y-122772758D01*
X134245009Y-122777635D01*
X134245667Y-122782100D01*
X134246668Y-122786223D01*
X134247988Y-122790073D01*
X134249606Y-122793718D01*
X134251498Y-122797229D01*
X134253642Y-122800674D01*
X134256015Y-122804122D01*
X134266231Y-122818679D01*
X134275728Y-122831944D01*
X134284533Y-122843949D01*
X134292671Y-122854723D01*
X134300168Y-122864299D01*
X134307051Y-122872707D01*
X134310269Y-122876482D01*
X134313344Y-122879978D01*
X134316278Y-122883197D01*
X134319074Y-122886143D01*
X134321736Y-122888820D01*
X134324267Y-122891233D01*
X134326669Y-122893385D01*
X134328948Y-122895279D01*
X134331104Y-122896921D01*
X134333143Y-122898313D01*
X134335066Y-122899459D01*
X134336878Y-122900364D01*
X134338582Y-122901031D01*
X134340179Y-122901465D01*
X134341675Y-122901668D01*
X134343073Y-122901646D01*
X134344374Y-122901401D01*
X134345583Y-122900938D01*
X134346703Y-122900260D01*
X134347737Y-122899372D01*
X134353900Y-122888919D01*
X134366616Y-122862716D01*
X134408812Y-122770167D01*
X134540001Y-122474275D01*
X134719918Y-122059761D01*
X134665237Y-121980386D01*
X134655315Y-121966205D01*
X134646052Y-121953424D01*
X134641666Y-121947558D01*
X134637444Y-121942039D01*
X134633386Y-121936868D01*
X134629491Y-121932044D01*
X134625759Y-121927566D01*
X134622189Y-121923434D01*
X134618781Y-121919647D01*
X134615535Y-121916204D01*
X134612450Y-121913104D01*
X134609527Y-121910348D01*
X134606765Y-121907934D01*
X134604163Y-121905861D01*
X134601721Y-121904130D01*
X134599439Y-121902739D01*
X134597317Y-121901688D01*
X134595353Y-121900976D01*
X134594432Y-121900747D01*
X134593549Y-121900603D01*
X134592707Y-121900543D01*
X134591904Y-121900567D01*
X134591140Y-121900676D01*
X134590416Y-121900869D01*
X134589732Y-121901146D01*
X134589087Y-121901507D01*
X134588481Y-121901952D01*
X134587915Y-121902481D01*
X134587388Y-121903093D01*
X134586901Y-121903790D01*
X134586043Y-121905434D01*
X134585342Y-121907412D01*
X134584797Y-121909723D01*
X134584409Y-121912366D01*
X134584176Y-121915342D01*
X134584098Y-121918649D01*
X134580495Y-121931000D01*
X134570153Y-121958916D01*
X134532064Y-122054249D01*
X134475454Y-122190261D01*
X134405946Y-122352566D01*
X134350307Y-122482371D01*
X134327617Y-122535819D01*
X134308105Y-122582368D01*
X134291590Y-122622571D01*
X134277891Y-122656982D01*
X134272042Y-122672188D01*
X134266828Y-122686152D01*
X134262229Y-122698945D01*
X134258220Y-122710636D01*
X134254780Y-122721293D01*
X134251885Y-122730985D01*
X134249514Y-122739782D01*
X134247643Y-122747753D01*
X134246251Y-122754967D01*
X134245314Y-122761493D01*
X134244809Y-122767400D01*
X134244715Y-122772758D01*
X134140035Y-122772758D01*
X134136214Y-122765534D01*
X134109523Y-122702705D01*
X134087740Y-122636827D01*
X134070862Y-122567926D01*
X134058882Y-122496028D01*
X134057043Y-122476595D01*
X134143030Y-122476595D01*
X134143181Y-122487959D01*
X134143788Y-122499217D01*
X134144828Y-122510457D01*
X134146282Y-122521767D01*
X134150347Y-122544944D01*
X134155818Y-122569449D01*
X134162529Y-122595983D01*
X134181932Y-122664775D01*
X134367140Y-122230858D01*
X134550584Y-121795177D01*
X134517071Y-121684053D01*
X134512292Y-121668357D01*
X134507862Y-121654314D01*
X134503757Y-121641885D01*
X134501820Y-121636261D01*
X134499955Y-121631026D01*
X134498160Y-121626172D01*
X134496432Y-121621696D01*
X134494768Y-121617592D01*
X134493165Y-121613855D01*
X134491620Y-121610480D01*
X134490130Y-121607461D01*
X134488693Y-121604794D01*
X134487305Y-121602473D01*
X134485963Y-121600493D01*
X134484666Y-121598848D01*
X134483408Y-121597535D01*
X134482794Y-121597001D01*
X134482189Y-121596547D01*
X134481593Y-121596174D01*
X134481004Y-121595880D01*
X134480424Y-121595664D01*
X134479852Y-121595527D01*
X134479287Y-121595468D01*
X134478728Y-121595485D01*
X134478177Y-121595579D01*
X134477631Y-121595748D01*
X134477091Y-121595992D01*
X134476557Y-121596310D01*
X134476028Y-121596702D01*
X134475503Y-121597167D01*
X134474467Y-121598313D01*
X134473445Y-121599744D01*
X134472435Y-121601454D01*
X134471434Y-121603437D01*
X134470438Y-121605689D01*
X134469446Y-121608205D01*
X134413442Y-121744686D01*
X134296585Y-122022719D01*
X134241628Y-122154208D01*
X134219318Y-122208991D01*
X134200232Y-122257399D01*
X134184205Y-122300133D01*
X134171073Y-122337894D01*
X134160669Y-122371380D01*
X134156438Y-122386740D01*
X134152828Y-122401294D01*
X134149817Y-122415129D01*
X134147384Y-122428334D01*
X134145510Y-122440995D01*
X134144173Y-122453201D01*
X134143354Y-122465039D01*
X134143030Y-122476595D01*
X134057043Y-122476595D01*
X134051797Y-122421158D01*
X134049600Y-122343343D01*
X134052286Y-122262608D01*
X134059850Y-122178979D01*
X134061540Y-122167227D01*
X134131985Y-122167227D01*
X134132802Y-122172218D01*
X134134609Y-122174583D01*
X134137448Y-122174185D01*
X134141362Y-122170886D01*
X134147856Y-122159672D01*
X134160241Y-122133761D01*
X134199791Y-122044547D01*
X134254224Y-121916638D01*
X134317751Y-121763427D01*
X134363202Y-121653198D01*
X134399579Y-121562895D01*
X134414629Y-121524415D01*
X134427729Y-121489956D01*
X134438984Y-121459196D01*
X134448499Y-121431816D01*
X134456382Y-121407496D01*
X134462738Y-121385914D01*
X134467673Y-121366751D01*
X134471292Y-121349685D01*
X134473702Y-121334398D01*
X134475009Y-121320567D01*
X134475319Y-121307874D01*
X134474737Y-121295997D01*
X134469446Y-121220150D01*
X134439459Y-121290705D01*
X134422785Y-121330503D01*
X134398670Y-121386837D01*
X134340682Y-121520011D01*
X134320770Y-121566543D01*
X134300285Y-121617431D01*
X134258937Y-121727874D01*
X134219325Y-121842534D01*
X134184137Y-121952605D01*
X134156059Y-122049281D01*
X134145527Y-122089844D01*
X134137779Y-122123757D01*
X134133153Y-122149918D01*
X134131985Y-122167227D01*
X134061540Y-122167227D01*
X134072288Y-122092482D01*
X134089594Y-122003143D01*
X134111762Y-121910988D01*
X134138788Y-121816042D01*
X134170666Y-121718331D01*
X134207392Y-121617882D01*
X134248959Y-121514719D01*
X134287910Y-121427854D01*
X134332689Y-121333755D01*
X134380362Y-121238085D01*
X134427994Y-121146507D01*
X134472650Y-121064686D01*
X134511393Y-120998286D01*
X134527631Y-120972638D01*
X134541290Y-120952969D01*
X134552003Y-120939987D01*
X134556140Y-120936225D01*
X134559404Y-120934400D01*
X134561158Y-120934131D01*
X134563100Y-120933986D01*
X134565214Y-120933966D01*
X134567479Y-120934069D01*
X134569879Y-120934296D01*
X134572395Y-120934648D01*
X134575010Y-120935123D01*
X134577704Y-120935723D01*
X134580461Y-120936446D01*
X134583261Y-120937293D01*
X134586087Y-120938265D01*
X134588921Y-120939361D01*
X134591745Y-120940580D01*
X134594540Y-120941924D01*
X134597289Y-120943391D01*
X134599973Y-120944983D01*
X134603363Y-120947438D01*
X134606254Y-120950240D01*
X134608643Y-120953486D01*
X134610529Y-120957275D01*
X134611908Y-120961705D01*
X134612779Y-120966873D01*
X134613137Y-120972879D01*
X134612982Y-120979820D01*
X134612310Y-120987794D01*
X134611118Y-120996900D01*
X134609405Y-121007237D01*
X134607167Y-121018901D01*
X134601107Y-121046606D01*
X134592918Y-121080802D01*
X134585207Y-121113948D01*
X134578607Y-121149022D01*
X134573113Y-121185718D01*
X134568719Y-121223733D01*
X134565422Y-121262759D01*
X134563214Y-121302494D01*
X134562092Y-121342632D01*
X134562050Y-121382868D01*
X134563082Y-121422898D01*
X134565185Y-121462416D01*
X134568352Y-121501117D01*
X134572578Y-121538697D01*
X134577858Y-121574851D01*
X134584188Y-121609273D01*
X134591561Y-121641660D01*
X134599973Y-121671705D01*
X134619587Y-121726210D01*
X134644105Y-121781318D01*
X134673635Y-121837133D01*
X134708287Y-121893762D01*
X134748168Y-121951311D01*
X134793388Y-122009886D01*
X134844054Y-122069593D01*
X134900275Y-122130537D01*
X134962161Y-122192825D01*
X135029818Y-122256562D01*
X135103356Y-122321855D01*
X135182883Y-122388809D01*
X135268509Y-122457530D01*
X135360340Y-122528125D01*
X135458487Y-122600699D01*
X135563057Y-122675358D01*
X135596877Y-122698712D01*
X135631545Y-122723286D01*
X135666089Y-122748315D01*
X135699538Y-122773033D01*
X135730919Y-122796677D01*
X135759262Y-122818481D01*
X135783595Y-122837680D01*
X135802946Y-122853511D01*
X135884084Y-122920538D01*
X135991682Y-122876441D01*
X136019401Y-122865630D01*
X136019685Y-122865528D01*
X136838786Y-122865528D01*
X136838855Y-122869103D01*
X136839124Y-122872490D01*
X136839602Y-122875710D01*
X136840296Y-122878784D01*
X136841215Y-122881733D01*
X136842366Y-122884579D01*
X136843758Y-122887342D01*
X136845398Y-122890045D01*
X136847295Y-122892709D01*
X136849458Y-122895355D01*
X136851893Y-122898003D01*
X136854609Y-122900677D01*
X136857614Y-122903396D01*
X136860916Y-122906182D01*
X136864523Y-122909057D01*
X136872686Y-122915157D01*
X136882166Y-122921867D01*
X136893029Y-122929358D01*
X136899266Y-122933902D01*
X136905387Y-122938263D01*
X136911357Y-122942423D01*
X136917145Y-122946363D01*
X136922715Y-122950065D01*
X136928035Y-122953512D01*
X136933070Y-122956684D01*
X136937788Y-122959565D01*
X136942154Y-122962135D01*
X136946135Y-122964377D01*
X136949698Y-122966274D01*
X136952808Y-122967805D01*
X136955433Y-122968955D01*
X136957538Y-122969703D01*
X136958386Y-122969922D01*
X136959091Y-122970034D01*
X136959649Y-122970036D01*
X136960057Y-122969927D01*
X136960184Y-122968676D01*
X136959915Y-122966286D01*
X136958265Y-122958324D01*
X136955251Y-122946518D01*
X136951017Y-122931342D01*
X136939469Y-122892785D01*
X136924779Y-122846455D01*
X136916873Y-122823146D01*
X136909152Y-122801200D01*
X136901804Y-122781157D01*
X136895013Y-122763552D01*
X136891886Y-122755833D01*
X136888967Y-122748925D01*
X136886281Y-122742895D01*
X136883851Y-122737811D01*
X136881700Y-122733739D01*
X136879852Y-122730748D01*
X136879048Y-122729679D01*
X136878328Y-122728904D01*
X136877696Y-122728433D01*
X136877154Y-122728275D01*
X136876638Y-122728377D01*
X136876081Y-122728682D01*
X136874856Y-122729877D01*
X136873491Y-122731821D01*
X136872000Y-122734476D01*
X136870395Y-122737803D01*
X136868689Y-122741762D01*
X136865027Y-122751426D01*
X136861117Y-122763156D01*
X136857062Y-122776644D01*
X136852966Y-122791578D01*
X136848932Y-122807650D01*
X136843230Y-122833426D01*
X136841161Y-122844074D01*
X136839699Y-122853456D01*
X136839216Y-122857725D01*
X136838909Y-122861742D01*
X136838786Y-122865528D01*
X136019685Y-122865528D01*
X136046993Y-122855685D01*
X136074456Y-122846602D01*
X136101787Y-122838380D01*
X136128984Y-122831016D01*
X136156044Y-122824506D01*
X136182964Y-122818850D01*
X136209742Y-122814044D01*
X136236376Y-122810085D01*
X136262862Y-122806971D01*
X136289199Y-122804699D01*
X136315383Y-122803267D01*
X136341412Y-122802673D01*
X136367283Y-122802913D01*
X136392994Y-122803984D01*
X136418543Y-122805886D01*
X136533196Y-122814705D01*
X136462640Y-122781191D01*
X136405184Y-122753419D01*
X136635296Y-122753419D01*
X136635389Y-122755630D01*
X136635612Y-122757792D01*
X136635969Y-122759910D01*
X136636464Y-122761990D01*
X136637102Y-122764035D01*
X136637885Y-122766050D01*
X136638819Y-122768041D01*
X136639906Y-122770012D01*
X136641151Y-122771969D01*
X136642557Y-122773915D01*
X136644129Y-122775857D01*
X136645869Y-122777798D01*
X136649874Y-122781698D01*
X136654603Y-122785655D01*
X136660086Y-122789708D01*
X136666354Y-122793895D01*
X136673439Y-122798255D01*
X136681371Y-122802827D01*
X136690182Y-122807650D01*
X136696439Y-122811183D01*
X136702615Y-122814502D01*
X136708673Y-122817599D01*
X136714573Y-122820465D01*
X136720277Y-122823094D01*
X136725746Y-122825478D01*
X136730940Y-122827608D01*
X136735822Y-122829478D01*
X136740353Y-122831078D01*
X136744494Y-122832403D01*
X136748205Y-122833443D01*
X136751449Y-122834191D01*
X136754187Y-122834639D01*
X136756379Y-122834780D01*
X136757259Y-122834732D01*
X136757988Y-122834605D01*
X136758561Y-122834397D01*
X136758974Y-122834108D01*
X136760848Y-122830053D01*
X136763714Y-122822174D01*
X136767407Y-122810947D01*
X136771762Y-122796846D01*
X136781794Y-122761926D01*
X136787140Y-122742058D01*
X136792487Y-122721219D01*
X136820709Y-122615386D01*
X136771321Y-122518372D01*
X136753265Y-122483128D01*
X136745853Y-122469499D01*
X136739323Y-122458675D01*
X136733526Y-122450766D01*
X136730857Y-122447938D01*
X136728316Y-122445880D01*
X136725884Y-122444605D01*
X136723545Y-122444126D01*
X136721278Y-122444457D01*
X136719065Y-122445611D01*
X136716889Y-122447603D01*
X136714731Y-122450446D01*
X136712572Y-122454153D01*
X136710394Y-122458737D01*
X136705907Y-122470594D01*
X136701123Y-122486126D01*
X136695895Y-122505440D01*
X136690075Y-122528645D01*
X136676071Y-122587163D01*
X136653360Y-122678886D01*
X136644073Y-122715156D01*
X136640307Y-122728867D01*
X136637265Y-122738858D01*
X136636154Y-122743991D01*
X136635488Y-122748831D01*
X136635331Y-122751154D01*
X136635296Y-122753419D01*
X136405184Y-122753419D01*
X136363201Y-122733125D01*
X136222751Y-122666539D01*
X136203832Y-122657701D01*
X136184838Y-122648428D01*
X136165859Y-122638777D01*
X136151115Y-122630989D01*
X136390851Y-122630989D01*
X136390987Y-122632738D01*
X136391302Y-122634511D01*
X136391796Y-122636306D01*
X136392470Y-122638123D01*
X136394363Y-122641829D01*
X136396983Y-122645630D01*
X136400338Y-122649530D01*
X136404432Y-122653530D01*
X136409270Y-122657633D01*
X136414857Y-122661843D01*
X136421198Y-122666161D01*
X136428299Y-122670590D01*
X136436166Y-122675133D01*
X136444802Y-122679792D01*
X136454213Y-122684570D01*
X136464404Y-122689469D01*
X136481213Y-122697713D01*
X136497008Y-122705151D01*
X136511440Y-122711638D01*
X136518034Y-122714480D01*
X136524156Y-122717030D01*
X136529760Y-122719270D01*
X136534804Y-122721181D01*
X136539244Y-122722747D01*
X136543035Y-122723948D01*
X136546133Y-122724766D01*
X136548495Y-122725185D01*
X136549386Y-122725238D01*
X136550077Y-122725184D01*
X136550562Y-122725021D01*
X136550835Y-122724747D01*
X136553115Y-122719507D01*
X136557174Y-122706970D01*
X136569796Y-122663231D01*
X136587049Y-122599979D01*
X136607279Y-122523663D01*
X136660195Y-122329636D01*
X136603751Y-122246733D01*
X136580628Y-122213522D01*
X136560315Y-122184776D01*
X136551885Y-122173060D01*
X136544964Y-122163637D01*
X136539820Y-122156902D01*
X136537999Y-122154665D01*
X136536723Y-122153247D01*
X136536202Y-122152853D01*
X136535631Y-122152662D01*
X136535013Y-122152668D01*
X136534350Y-122152868D01*
X136532898Y-122153828D01*
X136531294Y-122155507D01*
X136529555Y-122157868D01*
X136527701Y-122160874D01*
X136525748Y-122164491D01*
X136523715Y-122168681D01*
X136521620Y-122173408D01*
X136519481Y-122178637D01*
X136515143Y-122190454D01*
X136510847Y-122203841D01*
X136506737Y-122218511D01*
X136474684Y-122337959D01*
X136439489Y-122465014D01*
X136409255Y-122570241D01*
X136398530Y-122605471D01*
X136392084Y-122624205D01*
X136391511Y-122625869D01*
X136391114Y-122627554D01*
X136390894Y-122629261D01*
X136390851Y-122630989D01*
X136151115Y-122630989D01*
X136146987Y-122628808D01*
X136109921Y-122608154D01*
X136074364Y-122586943D01*
X136041040Y-122565649D01*
X136025441Y-122555119D01*
X136010671Y-122544747D01*
X135996821Y-122534593D01*
X135983982Y-122524714D01*
X135972243Y-122515172D01*
X135966805Y-122510455D01*
X136140396Y-122510455D01*
X136140548Y-122512459D01*
X136140888Y-122514473D01*
X136141416Y-122516498D01*
X136142136Y-122518537D01*
X136144160Y-122522664D01*
X136146976Y-122526867D01*
X136150604Y-122531164D01*
X136155062Y-122535570D01*
X136160367Y-122540099D01*
X136166538Y-122544768D01*
X136173592Y-122549592D01*
X136181548Y-122554587D01*
X136190424Y-122559767D01*
X136200238Y-122565149D01*
X136211007Y-122570748D01*
X136222751Y-122576580D01*
X136312709Y-122622441D01*
X136323293Y-122574816D01*
X136400904Y-122292594D01*
X136466168Y-122059761D01*
X136406196Y-121983914D01*
X136381749Y-121953266D01*
X136360114Y-121926587D01*
X136351022Y-121915563D01*
X136343440Y-121906523D01*
X136337635Y-121899798D01*
X136333876Y-121895719D01*
X136330980Y-121898367D01*
X136325759Y-121909131D01*
X136309292Y-121952081D01*
X136286375Y-122018719D01*
X136258911Y-122103197D01*
X136197946Y-122302268D01*
X136168250Y-122405163D01*
X136141612Y-122502497D01*
X136140644Y-122506468D01*
X136140429Y-122508459D01*
X136140396Y-122510455D01*
X135966805Y-122510455D01*
X135961696Y-122506025D01*
X135910173Y-122456149D01*
X135860155Y-122400543D01*
X135811697Y-122339345D01*
X135806113Y-122331400D01*
X135908779Y-122331400D01*
X135982862Y-122407247D01*
X136056946Y-122481330D01*
X136152196Y-122169122D01*
X136188989Y-122045595D01*
X136220326Y-121941580D01*
X136252737Y-121835747D01*
X136253141Y-121834823D01*
X136253363Y-121833709D01*
X136253407Y-121832412D01*
X136253278Y-121830937D01*
X136252516Y-121827484D01*
X136251111Y-121823400D01*
X136249096Y-121818737D01*
X136246505Y-121813547D01*
X136243371Y-121807881D01*
X136239729Y-121801792D01*
X136235610Y-121795331D01*
X136231050Y-121788549D01*
X136226082Y-121781499D01*
X136220739Y-121774231D01*
X136215055Y-121766798D01*
X136209064Y-121759252D01*
X136202799Y-121751643D01*
X136196293Y-121744025D01*
X136189996Y-121736507D01*
X136183704Y-121729193D01*
X136177465Y-121722123D01*
X136171323Y-121715334D01*
X136165326Y-121708865D01*
X136159520Y-121702756D01*
X136153952Y-121697044D01*
X136148668Y-121691769D01*
X136143715Y-121686970D01*
X136139139Y-121682685D01*
X136134986Y-121678952D01*
X136131304Y-121675812D01*
X136128139Y-121673302D01*
X136125537Y-121671461D01*
X136123545Y-121670328D01*
X136122792Y-121670039D01*
X136122209Y-121669941D01*
X136120603Y-121671019D01*
X136118451Y-121674182D01*
X136112646Y-121686340D01*
X136105063Y-121705567D01*
X136095972Y-121731016D01*
X136085640Y-121761839D01*
X136074336Y-121797189D01*
X136049890Y-121878080D01*
X135994989Y-122059540D01*
X135949348Y-122207927D01*
X135908779Y-122331400D01*
X135806113Y-122331400D01*
X135764857Y-122272695D01*
X135719691Y-122200733D01*
X135676256Y-122123598D01*
X135638535Y-122049178D01*
X135728862Y-122049178D01*
X135783543Y-122151483D01*
X135795242Y-122172002D01*
X135806363Y-122190950D01*
X135816657Y-122207914D01*
X135821417Y-122215522D01*
X135825876Y-122222480D01*
X135830005Y-122228734D01*
X135833772Y-122234234D01*
X135837147Y-122238928D01*
X135840098Y-122242764D01*
X135842594Y-122245691D01*
X135843661Y-122246797D01*
X135844604Y-122247656D01*
X135845417Y-122248262D01*
X135846097Y-122248609D01*
X135846640Y-122248689D01*
X135847043Y-122248497D01*
X135879013Y-122148176D01*
X135911287Y-122043362D01*
X135949348Y-121916886D01*
X136048126Y-121592330D01*
X135991682Y-121534122D01*
X135979979Y-121522505D01*
X135968834Y-121511632D01*
X135958474Y-121501752D01*
X135949128Y-121493112D01*
X135944906Y-121489334D01*
X135941022Y-121485959D01*
X135937505Y-121483019D01*
X135934383Y-121480544D01*
X135931685Y-121478565D01*
X135929439Y-121477112D01*
X135928495Y-121476594D01*
X135927674Y-121476218D01*
X135926981Y-121475990D01*
X135926418Y-121475914D01*
X135924648Y-121477708D01*
X135922018Y-121482335D01*
X135914374Y-121499506D01*
X135903877Y-121526267D01*
X135890920Y-121561462D01*
X135859197Y-121652523D01*
X135822348Y-121763427D01*
X135728862Y-122049178D01*
X135638535Y-122049178D01*
X135634609Y-122041430D01*
X135594807Y-121954368D01*
X135556906Y-121862552D01*
X135520965Y-121766122D01*
X135509977Y-121733441D01*
X135596571Y-121733441D01*
X135631849Y-121833983D01*
X135639679Y-121854002D01*
X135647200Y-121872761D01*
X135654266Y-121889825D01*
X135660732Y-121904759D01*
X135663695Y-121911292D01*
X135666454Y-121917130D01*
X135668991Y-121922219D01*
X135671288Y-121926504D01*
X135673326Y-121929932D01*
X135675088Y-121932447D01*
X135675859Y-121933346D01*
X135676555Y-121933996D01*
X135677172Y-121934391D01*
X135677709Y-121934525D01*
X135679108Y-121933163D01*
X135681289Y-121929168D01*
X135687824Y-121913827D01*
X135696964Y-121889597D01*
X135708357Y-121857575D01*
X135736497Y-121774534D01*
X135769432Y-121673469D01*
X135852335Y-121414177D01*
X135806473Y-121366552D01*
X135796901Y-121356857D01*
X135792375Y-121352426D01*
X135788021Y-121348273D01*
X135783838Y-121344396D01*
X135779824Y-121340794D01*
X135775978Y-121337468D01*
X135772298Y-121334417D01*
X135768784Y-121331639D01*
X135765434Y-121329134D01*
X135762246Y-121326903D01*
X135759220Y-121324943D01*
X135756355Y-121323254D01*
X135753648Y-121321836D01*
X135751099Y-121320688D01*
X135748706Y-121319809D01*
X135746468Y-121319199D01*
X135744384Y-121318858D01*
X135742453Y-121318783D01*
X135740672Y-121318976D01*
X135739041Y-121319434D01*
X135738282Y-121319763D01*
X135737559Y-121320158D01*
X135736874Y-121320620D01*
X135736225Y-121321147D01*
X135735036Y-121322400D01*
X135733992Y-121323917D01*
X135733091Y-121325696D01*
X135732333Y-121327738D01*
X135731715Y-121330041D01*
X135731237Y-121332606D01*
X135730897Y-121335430D01*
X135730694Y-121338515D01*
X135730626Y-121341858D01*
X135730280Y-121345416D01*
X135729265Y-121350729D01*
X135725362Y-121366194D01*
X135719185Y-121387406D01*
X135711003Y-121413516D01*
X135689698Y-121477044D01*
X135663598Y-121549997D01*
X135596571Y-121733441D01*
X135509977Y-121733441D01*
X135487038Y-121665216D01*
X135455184Y-121559974D01*
X135425459Y-121450536D01*
X135418863Y-121423355D01*
X135509914Y-121423355D01*
X135510054Y-121433315D01*
X135510767Y-121443580D01*
X135512042Y-121454333D01*
X135513864Y-121465759D01*
X135516221Y-121478039D01*
X135519099Y-121491358D01*
X135522487Y-121505900D01*
X135524820Y-121515379D01*
X135527179Y-121524603D01*
X135529549Y-121533522D01*
X135531913Y-121542087D01*
X135534257Y-121550249D01*
X135536564Y-121557958D01*
X135538820Y-121565167D01*
X135541008Y-121571825D01*
X135543114Y-121577884D01*
X135545122Y-121583294D01*
X135547015Y-121588006D01*
X135548780Y-121591972D01*
X135550400Y-121595142D01*
X135551860Y-121597467D01*
X135552525Y-121598297D01*
X135553144Y-121598898D01*
X135553716Y-121599263D01*
X135554237Y-121599386D01*
X135555513Y-121598200D01*
X135557331Y-121595358D01*
X135562450Y-121585027D01*
X135569306Y-121569031D01*
X135577609Y-121548012D01*
X135587069Y-121522612D01*
X135597397Y-121493470D01*
X135608305Y-121461227D01*
X135619501Y-121426525D01*
X135677709Y-121255427D01*
X135633612Y-121213094D01*
X135627592Y-121207140D01*
X135622082Y-121201846D01*
X135617051Y-121197207D01*
X135614708Y-121195133D01*
X135612473Y-121193223D01*
X135610345Y-121191475D01*
X135608319Y-121189889D01*
X135606392Y-121188466D01*
X135604560Y-121187204D01*
X135602820Y-121186104D01*
X135601168Y-121185165D01*
X135599600Y-121184387D01*
X135598114Y-121183769D01*
X135596705Y-121183312D01*
X135595370Y-121183014D01*
X135594106Y-121182876D01*
X135592908Y-121182898D01*
X135591774Y-121183078D01*
X135590700Y-121183417D01*
X135589681Y-121183914D01*
X135588716Y-121184569D01*
X135587799Y-121185381D01*
X135586928Y-121186351D01*
X135586099Y-121187478D01*
X135585309Y-121188761D01*
X135584553Y-121190201D01*
X135583828Y-121191797D01*
X135583132Y-121193548D01*
X135582459Y-121195455D01*
X135565482Y-121241757D01*
X135551950Y-121277807D01*
X135536598Y-121317164D01*
X135526081Y-121346760D01*
X135521843Y-121359723D01*
X135518270Y-121371706D01*
X135515349Y-121382894D01*
X135513065Y-121393469D01*
X135511407Y-121403615D01*
X135510361Y-121413516D01*
X135509914Y-121423355D01*
X135418863Y-121423355D01*
X135397920Y-121337042D01*
X135372623Y-121219630D01*
X135349626Y-121098441D01*
X135346505Y-121079933D01*
X135343756Y-121062743D01*
X135343442Y-121060642D01*
X135427051Y-121060642D01*
X135427443Y-121069928D01*
X135428615Y-121082015D01*
X135432908Y-121112483D01*
X135439144Y-121147830D01*
X135446537Y-121183838D01*
X135454302Y-121216291D01*
X135458079Y-121229866D01*
X135461654Y-121240972D01*
X135464929Y-121249080D01*
X135466424Y-121251845D01*
X135467807Y-121253663D01*
X135468328Y-121254222D01*
X135468900Y-121254579D01*
X135469519Y-121254738D01*
X135470184Y-121254704D01*
X135470893Y-121254481D01*
X135471644Y-121254074D01*
X135473264Y-121252726D01*
X135475029Y-121250696D01*
X135476922Y-121248020D01*
X135478930Y-121244735D01*
X135481036Y-121240875D01*
X135483224Y-121236479D01*
X135485480Y-121231580D01*
X135490131Y-121220425D01*
X135494864Y-121207699D01*
X135499557Y-121193691D01*
X135502943Y-121181806D01*
X135505813Y-121171202D01*
X135508145Y-121161755D01*
X135509104Y-121157427D01*
X135509920Y-121153342D01*
X135510591Y-121149485D01*
X135511115Y-121145839D01*
X135511489Y-121142390D01*
X135511711Y-121139121D01*
X135511778Y-121136018D01*
X135511687Y-121133065D01*
X135511436Y-121130246D01*
X135511022Y-121127546D01*
X135510443Y-121124949D01*
X135509696Y-121122440D01*
X135508778Y-121120003D01*
X135507687Y-121117624D01*
X135506421Y-121115285D01*
X135504976Y-121112973D01*
X135503350Y-121110671D01*
X135501541Y-121108363D01*
X135499546Y-121106035D01*
X135497362Y-121103671D01*
X135494987Y-121101255D01*
X135492418Y-121098772D01*
X135486689Y-121093542D01*
X135480154Y-121087858D01*
X135475859Y-121084284D01*
X135471589Y-121080844D01*
X135467372Y-121077548D01*
X135463232Y-121074408D01*
X135459195Y-121071433D01*
X135455287Y-121068634D01*
X135451535Y-121066021D01*
X135447963Y-121063604D01*
X135441465Y-121059401D01*
X135438591Y-121057636D01*
X135436002Y-121056108D01*
X135433722Y-121054828D01*
X135431778Y-121053807D01*
X135430196Y-121053054D01*
X135429001Y-121052580D01*
X135428141Y-121053117D01*
X135427538Y-121054683D01*
X135427051Y-121060642D01*
X135343442Y-121060642D01*
X135341379Y-121046824D01*
X135339374Y-121032130D01*
X135337741Y-121018614D01*
X135336480Y-121006230D01*
X135335591Y-120994931D01*
X135335074Y-120984671D01*
X135334929Y-120975402D01*
X135335157Y-120967080D01*
X135335756Y-120959657D01*
X135336728Y-120953086D01*
X135337353Y-120950106D01*
X135338071Y-120947321D01*
X135338883Y-120944727D01*
X135339787Y-120942317D01*
X135340784Y-120940084D01*
X135341875Y-120938025D01*
X135343058Y-120936132D01*
X135344335Y-120934400D01*
X135346377Y-120932107D01*
X135348520Y-120929869D01*
X135350741Y-120927698D01*
X135353016Y-120925608D01*
X135355322Y-120923610D01*
X135357636Y-120921718D01*
X135359934Y-120919945D01*
X135362194Y-120918304D01*
X135364391Y-120916808D01*
X135366504Y-120915469D01*
X135368507Y-120914301D01*
X135370379Y-120913316D01*
X135372096Y-120912527D01*
X135373635Y-120911948D01*
X135374972Y-120911591D01*
X135375558Y-120911500D01*
X135376085Y-120911469D01*
X135384248Y-120915152D01*
G37*
G36*
X139977158Y-123738571D02*
G01*
X139992999Y-123741050D01*
X140009359Y-123744863D01*
X140026255Y-123750021D01*
X140043707Y-123756534D01*
X140061732Y-123764411D01*
X140080349Y-123773662D01*
X140119433Y-123796325D01*
X140161106Y-123824600D01*
X140205516Y-123858564D01*
X140252809Y-123898296D01*
X140303133Y-123943872D01*
X140356635Y-123995370D01*
X140413462Y-124052867D01*
X140720379Y-124375659D01*
X141011420Y-124322742D01*
X141063777Y-124313982D01*
X141120964Y-124307477D01*
X141181980Y-124303127D01*
X141245825Y-124300832D01*
X141311499Y-124300489D01*
X141378002Y-124302000D01*
X141444336Y-124305262D01*
X141509498Y-124310175D01*
X141572491Y-124316638D01*
X141632313Y-124324551D01*
X141687964Y-124333813D01*
X141738446Y-124344323D01*
X141782757Y-124355980D01*
X141819898Y-124368683D01*
X141848869Y-124382332D01*
X141859978Y-124389480D01*
X141868670Y-124396826D01*
X141870619Y-124397837D01*
X141873474Y-124397910D01*
X141881796Y-124395327D01*
X141893436Y-124389257D01*
X141908192Y-124379876D01*
X141925863Y-124367364D01*
X141946247Y-124351898D01*
X141994347Y-124312821D01*
X142050881Y-124264069D01*
X142114237Y-124207070D01*
X142182801Y-124143250D01*
X142254962Y-124074034D01*
X142328264Y-124004873D01*
X142362666Y-123973468D01*
X142395635Y-123944161D01*
X142427221Y-123916939D01*
X142457473Y-123891789D01*
X142486439Y-123868698D01*
X142514171Y-123847650D01*
X142540716Y-123828633D01*
X142566125Y-123811634D01*
X142590447Y-123796639D01*
X142613731Y-123783633D01*
X142636026Y-123772605D01*
X142657383Y-123763539D01*
X142677850Y-123756423D01*
X142697477Y-123751243D01*
X142716314Y-123747985D01*
X142734409Y-123746636D01*
X142751813Y-123747182D01*
X142768574Y-123749610D01*
X142784742Y-123753905D01*
X142800367Y-123760056D01*
X142815497Y-123768047D01*
X142830183Y-123777866D01*
X142844473Y-123789499D01*
X142858417Y-123802932D01*
X142872065Y-123818152D01*
X142885466Y-123835144D01*
X142898669Y-123853897D01*
X142911724Y-123874395D01*
X142924680Y-123896626D01*
X142937587Y-123920576D01*
X142953152Y-123951943D01*
X142967849Y-123982009D01*
X142981305Y-124009966D01*
X142993149Y-124035008D01*
X143003009Y-124056330D01*
X143010513Y-124073125D01*
X143015287Y-124084587D01*
X143016535Y-124088066D01*
X143016962Y-124089909D01*
X143018913Y-124090230D01*
X143024631Y-124089248D01*
X143046562Y-124083625D01*
X143126764Y-124059482D01*
X143244669Y-124021448D01*
X143387378Y-123973493D01*
X143480311Y-123943769D01*
X143573480Y-123917092D01*
X143666747Y-123893435D01*
X143759976Y-123872775D01*
X143853031Y-123855088D01*
X143945775Y-123840349D01*
X144129783Y-123819621D01*
X144310907Y-123810395D01*
X144488055Y-123812479D01*
X144574797Y-123817701D01*
X144660134Y-123825678D01*
X144743931Y-123836386D01*
X144826050Y-123849800D01*
X144906356Y-123865895D01*
X144984711Y-123884649D01*
X145060979Y-123906036D01*
X145135023Y-123930033D01*
X145206708Y-123956614D01*
X145275895Y-123985757D01*
X145342448Y-124017436D01*
X145406232Y-124051627D01*
X145467108Y-124088307D01*
X145524941Y-124127451D01*
X145579595Y-124169034D01*
X145630931Y-124213033D01*
X145678814Y-124259424D01*
X145723108Y-124308181D01*
X145763674Y-124359282D01*
X145800378Y-124412701D01*
X145858752Y-124507124D01*
X145885768Y-124551669D01*
X145910180Y-124592618D01*
X145931119Y-124628605D01*
X145947718Y-124658267D01*
X145959107Y-124680240D01*
X145962577Y-124687917D01*
X145964419Y-124693159D01*
X145965965Y-124695547D01*
X145968600Y-124697749D01*
X145977029Y-124701603D01*
X145989488Y-124704728D01*
X146005761Y-124707132D01*
X146025630Y-124708824D01*
X146048880Y-124709809D01*
X146104649Y-124709696D01*
X146171332Y-124706853D01*
X146247193Y-124701345D01*
X146330495Y-124693231D01*
X146419503Y-124682576D01*
X146510128Y-124670919D01*
X146595575Y-124661750D01*
X146675999Y-124655077D01*
X146751555Y-124650908D01*
X146822398Y-124649251D01*
X146888683Y-124650113D01*
X146950566Y-124653501D01*
X147008201Y-124659425D01*
X147061743Y-124667891D01*
X147111347Y-124678907D01*
X147134721Y-124685374D01*
X147157168Y-124692481D01*
X147178709Y-124700230D01*
X147199362Y-124708621D01*
X147219147Y-124717655D01*
X147238083Y-124727334D01*
X147256190Y-124737658D01*
X147273487Y-124748629D01*
X147289993Y-124760246D01*
X147305728Y-124772512D01*
X147320711Y-124785427D01*
X147334962Y-124798993D01*
X147355075Y-124820563D01*
X147372776Y-124842569D01*
X147388101Y-124864951D01*
X147401087Y-124887649D01*
X147411770Y-124910602D01*
X147420189Y-124933752D01*
X147426379Y-124957037D01*
X147430377Y-124980397D01*
X147432220Y-125003774D01*
X147431945Y-125027105D01*
X147429589Y-125050332D01*
X147425188Y-125073394D01*
X147418780Y-125096232D01*
X147410401Y-125118784D01*
X147400088Y-125140992D01*
X147387878Y-125162794D01*
X147373807Y-125184132D01*
X147357913Y-125204944D01*
X147340233Y-125225172D01*
X147320802Y-125244753D01*
X147299658Y-125263630D01*
X147276838Y-125281741D01*
X147252379Y-125299026D01*
X147226317Y-125315426D01*
X147198689Y-125330880D01*
X147169532Y-125345329D01*
X147138883Y-125358711D01*
X147106779Y-125370968D01*
X147073256Y-125382039D01*
X147038352Y-125391863D01*
X147002102Y-125400382D01*
X146964545Y-125407534D01*
X146908339Y-125417071D01*
X146858443Y-125426034D01*
X146814345Y-125434718D01*
X146775533Y-125443418D01*
X146757950Y-125447866D01*
X146741496Y-125452428D01*
X146726109Y-125457141D01*
X146711723Y-125462042D01*
X146698275Y-125467168D01*
X146685701Y-125472556D01*
X146673937Y-125478242D01*
X146662920Y-125484263D01*
X146652584Y-125490657D01*
X146642867Y-125497459D01*
X146633703Y-125504707D01*
X146625031Y-125512437D01*
X146616784Y-125520687D01*
X146608900Y-125529493D01*
X146601314Y-125538892D01*
X146593963Y-125548921D01*
X146586782Y-125559616D01*
X146579708Y-125571015D01*
X146565623Y-125596070D01*
X146551198Y-125624381D01*
X146535920Y-125656243D01*
X146523291Y-125681693D01*
X146511042Y-125704570D01*
X146498933Y-125725029D01*
X146486723Y-125743224D01*
X146474173Y-125759311D01*
X146467694Y-125766612D01*
X146461040Y-125773445D01*
X146454181Y-125779827D01*
X146447086Y-125785780D01*
X146439726Y-125791321D01*
X146432070Y-125796472D01*
X146424089Y-125801250D01*
X146415752Y-125805675D01*
X146407030Y-125809767D01*
X146397892Y-125813546D01*
X146378248Y-125820238D01*
X146356581Y-125825907D01*
X146332651Y-125830707D01*
X146306218Y-125834795D01*
X146277040Y-125838324D01*
X146244877Y-125841451D01*
X146222889Y-125843740D01*
X146200684Y-125846618D01*
X146178417Y-125850055D01*
X146156242Y-125854018D01*
X146134316Y-125858478D01*
X146112793Y-125863403D01*
X146091828Y-125868762D01*
X146071576Y-125874524D01*
X146052192Y-125880658D01*
X146033831Y-125887133D01*
X146016649Y-125893918D01*
X146000800Y-125900982D01*
X145986439Y-125908294D01*
X145973721Y-125915823D01*
X145962802Y-125923539D01*
X145958065Y-125927457D01*
X145953836Y-125931409D01*
X145923229Y-125954532D01*
X145887080Y-125976244D01*
X145845552Y-125996498D01*
X145798807Y-126015249D01*
X145747008Y-126032449D01*
X145690317Y-126048053D01*
X145628899Y-126062014D01*
X145562914Y-126074284D01*
X145492527Y-126084818D01*
X145417900Y-126093570D01*
X145339196Y-126100492D01*
X145256577Y-126105538D01*
X145170206Y-126108662D01*
X145080246Y-126109817D01*
X144986861Y-126108957D01*
X144890212Y-126106034D01*
X144810122Y-126104311D01*
X144738149Y-126103161D01*
X144673725Y-126102662D01*
X144616285Y-126102892D01*
X144565264Y-126103928D01*
X144520095Y-126105848D01*
X144480212Y-126108729D01*
X144462076Y-126110554D01*
X144445050Y-126112649D01*
X144429063Y-126115022D01*
X144414043Y-126117685D01*
X144399921Y-126120645D01*
X144386625Y-126123914D01*
X144374085Y-126127501D01*
X144362230Y-126131415D01*
X144350989Y-126135666D01*
X144340292Y-126140265D01*
X144330067Y-126145219D01*
X144320245Y-126150540D01*
X144310754Y-126156237D01*
X144301524Y-126162320D01*
X144292483Y-126168798D01*
X144283562Y-126175681D01*
X144265795Y-126190701D01*
X144231280Y-126217052D01*
X144189603Y-126240527D01*
X144141291Y-126261103D01*
X144086870Y-126278757D01*
X144026869Y-126293466D01*
X143961814Y-126305205D01*
X143892231Y-126313953D01*
X143818649Y-126319685D01*
X143741595Y-126322379D01*
X143661594Y-126322010D01*
X143579176Y-126318557D01*
X143494866Y-126311996D01*
X143409191Y-126302302D01*
X143322680Y-126289454D01*
X143235858Y-126273428D01*
X143149254Y-126254201D01*
X143032423Y-126226471D01*
X142983217Y-126215680D01*
X142938910Y-126206989D01*
X142898571Y-126200438D01*
X142861271Y-126196065D01*
X142826079Y-126193909D01*
X142792066Y-126194008D01*
X142758301Y-126196402D01*
X142723853Y-126201129D01*
X142687793Y-126208228D01*
X142649191Y-126217738D01*
X142607116Y-126229697D01*
X142560638Y-126244145D01*
X142450754Y-126280659D01*
X142362625Y-126308719D01*
X142268604Y-126333493D01*
X142168259Y-126355166D01*
X142061155Y-126373925D01*
X141946857Y-126389955D01*
X141824931Y-126403442D01*
X141694944Y-126414574D01*
X141556462Y-126423534D01*
X141422585Y-126427548D01*
X141291906Y-126427741D01*
X141164554Y-126424197D01*
X141040659Y-126417002D01*
X140920348Y-126406242D01*
X140803752Y-126392001D01*
X140690998Y-126374365D01*
X140582216Y-126353420D01*
X140477535Y-126329249D01*
X140377083Y-126301939D01*
X140280989Y-126271576D01*
X140189383Y-126238243D01*
X140102392Y-126202027D01*
X140020146Y-126163013D01*
X139942774Y-126121285D01*
X139870405Y-126076930D01*
X139803167Y-126030032D01*
X139741189Y-125980677D01*
X139684601Y-125928951D01*
X139633530Y-125874937D01*
X139588107Y-125818722D01*
X139548459Y-125760391D01*
X139514716Y-125700029D01*
X139487007Y-125637722D01*
X139465460Y-125573554D01*
X139450204Y-125507611D01*
X139446765Y-125481287D01*
X139609129Y-125481287D01*
X139609474Y-125495483D01*
X139610281Y-125509094D01*
X139611576Y-125522186D01*
X139613387Y-125534824D01*
X139615740Y-125547074D01*
X139618663Y-125559003D01*
X139622183Y-125570676D01*
X139626327Y-125582159D01*
X139631121Y-125593518D01*
X139636595Y-125604819D01*
X139642773Y-125616128D01*
X139649684Y-125627511D01*
X139657355Y-125639032D01*
X139665812Y-125650760D01*
X139675084Y-125662758D01*
X139685196Y-125675094D01*
X139708053Y-125701041D01*
X139734599Y-125729127D01*
X139765052Y-125759880D01*
X139799629Y-125793826D01*
X139857316Y-125847594D01*
X139919322Y-125897789D01*
X139985745Y-125944433D01*
X140056688Y-125987550D01*
X140132250Y-126027164D01*
X140212534Y-126063298D01*
X140297638Y-126095974D01*
X140387665Y-126125216D01*
X140482715Y-126151048D01*
X140582888Y-126173492D01*
X140688286Y-126192573D01*
X140799009Y-126208312D01*
X140915159Y-126220734D01*
X141036835Y-126229861D01*
X141164138Y-126235718D01*
X141297170Y-126238326D01*
X141417286Y-126237956D01*
X141533549Y-126234874D01*
X141645951Y-126229094D01*
X141754486Y-126220632D01*
X141859145Y-126209503D01*
X141959920Y-126195724D01*
X142056805Y-126179309D01*
X142149790Y-126160274D01*
X142238868Y-126138634D01*
X142324032Y-126114406D01*
X142405274Y-126087604D01*
X142482586Y-126058244D01*
X142494376Y-126053118D01*
X142927004Y-126053118D01*
X143128087Y-126111326D01*
X143193915Y-126127828D01*
X143263789Y-126141639D01*
X143336795Y-126152800D01*
X143412018Y-126161349D01*
X143488543Y-126167324D01*
X143565455Y-126170764D01*
X143641841Y-126171708D01*
X143716784Y-126170196D01*
X143789372Y-126166264D01*
X143858688Y-126159953D01*
X143923818Y-126151301D01*
X143983848Y-126140347D01*
X144037863Y-126127130D01*
X144084948Y-126111688D01*
X144124189Y-126094059D01*
X144140582Y-126084438D01*
X144154670Y-126074284D01*
X144271087Y-125979034D01*
X144154670Y-125788534D01*
X144133846Y-125755716D01*
X144109371Y-125722936D01*
X144081686Y-125690482D01*
X144051234Y-125658640D01*
X144018457Y-125627698D01*
X143983797Y-125597941D01*
X143947694Y-125569657D01*
X143910592Y-125543133D01*
X143872931Y-125518655D01*
X143835155Y-125496511D01*
X143797703Y-125476986D01*
X143761020Y-125460368D01*
X143725545Y-125446944D01*
X143691722Y-125437000D01*
X143675567Y-125433423D01*
X143659991Y-125430823D01*
X143645049Y-125429237D01*
X143630795Y-125428701D01*
X143627835Y-125428624D01*
X143624909Y-125428397D01*
X143622022Y-125428025D01*
X143619178Y-125427512D01*
X143616381Y-125426864D01*
X143613633Y-125426085D01*
X143610940Y-125425180D01*
X143608306Y-125424153D01*
X143605733Y-125423011D01*
X143603226Y-125421757D01*
X143600789Y-125420396D01*
X143598425Y-125418934D01*
X143596139Y-125417375D01*
X143593934Y-125415724D01*
X143591815Y-125413985D01*
X143589785Y-125412164D01*
X143587847Y-125410266D01*
X143586007Y-125408295D01*
X143584267Y-125406256D01*
X143582633Y-125404155D01*
X143581106Y-125401995D01*
X143579692Y-125399781D01*
X143578394Y-125397520D01*
X143577217Y-125395215D01*
X143576163Y-125392871D01*
X143575238Y-125390493D01*
X143574444Y-125388086D01*
X143573785Y-125385654D01*
X143573267Y-125383204D01*
X143572891Y-125380739D01*
X143572663Y-125378264D01*
X143572586Y-125375784D01*
X143573336Y-125369086D01*
X143575542Y-125362882D01*
X143579144Y-125357168D01*
X143584079Y-125351941D01*
X143590286Y-125347198D01*
X143597701Y-125342937D01*
X143615912Y-125335849D01*
X143638216Y-125330651D01*
X143664116Y-125327322D01*
X143693117Y-125325838D01*
X143724722Y-125326175D01*
X143758436Y-125328310D01*
X143793762Y-125332221D01*
X143830204Y-125337883D01*
X143867266Y-125345274D01*
X143904453Y-125354371D01*
X143941267Y-125365149D01*
X143977213Y-125377586D01*
X144011795Y-125391659D01*
X144027150Y-125399573D01*
X144043349Y-125409332D01*
X144060246Y-125420797D01*
X144077693Y-125433827D01*
X144095543Y-125448284D01*
X144113649Y-125464027D01*
X144131864Y-125480917D01*
X144150040Y-125498815D01*
X144168030Y-125517582D01*
X144185686Y-125537077D01*
X144202862Y-125557161D01*
X144219410Y-125577694D01*
X144235183Y-125598538D01*
X144250034Y-125619552D01*
X144263815Y-125640597D01*
X144276379Y-125661534D01*
X144292207Y-125689328D01*
X144308005Y-125715215D01*
X144323864Y-125739273D01*
X144339878Y-125761580D01*
X144356141Y-125782211D01*
X144372745Y-125801246D01*
X144389782Y-125818762D01*
X144407347Y-125834836D01*
X144425532Y-125849546D01*
X144444430Y-125862969D01*
X144464134Y-125875183D01*
X144484738Y-125886265D01*
X144506333Y-125896292D01*
X144529014Y-125905344D01*
X144552873Y-125913496D01*
X144578003Y-125920826D01*
X144634625Y-125933122D01*
X144698595Y-125942303D01*
X144768829Y-125948475D01*
X144844240Y-125951749D01*
X144923744Y-125952232D01*
X145006256Y-125950033D01*
X145090690Y-125945261D01*
X145175962Y-125938024D01*
X145260985Y-125928430D01*
X145344675Y-125916588D01*
X145425946Y-125902607D01*
X145503714Y-125886595D01*
X145576893Y-125868661D01*
X145644398Y-125848913D01*
X145705144Y-125827459D01*
X145758045Y-125804409D01*
X145782137Y-125792697D01*
X145806672Y-125781403D01*
X145831470Y-125770574D01*
X145856354Y-125760257D01*
X145881144Y-125750498D01*
X145905663Y-125741343D01*
X145929733Y-125732840D01*
X145953175Y-125725034D01*
X145975810Y-125717973D01*
X145997462Y-125711702D01*
X146017950Y-125706268D01*
X146037097Y-125701718D01*
X146054725Y-125698098D01*
X146070656Y-125695455D01*
X146084710Y-125693835D01*
X146096711Y-125693284D01*
X146128987Y-125692673D01*
X146159334Y-125690875D01*
X146187745Y-125687943D01*
X146214213Y-125683931D01*
X146238732Y-125678891D01*
X146261294Y-125672878D01*
X146281894Y-125665945D01*
X146300523Y-125658144D01*
X146317176Y-125649530D01*
X146331846Y-125640154D01*
X146344525Y-125630072D01*
X146355207Y-125619335D01*
X146363886Y-125607998D01*
X146370554Y-125596113D01*
X146375205Y-125583734D01*
X146377831Y-125570914D01*
X146378427Y-125557707D01*
X146376985Y-125544165D01*
X146373499Y-125530343D01*
X146367961Y-125516292D01*
X146360365Y-125502068D01*
X146350705Y-125487722D01*
X146338973Y-125473308D01*
X146325162Y-125458880D01*
X146309267Y-125444490D01*
X146291279Y-125430193D01*
X146271193Y-125416041D01*
X146249002Y-125402087D01*
X146224698Y-125388386D01*
X146198275Y-125374990D01*
X146169726Y-125361952D01*
X146139044Y-125349326D01*
X146094196Y-125332195D01*
X146052858Y-125314475D01*
X146014947Y-125296073D01*
X145980377Y-125276896D01*
X145964318Y-125266988D01*
X145949062Y-125256851D01*
X145934599Y-125246474D01*
X145920918Y-125235844D01*
X145908008Y-125224952D01*
X145895859Y-125213784D01*
X145884460Y-125202329D01*
X145873800Y-125190576D01*
X145863868Y-125178513D01*
X145854655Y-125166128D01*
X145846149Y-125153409D01*
X145838339Y-125140346D01*
X145831216Y-125126927D01*
X145824768Y-125113139D01*
X145818985Y-125098971D01*
X145813855Y-125084412D01*
X145809369Y-125069450D01*
X145805516Y-125054073D01*
X145802285Y-125038269D01*
X145799665Y-125022028D01*
X145797646Y-125005337D01*
X145796217Y-124988185D01*
X145795539Y-124966752D01*
X146005552Y-124966752D01*
X146007497Y-124982382D01*
X146013480Y-124998585D01*
X146023285Y-125015240D01*
X146036697Y-125032225D01*
X146053499Y-125049416D01*
X146096410Y-125083934D01*
X146150289Y-125117815D01*
X146213408Y-125150085D01*
X146284038Y-125179765D01*
X146360451Y-125205880D01*
X146440918Y-125227452D01*
X146523710Y-125243505D01*
X146607099Y-125253063D01*
X146689356Y-125255148D01*
X146729520Y-125253083D01*
X146768753Y-125248784D01*
X146796295Y-125243999D01*
X146823328Y-125238595D01*
X146849812Y-125232604D01*
X146875702Y-125226057D01*
X146900957Y-125218987D01*
X146925534Y-125211426D01*
X146949390Y-125203406D01*
X146972482Y-125194958D01*
X146994768Y-125186115D01*
X147016205Y-125176909D01*
X147036751Y-125167371D01*
X147056363Y-125157534D01*
X147074998Y-125147430D01*
X147092614Y-125137090D01*
X147109168Y-125126546D01*
X147124617Y-125115831D01*
X147138919Y-125104977D01*
X147152032Y-125094015D01*
X147163911Y-125082977D01*
X147174516Y-125071896D01*
X147183803Y-125060803D01*
X147191730Y-125049730D01*
X147198253Y-125038710D01*
X147203331Y-125027774D01*
X147206920Y-125016955D01*
X147208979Y-125006283D01*
X147209464Y-124995792D01*
X147208333Y-124985513D01*
X147205543Y-124975479D01*
X147201052Y-124965720D01*
X147194816Y-124956270D01*
X147186794Y-124947159D01*
X147178337Y-124940774D01*
X147166013Y-124934528D01*
X147130674Y-124922509D01*
X147082591Y-124911219D01*
X147023580Y-124900774D01*
X146880022Y-124882884D01*
X146714513Y-124869769D01*
X146541562Y-124862358D01*
X146375681Y-124861583D01*
X146299926Y-124863974D01*
X146231380Y-124868373D01*
X146171856Y-124874896D01*
X146123169Y-124883659D01*
X146090794Y-124891855D01*
X146063970Y-124901480D01*
X146042481Y-124912410D01*
X146026110Y-124924525D01*
X146014643Y-124937701D01*
X146007862Y-124951818D01*
X146005552Y-124966752D01*
X145795539Y-124966752D01*
X145795086Y-124952451D01*
X145794488Y-124933718D01*
X145792716Y-124914267D01*
X145789806Y-124894158D01*
X145785795Y-124873448D01*
X145774611Y-124830458D01*
X145759450Y-124785763D01*
X145740600Y-124739828D01*
X145718347Y-124693118D01*
X145692978Y-124646097D01*
X145664779Y-124599232D01*
X145634038Y-124552987D01*
X145601041Y-124507827D01*
X145566076Y-124464217D01*
X145529428Y-124422623D01*
X145491385Y-124383509D01*
X145452234Y-124347340D01*
X145412261Y-124314583D01*
X145371753Y-124285701D01*
X145348606Y-124270650D01*
X145323001Y-124255336D01*
X145295211Y-124239866D01*
X145265506Y-124224350D01*
X145201438Y-124193613D01*
X145132967Y-124163992D01*
X145062263Y-124136356D01*
X144991497Y-124111572D01*
X144922840Y-124090508D01*
X144889981Y-124081643D01*
X144858462Y-124074034D01*
X144766825Y-124053883D01*
X144676282Y-124037096D01*
X144586560Y-124023688D01*
X144497388Y-124013676D01*
X144408496Y-124007074D01*
X144319611Y-124003899D01*
X144230463Y-124004165D01*
X144140779Y-124007888D01*
X144050290Y-124015084D01*
X143958723Y-124025768D01*
X143865808Y-124039956D01*
X143771272Y-124057663D01*
X143674845Y-124078905D01*
X143576256Y-124103696D01*
X143475232Y-124132054D01*
X143371503Y-124163992D01*
X143038129Y-124275118D01*
X143075170Y-124465618D01*
X143083252Y-124513852D01*
X143095179Y-124573683D01*
X143110331Y-124642816D01*
X143128087Y-124718956D01*
X143168932Y-124883080D01*
X143212754Y-125047701D01*
X143232832Y-125127093D01*
X143249361Y-125200880D01*
X143262262Y-125269536D01*
X143271458Y-125333534D01*
X143274642Y-125363933D01*
X143276871Y-125393345D01*
X143278135Y-125421829D01*
X143278424Y-125449444D01*
X143277729Y-125476248D01*
X143276039Y-125502302D01*
X143273346Y-125527664D01*
X143269639Y-125552394D01*
X143264909Y-125576549D01*
X143259146Y-125600190D01*
X143252341Y-125623376D01*
X143244483Y-125646166D01*
X143235563Y-125668618D01*
X143225572Y-125690792D01*
X143214499Y-125712747D01*
X143202335Y-125734543D01*
X143189071Y-125756237D01*
X143174696Y-125777890D01*
X143159201Y-125799560D01*
X143142577Y-125821307D01*
X143105899Y-125865267D01*
X143064587Y-125910242D01*
X142927004Y-126053118D01*
X142494376Y-126053118D01*
X142555960Y-126026341D01*
X142625389Y-125991912D01*
X142690864Y-125954971D01*
X142752378Y-125915534D01*
X142804541Y-125877058D01*
X142851928Y-125838908D01*
X142894602Y-125800913D01*
X142932626Y-125762903D01*
X142966060Y-125724706D01*
X142981076Y-125705485D01*
X142994968Y-125686153D01*
X143007744Y-125666689D01*
X143019411Y-125647072D01*
X143029978Y-125627281D01*
X143039451Y-125607295D01*
X143047840Y-125587091D01*
X143055150Y-125566648D01*
X143061392Y-125545947D01*
X143066571Y-125524964D01*
X143070696Y-125503678D01*
X143073775Y-125482070D01*
X143075815Y-125460116D01*
X143076824Y-125437796D01*
X143076809Y-125415088D01*
X143075780Y-125391972D01*
X143073742Y-125368425D01*
X143070705Y-125344427D01*
X143061662Y-125294991D01*
X143048712Y-125243492D01*
X143035421Y-125191857D01*
X143019773Y-125126084D01*
X142983889Y-124963034D01*
X142946020Y-124776172D01*
X142911128Y-124587326D01*
X142886675Y-124449527D01*
X142864330Y-124329533D01*
X142843226Y-124226918D01*
X142832867Y-124181994D01*
X142822493Y-124141255D01*
X142811995Y-124104647D01*
X142801264Y-124072118D01*
X142790193Y-124043614D01*
X142778671Y-124019081D01*
X142766592Y-123998467D01*
X142753846Y-123981718D01*
X142740325Y-123968781D01*
X142725920Y-123959602D01*
X142710523Y-123954128D01*
X142694026Y-123952306D01*
X142676319Y-123954083D01*
X142657294Y-123959405D01*
X142636843Y-123968220D01*
X142614857Y-123980473D01*
X142591228Y-123996111D01*
X142565847Y-124015082D01*
X142538606Y-124037331D01*
X142509396Y-124062806D01*
X142444635Y-124123220D01*
X142370697Y-124195896D01*
X142286712Y-124280409D01*
X142229736Y-124338204D01*
X142179411Y-124388806D01*
X142135070Y-124432586D01*
X142096047Y-124469917D01*
X142078321Y-124486280D01*
X142061674Y-124501171D01*
X142046023Y-124514635D01*
X142031286Y-124526720D01*
X142017377Y-124537471D01*
X142004215Y-124546936D01*
X141991715Y-124555160D01*
X141979795Y-124562190D01*
X141968371Y-124568074D01*
X141957360Y-124572856D01*
X141946678Y-124576585D01*
X141936242Y-124579306D01*
X141925969Y-124581065D01*
X141915776Y-124581910D01*
X141905578Y-124581887D01*
X141895294Y-124581042D01*
X141884839Y-124579422D01*
X141874130Y-124577073D01*
X141863084Y-124574042D01*
X141851617Y-124570376D01*
X141827089Y-124561322D01*
X141799878Y-124550284D01*
X141759007Y-124535280D01*
X141710540Y-124522027D01*
X141655562Y-124510542D01*
X141595157Y-124500840D01*
X141530412Y-124492936D01*
X141462411Y-124486846D01*
X141392239Y-124482585D01*
X141320983Y-124480170D01*
X141249726Y-124479614D01*
X141179555Y-124480934D01*
X141111554Y-124484146D01*
X141046808Y-124489265D01*
X140986404Y-124496306D01*
X140931425Y-124505284D01*
X140882958Y-124516217D01*
X140842087Y-124529118D01*
X140817499Y-124538174D01*
X140794958Y-124545261D01*
X140773905Y-124550023D01*
X140763762Y-124551421D01*
X140753782Y-124552103D01*
X140743895Y-124552026D01*
X140734031Y-124551145D01*
X140724121Y-124549415D01*
X140714095Y-124546791D01*
X140703882Y-124543229D01*
X140693414Y-124538686D01*
X140682620Y-124533114D01*
X140671431Y-124526472D01*
X140647587Y-124509793D01*
X140621325Y-124488293D01*
X140592087Y-124461615D01*
X140559313Y-124429403D01*
X140522448Y-124391299D01*
X140480931Y-124346948D01*
X140381712Y-124238076D01*
X140327061Y-124178534D01*
X140276147Y-124124884D01*
X140252057Y-124100248D01*
X140228861Y-124077062D01*
X140206544Y-124055318D01*
X140185093Y-124035008D01*
X140164495Y-124016124D01*
X140144737Y-123998659D01*
X140125803Y-123982604D01*
X140107682Y-123967953D01*
X140090359Y-123954696D01*
X140073821Y-123942828D01*
X140058054Y-123932339D01*
X140043045Y-123923222D01*
X140028780Y-123915469D01*
X140015246Y-123909073D01*
X140002428Y-123904025D01*
X139990315Y-123900319D01*
X139978891Y-123897945D01*
X139968143Y-123896898D01*
X139958058Y-123897168D01*
X139948622Y-123898748D01*
X139939822Y-123901630D01*
X139931644Y-123905807D01*
X139924074Y-123911270D01*
X139917099Y-123918013D01*
X139910706Y-123926026D01*
X139904881Y-123935303D01*
X139899609Y-123945836D01*
X139894879Y-123957617D01*
X139868730Y-124049736D01*
X139832536Y-124202440D01*
X139745389Y-124614446D01*
X139702125Y-124836169D01*
X139664195Y-125043319D01*
X139635442Y-125217107D01*
X139619712Y-125338743D01*
X139615221Y-125380130D01*
X139611816Y-125417332D01*
X139609713Y-125450875D01*
X139609129Y-125481287D01*
X139446765Y-125481287D01*
X139441369Y-125439978D01*
X139439082Y-125370741D01*
X139443473Y-125299984D01*
X139454672Y-125227793D01*
X139472805Y-125154254D01*
X139498004Y-125079451D01*
X139511553Y-125039722D01*
X139528017Y-124981886D01*
X139546838Y-124908671D01*
X139567457Y-124822805D01*
X139611857Y-124624037D01*
X139656754Y-124407409D01*
X139679212Y-124301411D01*
X139702477Y-124199381D01*
X139725866Y-124103800D01*
X139748696Y-124017149D01*
X139770287Y-123941908D01*
X139789955Y-123880558D01*
X139798855Y-123855867D01*
X139807018Y-123835578D01*
X139814360Y-123820003D01*
X139820795Y-123809451D01*
X139831852Y-123796663D01*
X139843206Y-123785093D01*
X139854876Y-123774752D01*
X139866880Y-123765650D01*
X139879237Y-123757795D01*
X139891965Y-123751199D01*
X139905083Y-123745869D01*
X139918608Y-123741817D01*
X139932560Y-123739051D01*
X139946957Y-123737582D01*
X139961817Y-123737419D01*
X139977158Y-123738571D01*
G37*
M02*
