%TF.GenerationSoftware,KiCad,Pcbnew,9.0.3*%
%TF.CreationDate,2025-11-26T12:48:42-06:00*%
%TF.ProjectId,onyx2040,6f6e7978-3230-4343-902e-6b696361645f,rev?*%
%TF.SameCoordinates,Original*%
%TF.FileFunction,Soldermask,Bot*%
%TF.FilePolarity,Negative*%
%FSLAX46Y46*%
G04 Gerber Fmt 4.6, Leading zero omitted, Abs format (unit mm)*
G04 Created by KiCad (PCBNEW 9.0.3) date 2025-11-26 12:48:42*
%MOMM*%
%LPD*%
G01*
G04 APERTURE LIST*
%ADD10R,1.700000X1.700000*%
%ADD11C,1.700000*%
%ADD12C,0.650000*%
%ADD13O,1.000000X2.100000*%
%ADD14O,1.000000X1.600000*%
G04 APERTURE END LIST*
D10*
%TO.C,J3*%
X149430000Y-80250000D03*
D11*
X149430000Y-82790000D03*
X149430000Y-85330000D03*
X149430000Y-87870000D03*
X149430000Y-90410000D03*
X149430000Y-92950000D03*
X149430000Y-95490000D03*
X149430000Y-98030000D03*
X149430000Y-100570000D03*
X149430000Y-103110000D03*
X149430000Y-105650000D03*
X149430000Y-108190000D03*
X149430000Y-110730000D03*
X149430000Y-113270000D03*
X149430000Y-115810000D03*
X149430000Y-118350000D03*
X149430000Y-120890000D03*
X149430000Y-123430000D03*
X149430000Y-125970000D03*
X149430000Y-128510000D03*
%TD*%
D10*
%TO.C,J1*%
X131770000Y-80250000D03*
D11*
X131770000Y-82790000D03*
X131770000Y-85330000D03*
X131770000Y-87870000D03*
X131770000Y-90410000D03*
X131770000Y-92950000D03*
X131770000Y-95490000D03*
X131770000Y-98030000D03*
X131770000Y-100570000D03*
X131770000Y-103110000D03*
X131770000Y-105650000D03*
X131770000Y-108190000D03*
X131770000Y-110730000D03*
X131770000Y-113270000D03*
X131770000Y-115810000D03*
X131770000Y-118350000D03*
X131770000Y-120890000D03*
X131770000Y-123430000D03*
X131770000Y-125970000D03*
X131770000Y-128510000D03*
%TD*%
D12*
%TO.C,J4*%
X143490000Y-84020000D03*
X137710000Y-84020000D03*
D13*
X144920000Y-84550000D03*
D14*
X144920000Y-80370000D03*
D13*
X136280000Y-84550000D03*
D14*
X136280000Y-80370000D03*
%TD*%
D10*
%TO.C,J2*%
X138060000Y-128270000D03*
D11*
X140600000Y-128270000D03*
X143140000Y-128270000D03*
%TD*%
M02*
