%TF.GenerationSoftware,KiCad,Pcbnew,9.0.3*%
%TF.CreationDate,2025-11-26T12:48:42-06:00*%
%TF.ProjectId,onyx2040,6f6e7978-3230-4343-902e-6b696361645f,rev?*%
%TF.SameCoordinates,Original*%
%TF.FileFunction,Copper,L1,Top*%
%TF.FilePolarity,Positive*%
%FSLAX46Y46*%
G04 Gerber Fmt 4.6, Leading zero omitted, Abs format (unit mm)*
G04 Created by KiCad (PCBNEW 9.0.3) date 2025-11-26 12:48:42*
%MOMM*%
%LPD*%
G01*
G04 APERTURE LIST*
G04 Aperture macros list*
%AMRoundRect*
0 Rectangle with rounded corners*
0 $1 Rounding radius*
0 $2 $3 $4 $5 $6 $7 $8 $9 X,Y pos of 4 corners*
0 Add a 4 corners polygon primitive as box body*
4,1,4,$2,$3,$4,$5,$6,$7,$8,$9,$2,$3,0*
0 Add four circle primitives for the rounded corners*
1,1,$1+$1,$2,$3*
1,1,$1+$1,$4,$5*
1,1,$1+$1,$6,$7*
1,1,$1+$1,$8,$9*
0 Add four rect primitives between the rounded corners*
20,1,$1+$1,$2,$3,$4,$5,0*
20,1,$1+$1,$4,$5,$6,$7,0*
20,1,$1+$1,$6,$7,$8,$9,0*
20,1,$1+$1,$8,$9,$2,$3,0*%
G04 Aperture macros list end*
%TA.AperFunction,SMDPad,CuDef*%
%ADD10RoundRect,0.135000X-0.135000X-0.185000X0.135000X-0.185000X0.135000X0.185000X-0.135000X0.185000X0*%
%TD*%
%TA.AperFunction,SMDPad,CuDef*%
%ADD11R,0.900000X0.700000*%
%TD*%
%TA.AperFunction,SMDPad,CuDef*%
%ADD12RoundRect,0.140000X0.170000X-0.140000X0.170000X0.140000X-0.170000X0.140000X-0.170000X-0.140000X0*%
%TD*%
%TA.AperFunction,ComponentPad*%
%ADD13R,1.700000X1.700000*%
%TD*%
%TA.AperFunction,ComponentPad*%
%ADD14C,1.700000*%
%TD*%
%TA.AperFunction,SMDPad,CuDef*%
%ADD15RoundRect,0.162500X-0.650000X-0.162500X0.650000X-0.162500X0.650000X0.162500X-0.650000X0.162500X0*%
%TD*%
%TA.AperFunction,SMDPad,CuDef*%
%ADD16RoundRect,0.135000X0.185000X-0.135000X0.185000X0.135000X-0.185000X0.135000X-0.185000X-0.135000X0*%
%TD*%
%TA.AperFunction,SMDPad,CuDef*%
%ADD17RoundRect,0.140000X-0.140000X-0.170000X0.140000X-0.170000X0.140000X0.170000X-0.140000X0.170000X0*%
%TD*%
%TA.AperFunction,SMDPad,CuDef*%
%ADD18RoundRect,0.140000X0.140000X0.170000X-0.140000X0.170000X-0.140000X-0.170000X0.140000X-0.170000X0*%
%TD*%
%TA.AperFunction,SMDPad,CuDef*%
%ADD19RoundRect,0.135000X-0.185000X0.135000X-0.185000X-0.135000X0.185000X-0.135000X0.185000X0.135000X0*%
%TD*%
%TA.AperFunction,SMDPad,CuDef*%
%ADD20RoundRect,0.050000X-0.387500X-0.050000X0.387500X-0.050000X0.387500X0.050000X-0.387500X0.050000X0*%
%TD*%
%TA.AperFunction,SMDPad,CuDef*%
%ADD21RoundRect,0.050000X-0.050000X-0.387500X0.050000X-0.387500X0.050000X0.387500X-0.050000X0.387500X0*%
%TD*%
%TA.AperFunction,HeatsinkPad*%
%ADD22R,3.200000X3.200000*%
%TD*%
%TA.AperFunction,SMDPad,CuDef*%
%ADD23RoundRect,0.250000X-0.450000X-0.350000X0.450000X-0.350000X0.450000X0.350000X-0.450000X0.350000X0*%
%TD*%
%TA.AperFunction,SMDPad,CuDef*%
%ADD24RoundRect,0.225000X0.225000X0.250000X-0.225000X0.250000X-0.225000X-0.250000X0.225000X-0.250000X0*%
%TD*%
%TA.AperFunction,SMDPad,CuDef*%
%ADD25RoundRect,0.140000X-0.170000X0.140000X-0.170000X-0.140000X0.170000X-0.140000X0.170000X0.140000X0*%
%TD*%
%TA.AperFunction,SMDPad,CuDef*%
%ADD26RoundRect,0.225000X0.250000X-0.225000X0.250000X0.225000X-0.250000X0.225000X-0.250000X-0.225000X0*%
%TD*%
%TA.AperFunction,SMDPad,CuDef*%
%ADD27RoundRect,0.150000X0.150000X-0.587500X0.150000X0.587500X-0.150000X0.587500X-0.150000X-0.587500X0*%
%TD*%
%TA.AperFunction,SMDPad,CuDef*%
%ADD28R,0.600000X1.450000*%
%TD*%
%TA.AperFunction,SMDPad,CuDef*%
%ADD29R,0.300000X1.450000*%
%TD*%
%TA.AperFunction,HeatsinkPad*%
%ADD30O,1.000000X2.100000*%
%TD*%
%TA.AperFunction,HeatsinkPad*%
%ADD31O,1.000000X1.600000*%
%TD*%
%TA.AperFunction,SMDPad,CuDef*%
%ADD32RoundRect,0.200000X-0.800000X0.200000X-0.800000X-0.200000X0.800000X-0.200000X0.800000X0.200000X0*%
%TD*%
%TA.AperFunction,ViaPad*%
%ADD33C,0.600000*%
%TD*%
%TA.AperFunction,Conductor*%
%ADD34C,0.200000*%
%TD*%
G04 APERTURE END LIST*
D10*
%TO.P,R1,1*%
%TO.N,Net-(J4-CC1)*%
X143790000Y-87260000D03*
%TO.P,R1,2*%
%TO.N,GND*%
X144810000Y-87260000D03*
%TD*%
D11*
%TO.P,LED1,1,DO*%
%TO.N,Net-(LED1-DO)*%
X139567500Y-119520000D03*
%TO.P,LED1,2,GND*%
%TO.N,GND*%
X139567500Y-120620000D03*
%TO.P,LED1,3,DI*%
%TO.N,Net-(LED1-DI)*%
X141407500Y-120620000D03*
%TO.P,LED1,4,VDD*%
%TO.N,VBUS*%
X141407500Y-119520000D03*
%TD*%
D10*
%TO.P,R4,1*%
%TO.N,USB_D-*%
X146070000Y-101947500D03*
%TO.P,R4,2*%
%TO.N,Net-(U1-USB_DM)*%
X147090000Y-101947500D03*
%TD*%
D12*
%TO.P,C6,1*%
%TO.N,+3V3*%
X144230000Y-101967500D03*
%TO.P,C6,2*%
%TO.N,GND*%
X144230000Y-101007500D03*
%TD*%
D13*
%TO.P,J3,1,Pin_1*%
%TO.N,VBUS*%
X149430000Y-80250000D03*
D14*
%TO.P,J3,2,Pin_2*%
%TO.N,GPIO29_ADC3*%
X149430000Y-82790000D03*
%TO.P,J3,3,Pin_3*%
%TO.N,GND*%
X149430000Y-85330000D03*
%TO.P,J3,4,Pin_4*%
%TO.N,GPIO28_ADC2*%
X149430000Y-87870000D03*
%TO.P,J3,5,Pin_5*%
%TO.N,+3V3*%
X149430000Y-90410000D03*
%TO.P,J3,6,Pin_6*%
%TO.N,GPIO27_ADC1*%
X149430000Y-92950000D03*
%TO.P,J3,7,Pin_7*%
%TO.N,GPIO26_ADC0*%
X149430000Y-95490000D03*
%TO.P,J3,8,Pin_8*%
%TO.N,GND*%
X149430000Y-98030000D03*
%TO.P,J3,9,Pin_9*%
%TO.N,GPIO24*%
X149430000Y-100570000D03*
%TO.P,J3,10,Pin_10*%
%TO.N,GPIO23*%
X149430000Y-103110000D03*
%TO.P,J3,11,Pin_11*%
%TO.N,RUN*%
X149430000Y-105650000D03*
%TO.P,J3,12,Pin_12*%
%TO.N,GPIO22*%
X149430000Y-108190000D03*
%TO.P,J3,13,Pin_13*%
%TO.N,GND*%
X149430000Y-110730000D03*
%TO.P,J3,14,Pin_14*%
%TO.N,GPIO21*%
X149430000Y-113270000D03*
%TO.P,J3,15,Pin_15*%
%TO.N,GPIO20*%
X149430000Y-115810000D03*
%TO.P,J3,16,Pin_16*%
%TO.N,GPIO19*%
X149430000Y-118350000D03*
%TO.P,J3,17,Pin_17*%
%TO.N,GPIO18*%
X149430000Y-120890000D03*
%TO.P,J3,18,Pin_18*%
%TO.N,GND*%
X149430000Y-123430000D03*
%TO.P,J3,19,Pin_19*%
%TO.N,GPIO17*%
X149430000Y-125970000D03*
%TO.P,J3,20,Pin_20*%
%TO.N,GPIO16*%
X149430000Y-128510000D03*
%TD*%
D15*
%TO.P,U3,1,~{CS}*%
%TO.N,QSPI_SS*%
X138372500Y-92245000D03*
%TO.P,U3,2,DO/IO_{1}*%
%TO.N,QSPI_SD1*%
X138372500Y-93515000D03*
%TO.P,U3,3,~{WP}/IO_{2}*%
%TO.N,QSPI_SD2*%
X138372500Y-94785000D03*
%TO.P,U3,4,GND*%
%TO.N,GND*%
X138372500Y-96055000D03*
%TO.P,U3,5,DI/IO_{0}*%
%TO.N,QSPI_SD0*%
X145547500Y-96055000D03*
%TO.P,U3,6,CLK*%
%TO.N,QSPI_SCLK*%
X145547500Y-94785000D03*
%TO.P,U3,7,~{HOLD}/~{RESET}/IO_{3}*%
%TO.N,QSPI_SD3*%
X145547500Y-93515000D03*
%TO.P,U3,8,VCC*%
%TO.N,+3V3*%
X145547500Y-92245000D03*
%TD*%
D16*
%TO.P,R7,1*%
%TO.N,QSPI_SS*%
X137800000Y-91190000D03*
%TO.P,R7,2*%
%TO.N,+3V3*%
X137800000Y-90170000D03*
%TD*%
D12*
%TO.P,C7,1*%
%TO.N,+3V3*%
X145170000Y-103307500D03*
%TO.P,C7,2*%
%TO.N,GND*%
X145170000Y-102347500D03*
%TD*%
%TO.P,C16,1*%
%TO.N,GND*%
X137030000Y-113597500D03*
%TO.P,C16,2*%
%TO.N,XIN*%
X137030000Y-112637500D03*
%TD*%
D17*
%TO.P,C9,1*%
%TO.N,+3V3*%
X140570000Y-111080000D03*
%TO.P,C9,2*%
%TO.N,GND*%
X141530000Y-111080000D03*
%TD*%
D12*
%TO.P,C4,1*%
%TO.N,+3V3*%
X141390000Y-101570000D03*
%TO.P,C4,2*%
%TO.N,GND*%
X141390000Y-100610000D03*
%TD*%
D13*
%TO.P,J1,1,Pin_1*%
%TO.N,GPIO0*%
X131770000Y-80250000D03*
D14*
%TO.P,J1,2,Pin_2*%
%TO.N,GPIO1*%
X131770000Y-82790000D03*
%TO.P,J1,3,Pin_3*%
%TO.N,GND*%
X131770000Y-85330000D03*
%TO.P,J1,4,Pin_4*%
%TO.N,GPIO2*%
X131770000Y-87870000D03*
%TO.P,J1,5,Pin_5*%
%TO.N,GPIO3*%
X131770000Y-90410000D03*
%TO.P,J1,6,Pin_6*%
%TO.N,GPIO4*%
X131770000Y-92950000D03*
%TO.P,J1,7,Pin_7*%
%TO.N,GPIO5*%
X131770000Y-95490000D03*
%TO.P,J1,8,Pin_8*%
%TO.N,GND*%
X131770000Y-98030000D03*
%TO.P,J1,9,Pin_9*%
%TO.N,GPIO6*%
X131770000Y-100570000D03*
%TO.P,J1,10,Pin_10*%
%TO.N,GPIO7*%
X131770000Y-103110000D03*
%TO.P,J1,11,Pin_11*%
%TO.N,GPIO8*%
X131770000Y-105650000D03*
%TO.P,J1,12,Pin_12*%
%TO.N,GPIO9*%
X131770000Y-108190000D03*
%TO.P,J1,13,Pin_13*%
%TO.N,GND*%
X131770000Y-110730000D03*
%TO.P,J1,14,Pin_14*%
%TO.N,GPIO10*%
X131770000Y-113270000D03*
%TO.P,J1,15,Pin_15*%
%TO.N,GPIO11*%
X131770000Y-115810000D03*
%TO.P,J1,16,Pin_16*%
%TO.N,GPIO12*%
X131770000Y-118350000D03*
%TO.P,J1,17,Pin_17*%
%TO.N,GPIO13*%
X131770000Y-120890000D03*
%TO.P,J1,18,Pin_18*%
%TO.N,GND*%
X131770000Y-123430000D03*
%TO.P,J1,19,Pin_19*%
%TO.N,GPIO14*%
X131770000Y-125970000D03*
%TO.P,J1,20,Pin_20*%
%TO.N,GPIO15*%
X131770000Y-128510000D03*
%TD*%
D10*
%TO.P,R2,1*%
%TO.N,Net-(J4-CC2)*%
X143780000Y-88290000D03*
%TO.P,R2,2*%
%TO.N,GND*%
X144800000Y-88290000D03*
%TD*%
D17*
%TO.P,C15,1*%
%TO.N,+3V3*%
X145380000Y-91150000D03*
%TO.P,C15,2*%
%TO.N,GND*%
X146340000Y-91150000D03*
%TD*%
D18*
%TO.P,C1,1*%
%TO.N,+3V3*%
X136210000Y-102707500D03*
%TO.P,C1,2*%
%TO.N,GND*%
X135250000Y-102707500D03*
%TD*%
D10*
%TO.P,R3,1*%
%TO.N,USB_D+*%
X136720000Y-88860000D03*
%TO.P,R3,2*%
%TO.N,Net-(U1-USB_DP)*%
X137740000Y-88860000D03*
%TD*%
D12*
%TO.P,C17,1*%
%TO.N,GND*%
X142320000Y-113607500D03*
%TO.P,C17,2*%
%TO.N,Net-(C17-Pad2)*%
X142320000Y-112647500D03*
%TD*%
%TO.P,C5,1*%
%TO.N,+3V3*%
X143270000Y-101610000D03*
%TO.P,C5,2*%
%TO.N,GND*%
X143270000Y-100650000D03*
%TD*%
D19*
%TO.P,R5,1*%
%TO.N,LED*%
X145210000Y-105597500D03*
%TO.P,R5,2*%
%TO.N,Net-(LED3-DI)*%
X145210000Y-106617500D03*
%TD*%
D20*
%TO.P,U1,1,IOVDD*%
%TO.N,+3V3*%
X137042500Y-103587500D03*
%TO.P,U1,2,GPIO0*%
%TO.N,GPIO0*%
X137042500Y-103987500D03*
%TO.P,U1,3,GPIO1*%
%TO.N,GPIO1*%
X137042500Y-104387500D03*
%TO.P,U1,4,GPIO2*%
%TO.N,GPIO2*%
X137042500Y-104787500D03*
%TO.P,U1,5,GPIO3*%
%TO.N,GPIO3*%
X137042500Y-105187500D03*
%TO.P,U1,6,GPIO4*%
%TO.N,GPIO4*%
X137042500Y-105587500D03*
%TO.P,U1,7,GPIO5*%
%TO.N,GPIO5*%
X137042500Y-105987500D03*
%TO.P,U1,8,GPIO6*%
%TO.N,GPIO6*%
X137042500Y-106387500D03*
%TO.P,U1,9,GPIO7*%
%TO.N,GPIO7*%
X137042500Y-106787500D03*
%TO.P,U1,10,IOVDD*%
%TO.N,+3V3*%
X137042500Y-107187500D03*
%TO.P,U1,11,GPIO8*%
%TO.N,GPIO8*%
X137042500Y-107587500D03*
%TO.P,U1,12,GPIO9*%
%TO.N,GPIO9*%
X137042500Y-107987500D03*
%TO.P,U1,13,GPIO10*%
%TO.N,GPIO10*%
X137042500Y-108387500D03*
%TO.P,U1,14,GPIO11*%
%TO.N,GPIO11*%
X137042500Y-108787500D03*
D21*
%TO.P,U1,15,GPIO12*%
%TO.N,GPIO12*%
X137880000Y-109625000D03*
%TO.P,U1,16,GPIO13*%
%TO.N,GPIO13*%
X138280000Y-109625000D03*
%TO.P,U1,17,GPIO14*%
%TO.N,GPIO14*%
X138680000Y-109625000D03*
%TO.P,U1,18,GPIO15*%
%TO.N,GPIO15*%
X139080000Y-109625000D03*
%TO.P,U1,19,TESTEN*%
%TO.N,GND*%
X139480000Y-109625000D03*
%TO.P,U1,20,XIN*%
%TO.N,XIN*%
X139880000Y-109625000D03*
%TO.P,U1,21,XOUT*%
%TO.N,XOUT*%
X140280000Y-109625000D03*
%TO.P,U1,22,IOVDD*%
%TO.N,+3V3*%
X140680000Y-109625000D03*
%TO.P,U1,23,DVDD*%
%TO.N,+1V1*%
X141080000Y-109625000D03*
%TO.P,U1,24,SWCLK*%
%TO.N,SWCLK*%
X141480000Y-109625000D03*
%TO.P,U1,25,SWD*%
%TO.N,SWD*%
X141880000Y-109625000D03*
%TO.P,U1,26,RUN*%
%TO.N,RUN*%
X142280000Y-109625000D03*
%TO.P,U1,27,GPIO16*%
%TO.N,GPIO16*%
X142680000Y-109625000D03*
%TO.P,U1,28,GPIO17*%
%TO.N,GPIO17*%
X143080000Y-109625000D03*
D20*
%TO.P,U1,29,GPIO18*%
%TO.N,GPIO18*%
X143917500Y-108787500D03*
%TO.P,U1,30,GPIO19*%
%TO.N,GPIO19*%
X143917500Y-108387500D03*
%TO.P,U1,31,GPIO20*%
%TO.N,GPIO20*%
X143917500Y-107987500D03*
%TO.P,U1,32,GPIO21*%
%TO.N,GPIO21*%
X143917500Y-107587500D03*
%TO.P,U1,33,IOVDD*%
%TO.N,+3V3*%
X143917500Y-107187500D03*
%TO.P,U1,34,GPIO22*%
%TO.N,GPIO22*%
X143917500Y-106787500D03*
%TO.P,U1,35,GPIO23*%
%TO.N,GPIO23*%
X143917500Y-106387500D03*
%TO.P,U1,36,GPIO24*%
%TO.N,GPIO24*%
X143917500Y-105987500D03*
%TO.P,U1,37,GPIO25*%
%TO.N,LED*%
X143917500Y-105587500D03*
%TO.P,U1,38,GPIO26_ADC0*%
%TO.N,GPIO26_ADC0*%
X143917500Y-105187500D03*
%TO.P,U1,39,GPIO27_ADC1*%
%TO.N,GPIO27_ADC1*%
X143917500Y-104787500D03*
%TO.P,U1,40,GPIO28_ADC2*%
%TO.N,GPIO28_ADC2*%
X143917500Y-104387500D03*
%TO.P,U1,41,GPIO29_ADC3*%
%TO.N,GPIO29_ADC3*%
X143917500Y-103987500D03*
%TO.P,U1,42,IOVDD*%
%TO.N,+3V3*%
X143917500Y-103587500D03*
D21*
%TO.P,U1,43,ADC_AVDD*%
X143080000Y-102750000D03*
%TO.P,U1,44,VREG_IN*%
X142680000Y-102750000D03*
%TO.P,U1,45,VREG_VOUT*%
%TO.N,+1V1*%
X142280000Y-102750000D03*
%TO.P,U1,46,USB_DM*%
%TO.N,Net-(U1-USB_DM)*%
X141880000Y-102750000D03*
%TO.P,U1,47,USB_DP*%
%TO.N,Net-(U1-USB_DP)*%
X141480000Y-102750000D03*
%TO.P,U1,48,USB_VDD*%
%TO.N,+3V3*%
X141080000Y-102750000D03*
%TO.P,U1,49,IOVDD*%
X140680000Y-102750000D03*
%TO.P,U1,50,DVDD*%
%TO.N,+1V1*%
X140280000Y-102750000D03*
%TO.P,U1,51,QSPI_SD3*%
%TO.N,QSPI_SD3*%
X139880000Y-102750000D03*
%TO.P,U1,52,QSPI_SCLK*%
%TO.N,QSPI_SCLK*%
X139480000Y-102750000D03*
%TO.P,U1,53,QSPI_SD0*%
%TO.N,QSPI_SD0*%
X139080000Y-102750000D03*
%TO.P,U1,54,QSPI_SD2*%
%TO.N,QSPI_SD2*%
X138680000Y-102750000D03*
%TO.P,U1,55,QSPI_SD1*%
%TO.N,QSPI_SD1*%
X138280000Y-102750000D03*
%TO.P,U1,56,QSPI_SS*%
%TO.N,QSPI_SS*%
X137880000Y-102750000D03*
D22*
%TO.P,U1,57,GND*%
%TO.N,GND*%
X140480000Y-106187500D03*
%TD*%
D17*
%TO.P,C13,1*%
%TO.N,+1V1*%
X142620000Y-111700000D03*
%TO.P,C13,2*%
%TO.N,GND*%
X143580000Y-111700000D03*
%TD*%
D11*
%TO.P,LED5,1,DO*%
%TO.N,unconnected-(LED5-DO-Pad1)*%
X142747500Y-119550000D03*
%TO.P,LED5,2,GND*%
%TO.N,GND*%
X142747500Y-120650000D03*
%TO.P,LED5,3,DI*%
%TO.N,Net-(LED2-DO)*%
X144587500Y-120650000D03*
%TO.P,LED5,4,VDD*%
%TO.N,VBUS*%
X144587500Y-119550000D03*
%TD*%
D17*
%TO.P,C8,1*%
%TO.N,+3V3*%
X145110000Y-107500000D03*
%TO.P,C8,2*%
%TO.N,GND*%
X146070000Y-107500000D03*
%TD*%
D11*
%TO.P,LED4,1,DO*%
%TO.N,Net-(LED1-DI)*%
X139567500Y-122020000D03*
%TO.P,LED4,2,GND*%
%TO.N,GND*%
X139567500Y-123120000D03*
%TO.P,LED4,3,DI*%
%TO.N,Net-(LED3-DO)*%
X141407500Y-123120000D03*
%TO.P,LED4,4,VDD*%
%TO.N,VBUS*%
X141407500Y-122020000D03*
%TD*%
D12*
%TO.P,C14,1*%
%TO.N,+1V1*%
X142320000Y-101577500D03*
%TO.P,C14,2*%
%TO.N,GND*%
X142320000Y-100617500D03*
%TD*%
D23*
%TO.P,Y1,1,1*%
%TO.N,Net-(C17-Pad2)*%
X138580000Y-114240000D03*
%TO.P,Y1,2,2*%
%TO.N,GND*%
X140780000Y-114240000D03*
%TO.P,Y1,3,3*%
%TO.N,XIN*%
X140780000Y-112540000D03*
%TO.P,Y1,4,4*%
%TO.N,GND*%
X138580000Y-112540000D03*
%TD*%
D17*
%TO.P,C12,1*%
%TO.N,+1V1*%
X145160000Y-100967500D03*
%TO.P,C12,2*%
%TO.N,GND*%
X146120000Y-100967500D03*
%TD*%
D10*
%TO.P,R6,1*%
%TO.N,Net-(R6-Pad1)*%
X137600000Y-97600000D03*
%TO.P,R6,2*%
%TO.N,QSPI_SS*%
X138620000Y-97600000D03*
%TD*%
D24*
%TO.P,C10,1*%
%TO.N,VBUS*%
X138700000Y-87480000D03*
%TO.P,C10,2*%
%TO.N,GND*%
X137150000Y-87480000D03*
%TD*%
D11*
%TO.P,LED2,1,DO*%
%TO.N,Net-(LED2-DO)*%
X139565000Y-117020000D03*
%TO.P,LED2,2,GND*%
%TO.N,GND*%
X139565000Y-118120000D03*
%TO.P,LED2,3,DI*%
%TO.N,Net-(LED1-DO)*%
X141405000Y-118120000D03*
%TO.P,LED2,4,VDD*%
%TO.N,VBUS*%
X141405000Y-117020000D03*
%TD*%
D10*
%TO.P,R8,1*%
%TO.N,Net-(C17-Pad2)*%
X138440000Y-110877500D03*
%TO.P,R8,2*%
%TO.N,XOUT*%
X139460000Y-110877500D03*
%TD*%
D25*
%TO.P,C2,1*%
%TO.N,+3V3*%
X135440000Y-106460000D03*
%TO.P,C2,2*%
%TO.N,GND*%
X135440000Y-107420000D03*
%TD*%
D26*
%TO.P,C11,1*%
%TO.N,+3V3*%
X142550000Y-89515000D03*
%TO.P,C11,2*%
%TO.N,GND*%
X142550000Y-87965000D03*
%TD*%
D27*
%TO.P,U2,1,GND*%
%TO.N,GND*%
X139077500Y-90177500D03*
%TO.P,U2,2,VO*%
%TO.N,+3V3*%
X140977500Y-90177500D03*
%TO.P,U2,3,VI*%
%TO.N,VBUS*%
X140027500Y-88302500D03*
%TD*%
D28*
%TO.P,J4,A1,GND*%
%TO.N,GND*%
X143850000Y-85465000D03*
%TO.P,J4,A4,VBUS*%
%TO.N,VBUS*%
X143050000Y-85465000D03*
D29*
%TO.P,J4,A5,CC1*%
%TO.N,Net-(J4-CC1)*%
X141850000Y-85465000D03*
%TO.P,J4,A6,D+*%
%TO.N,USB_D+*%
X140850000Y-85465000D03*
%TO.P,J4,A7,D-*%
%TO.N,USB_D-*%
X140350000Y-85465000D03*
%TO.P,J4,A8*%
%TO.N,N/C*%
X139350000Y-85465000D03*
D28*
%TO.P,J4,A9,VBUS*%
%TO.N,VBUS*%
X138150000Y-85465000D03*
%TO.P,J4,A12,GND*%
%TO.N,GND*%
X137350000Y-85465000D03*
%TO.P,J4,B1,GND*%
X137350000Y-85465000D03*
%TO.P,J4,B4,VBUS*%
%TO.N,VBUS*%
X138150000Y-85465000D03*
D29*
%TO.P,J4,B5,CC2*%
%TO.N,Net-(J4-CC2)*%
X138850000Y-85465000D03*
%TO.P,J4,B6,D+*%
%TO.N,USB_D+*%
X139850000Y-85465000D03*
%TO.P,J4,B7,D-*%
%TO.N,USB_D-*%
X141350000Y-85465000D03*
%TO.P,J4,B8*%
%TO.N,N/C*%
X142350000Y-85465000D03*
D28*
%TO.P,J4,B9,VBUS*%
%TO.N,VBUS*%
X143050000Y-85465000D03*
%TO.P,J4,B12,GND*%
%TO.N,GND*%
X143850000Y-85465000D03*
D30*
%TO.P,J4,S1,SHIELD*%
X144920000Y-84550000D03*
D31*
X144920000Y-80370000D03*
D30*
X136280000Y-84550000D03*
D31*
X136280000Y-80370000D03*
%TD*%
D11*
%TO.P,LED3,1,DO*%
%TO.N,Net-(LED3-DO)*%
X136377500Y-119530000D03*
%TO.P,LED3,2,GND*%
%TO.N,GND*%
X136377500Y-120630000D03*
%TO.P,LED3,3,DI*%
%TO.N,Net-(LED3-DI)*%
X138217500Y-120630000D03*
%TO.P,LED3,4,VDD*%
%TO.N,VBUS*%
X138217500Y-119530000D03*
%TD*%
D13*
%TO.P,J2,1,Pin_1*%
%TO.N,SWCLK*%
X138060000Y-128270000D03*
D14*
%TO.P,J2,2,Pin_2*%
%TO.N,GND*%
X140600000Y-128270000D03*
%TO.P,J2,3,Pin_3*%
%TO.N,SWD*%
X143140000Y-128270000D03*
%TD*%
D12*
%TO.P,C3,1*%
%TO.N,+3V3*%
X140470000Y-101570000D03*
%TO.P,C3,2*%
%TO.N,GND*%
X140470000Y-100610000D03*
%TD*%
D32*
%TO.P,SW1,1,1*%
%TO.N,GND*%
X135380000Y-95280000D03*
%TO.P,SW1,2,2*%
%TO.N,Net-(R6-Pad1)*%
X135380000Y-99480000D03*
%TD*%
D33*
%TO.N,*%
X136930000Y-98135175D03*
%TO.N,GND*%
X141350000Y-110963500D03*
X135709999Y-98109999D03*
X137030000Y-113597500D03*
X141320781Y-114711319D03*
X133714526Y-105699855D03*
X135130126Y-107224716D03*
X135419785Y-112639787D03*
X143580000Y-111700000D03*
X140482965Y-100624897D03*
X135140000Y-113930000D03*
X136170000Y-96090000D03*
X146479000Y-107870000D03*
X147755717Y-109457731D03*
X137017100Y-117210000D03*
X146170000Y-100420000D03*
X136205123Y-114557556D03*
X142370000Y-113582500D03*
X141295655Y-106737190D03*
X138372500Y-96055000D03*
X143402877Y-112910366D03*
%TO.N,+3V3*%
X134321000Y-108364085D03*
X135413493Y-106429569D03*
X144530000Y-114630000D03*
X140680000Y-111436792D03*
X140480000Y-101570000D03*
X141780000Y-97890000D03*
X136584457Y-101517602D03*
X143227389Y-103206195D03*
X138379998Y-107143001D03*
X139700000Y-115769000D03*
X143580000Y-97980000D03*
%TO.N,VBUS*%
X142809337Y-83470161D03*
X136995735Y-118264265D03*
X135674277Y-115686987D03*
%TO.N,+1V1*%
X146298857Y-110656362D03*
X142780000Y-111619932D03*
X146818750Y-103364353D03*
X142460519Y-101767911D03*
X145849324Y-112555210D03*
X143120000Y-99692705D03*
X140194622Y-103626831D03*
X146220000Y-99530000D03*
%TO.N,XOUT*%
X139411136Y-110700376D03*
X140636461Y-108687941D03*
%TO.N,GPIO14*%
X138654485Y-108241137D03*
%TO.N,GPIO0*%
X139396932Y-103687617D03*
%TO.N,GPIO4*%
X136122875Y-104578460D03*
%TO.N,GPIO2*%
X138332008Y-104796340D03*
%TO.N,GPIO1*%
X138704789Y-104088500D03*
%TO.N,GPIO8*%
X137969211Y-107829087D03*
%TO.N,GPIO5*%
X138290000Y-106290000D03*
%TO.N,GPIO12*%
X136928086Y-109519691D03*
%TO.N,GPIO9*%
X136119504Y-108610896D03*
%TO.N,GPIO7*%
X133930126Y-107411125D03*
%TO.N,GPIO15*%
X139451805Y-108306597D03*
%TO.N,GPIO10*%
X137977775Y-108689339D03*
%TO.N,GPIO6*%
X134914526Y-105785980D03*
%TO.N,GPIO3*%
X137979660Y-105514115D03*
%TO.N,GPIO13*%
X137308756Y-110223320D03*
%TO.N,GPIO11*%
X136050000Y-110082830D03*
%TO.N,SWD*%
X141984634Y-108744803D03*
%TO.N,SWCLK*%
X141328485Y-108287121D03*
%TO.N,GPIO26_ADC0*%
X145907723Y-104840000D03*
%TO.N,GPIO21*%
X142980000Y-108043111D03*
%TO.N,GPIO28_ADC2*%
X144832637Y-104195154D03*
%TO.N,GPIO24*%
X142579993Y-105160884D03*
%TO.N,GPIO20*%
X145637494Y-108870000D03*
%TO.N,GPIO23*%
X142583950Y-105960877D03*
%TO.N,GPIO18*%
X145281303Y-110070972D03*
%TO.N,GPIO29_ADC3*%
X142457105Y-103672885D03*
%TO.N,GPIO27_ADC1*%
X142827963Y-104400283D03*
%TO.N,GPIO16*%
X144775047Y-111366744D03*
%TO.N,GPIO22*%
X142597923Y-106760758D03*
%TO.N,GPIO17*%
X143658362Y-110089000D03*
%TO.N,GPIO19*%
X144842211Y-108955955D03*
X146775047Y-111425192D03*
X144042025Y-109387500D03*
%TO.N,USB_D-*%
X140392727Y-99830000D03*
X140610000Y-87141000D03*
%TO.N,Net-(J4-CC1)*%
X141886334Y-86579890D03*
X143230416Y-87155643D03*
%TO.N,Net-(J4-CC2)*%
X143614378Y-88505738D03*
X139662404Y-87096411D03*
%TO.N,Net-(LED3-DI)*%
X148365825Y-106487396D03*
X146190110Y-106440000D03*
%TO.N,Net-(LED3-DO)*%
X137800000Y-123950000D03*
X135795735Y-118462092D03*
%TO.N,Net-(U1-USB_DP)*%
X140848678Y-104087498D03*
X138963790Y-88504749D03*
%TO.N,Net-(U1-USB_DM)*%
X141120000Y-99215235D03*
X141648681Y-104087498D03*
%TD*%
D34*
%TO.N,*%
X135408000Y-96393786D02*
X136930000Y-97915786D01*
X135408000Y-96180000D02*
X135408000Y-96393786D01*
X136930000Y-97915786D02*
X136930000Y-98135175D01*
%TO.N,GND*%
X133631371Y-97750000D02*
X133911370Y-98030000D01*
X133150433Y-114510433D02*
X133740000Y-115100000D01*
X142312500Y-100610000D02*
X142320000Y-100617500D01*
X140876472Y-114836472D02*
X141195628Y-114836472D01*
X135649998Y-98170000D02*
X135709999Y-98109999D01*
X135130126Y-107224716D02*
X135244716Y-107224716D01*
X143752511Y-113260000D02*
X143402877Y-112910366D01*
X140570468Y-89139000D02*
X139531968Y-90177500D01*
X140217500Y-123120000D02*
X139567500Y-123120000D01*
X133310000Y-103467728D02*
X133310000Y-103795686D01*
X139699413Y-108907518D02*
X140051805Y-108555126D01*
X138087500Y-112540000D02*
X137030000Y-113597500D01*
X147879000Y-111851063D02*
X146470063Y-113260000D01*
X140470000Y-100610000D02*
X140470000Y-100611932D01*
X137927100Y-118120000D02*
X137017100Y-117210000D01*
X134690000Y-98030000D02*
X134830000Y-98170000D01*
X147879000Y-109581014D02*
X147879000Y-111851063D01*
X146120000Y-100470000D02*
X146170000Y-100420000D01*
X143872500Y-100650000D02*
X144230000Y-101007500D01*
X133911370Y-98030000D02*
X134690000Y-98030000D01*
X146080000Y-107567500D02*
X146176500Y-107567500D01*
X146102500Y-100967500D02*
X145170000Y-101900000D01*
X133714526Y-104200212D02*
X133714526Y-105699855D01*
X142747500Y-121267500D02*
X143140000Y-121660000D01*
X139567500Y-120747100D02*
X140318500Y-121498100D01*
X139565000Y-118120000D02*
X137927100Y-118120000D01*
X136377500Y-120630000D02*
X137028500Y-121281000D01*
X141376000Y-89139000D02*
X140570468Y-89139000D01*
X133150433Y-113489567D02*
X133150433Y-114510433D01*
X142747500Y-120650000D02*
X142747500Y-121267500D01*
X135250000Y-102707500D02*
X135250000Y-101324064D01*
X135440000Y-107420000D02*
X134989000Y-107871000D01*
X146176500Y-107567500D02*
X146479000Y-107870000D01*
X142320000Y-113607500D02*
X142320000Y-113712100D01*
X139480000Y-109625000D02*
X139480000Y-109089905D01*
X138906500Y-121281000D02*
X139567500Y-120620000D01*
X134989000Y-112209002D02*
X135419785Y-112639787D01*
X146470063Y-113260000D02*
X143752511Y-113260000D01*
X139531968Y-90177500D02*
X139077500Y-90177500D01*
X142550000Y-87965000D02*
X141376000Y-89139000D01*
X133310000Y-103795686D02*
X133714526Y-104200212D01*
X140051805Y-106283980D02*
X140299080Y-106036705D01*
X144230000Y-101007500D02*
X145170000Y-101947500D01*
X135140000Y-113930000D02*
X135577567Y-113930000D01*
X142550000Y-88289890D02*
X143770110Y-89510000D01*
X141530000Y-111080000D02*
X141466500Y-111080000D01*
X145170000Y-101947500D02*
X145170000Y-102347500D01*
X134070228Y-102707500D02*
X133310000Y-103467728D01*
X139480000Y-109089905D02*
X139662387Y-108907518D01*
X135850000Y-96090000D02*
X135810000Y-96130000D01*
X140318500Y-121498100D02*
X140318500Y-123019000D01*
X143770110Y-89510000D02*
X144100000Y-89510000D01*
X140051805Y-108555126D02*
X140051805Y-106283980D01*
X147755717Y-109457731D02*
X147879000Y-109581014D01*
X146340000Y-89750000D02*
X146420000Y-89670000D01*
X140470000Y-100610000D02*
X142312500Y-100610000D01*
X142320000Y-113712100D02*
X141320781Y-114711319D01*
X132620000Y-97180000D02*
X132771371Y-97180000D01*
X142320000Y-113607500D02*
X142345000Y-113607500D01*
X133150433Y-112110433D02*
X133150433Y-113489567D01*
X140470000Y-100611932D02*
X140482965Y-100624897D01*
X145170000Y-101900000D02*
X145170000Y-102347500D01*
X142550000Y-87965000D02*
X142550000Y-88289890D01*
X141466500Y-111080000D02*
X141350000Y-110963500D01*
X134830000Y-98170000D02*
X135649998Y-98170000D01*
X132771371Y-97180000D02*
X133341371Y-97750000D01*
X136170000Y-96090000D02*
X135850000Y-96090000D01*
X135577567Y-113930000D02*
X136205123Y-114557556D01*
X146340000Y-91150000D02*
X146340000Y-89750000D01*
X131770000Y-110730000D02*
X133150433Y-112110433D01*
X138580000Y-112540000D02*
X138087500Y-112540000D01*
X139567500Y-120620000D02*
X139567500Y-120747100D01*
X135250000Y-102707500D02*
X134070228Y-102707500D01*
X142345000Y-113607500D02*
X142370000Y-113582500D01*
X139662387Y-108907518D02*
X139699413Y-108907518D01*
X135250000Y-101324064D02*
X133300000Y-99374064D01*
X133300000Y-99374064D02*
X133300000Y-98550000D01*
X137028500Y-121281000D02*
X138906500Y-121281000D01*
X135244716Y-107224716D02*
X135440000Y-107420000D01*
X141195628Y-114836472D02*
X141320781Y-114711319D01*
X131770000Y-123430000D02*
X132570000Y-124230000D01*
X146120000Y-100967500D02*
X146120000Y-100470000D01*
X143270000Y-100650000D02*
X143872500Y-100650000D01*
X140318500Y-123019000D02*
X140217500Y-123120000D01*
X131770000Y-98030000D02*
X132620000Y-97180000D01*
X134989000Y-107871000D02*
X134989000Y-112209002D01*
X133341371Y-97750000D02*
X133631371Y-97750000D01*
X146120000Y-100967500D02*
X146102500Y-100967500D01*
X138580000Y-112540000D02*
X140876472Y-114836472D01*
%TO.N,+3V3*%
X136210000Y-102707500D02*
X136210000Y-102755000D01*
X139639000Y-115830000D02*
X137757850Y-115830000D01*
X135519452Y-114721560D02*
X135519452Y-114719888D01*
X147080000Y-108118943D02*
X147080000Y-107621057D01*
X139700000Y-115769000D02*
X139639000Y-115830000D01*
X136210000Y-102755000D02*
X137042500Y-103587500D01*
X146359999Y-92245000D02*
X145547500Y-92245000D01*
X133712414Y-103631000D02*
X134013414Y-103330000D01*
X144588500Y-102928500D02*
X144588500Y-103289000D01*
X138421000Y-91080000D02*
X138421000Y-90791000D01*
X141640000Y-89515000D02*
X140977500Y-90177500D01*
X138379998Y-107145475D02*
X138379998Y-107143001D01*
X145547500Y-92245000D02*
X145547500Y-91317500D01*
X144570000Y-103307500D02*
X144197500Y-103307500D01*
X145547500Y-91317500D02*
X145380000Y-91150000D01*
X133970000Y-110971370D02*
X133321000Y-110322371D01*
X144185000Y-91150000D02*
X142550000Y-89515000D01*
X146727943Y-108471000D02*
X147080000Y-108118943D01*
X146254315Y-89270000D02*
X148290000Y-89270000D01*
X134000000Y-113128628D02*
X133970000Y-113098628D01*
X136210000Y-101660000D02*
X136423180Y-101446820D01*
X138557000Y-91216000D02*
X138421000Y-91080000D01*
X142680000Y-102750000D02*
X143270000Y-102160000D01*
X134430000Y-113630436D02*
X134000000Y-113200436D01*
X134314526Y-106378976D02*
X134314526Y-104233112D01*
X136769529Y-114841679D02*
X136453652Y-115157556D01*
X143917500Y-103587500D02*
X143536195Y-103206195D01*
X133918613Y-106661723D02*
X134031779Y-106661723D01*
X140570000Y-110500000D02*
X140476774Y-110406774D01*
X136575707Y-101508852D02*
X136584457Y-101517602D01*
X146795897Y-104623398D02*
X145479999Y-103307500D01*
X134314526Y-104233112D02*
X133712414Y-103631000D01*
X145889832Y-108181752D02*
X146179080Y-108471000D01*
X146179080Y-108471000D02*
X146727943Y-108471000D01*
X146547118Y-102764353D02*
X147213487Y-102764353D01*
X141390000Y-101570000D02*
X141390000Y-101904726D01*
X145380000Y-91150000D02*
X145380000Y-90144315D01*
X135950406Y-115152514D02*
X135519452Y-114721560D01*
X140680000Y-110160274D02*
X140680000Y-109625000D01*
X140476774Y-110406774D02*
X140476774Y-110363500D01*
X134013414Y-103330000D02*
X136210000Y-103330000D01*
X147213487Y-102764353D02*
X147661000Y-102316840D01*
X141390000Y-101904726D02*
X141079000Y-102215726D01*
X138421000Y-90791000D02*
X137800000Y-90170000D01*
X147661000Y-98831100D02*
X147661000Y-93546001D01*
X134430000Y-114068529D02*
X134430000Y-113630436D01*
X146795897Y-107336954D02*
X146795897Y-104623398D01*
X145380000Y-90144315D02*
X146254315Y-89270000D01*
X133745807Y-106661723D02*
X134029253Y-106661723D01*
X139939000Y-91216000D02*
X138557000Y-91216000D01*
X136210000Y-103330000D02*
X136210000Y-102707500D01*
X135519452Y-114719888D02*
X135329564Y-114530000D01*
X143536195Y-103206195D02*
X143227389Y-103206195D01*
X134031779Y-106661723D02*
X134314526Y-106378976D01*
X134530126Y-107162596D02*
X134530126Y-107764188D01*
X145734252Y-108181752D02*
X145889832Y-108181752D01*
X140470000Y-102004726D02*
X140681000Y-102215726D01*
X144457500Y-107187500D02*
X143917500Y-107187500D01*
X135395562Y-106411638D02*
X135413493Y-106429569D01*
X137757850Y-115830000D02*
X136769529Y-114841679D01*
X142680000Y-102750000D02*
X143080000Y-102750000D01*
X133321000Y-110322371D02*
X133321000Y-107086530D01*
X143270000Y-102160000D02*
X143270000Y-101610000D01*
X147080000Y-107621057D02*
X146795897Y-107336954D01*
X134031779Y-106661723D02*
X134281864Y-106411638D01*
X145090000Y-107188500D02*
X145090000Y-107480000D01*
X135951552Y-115152514D02*
X135950406Y-115152514D01*
X147730000Y-100059899D02*
X147730000Y-98900100D01*
X140977500Y-90177500D02*
X139939000Y-91216000D01*
X144230000Y-101967500D02*
X144230000Y-102570000D01*
X144588500Y-103289000D02*
X144570000Y-103307500D01*
X145380000Y-91150000D02*
X144185000Y-91150000D01*
X147730000Y-98900100D02*
X147661000Y-98831100D01*
X140616793Y-111436792D02*
X140680000Y-111436792D01*
X133970000Y-113098628D02*
X133970000Y-110971370D01*
X141780000Y-97890000D02*
X143490000Y-97890000D01*
X135956594Y-115157556D02*
X135951552Y-115152514D01*
X134321000Y-107973314D02*
X134321000Y-108364085D01*
X135329564Y-114530000D02*
X134891471Y-114530000D01*
X140680000Y-102750000D02*
X140680000Y-102216726D01*
X140680000Y-111070000D02*
X140690000Y-111080000D01*
X136555706Y-101508852D02*
X136575707Y-101508852D01*
X142550000Y-89515000D02*
X141640000Y-89515000D01*
X143872500Y-101610000D02*
X144230000Y-101967500D01*
X143270000Y-101610000D02*
X143872500Y-101610000D01*
X136423180Y-101446820D02*
X136493674Y-101446820D01*
X136453652Y-115157556D02*
X135956594Y-115157556D01*
X134029253Y-106661723D02*
X134530126Y-107162596D01*
X141080000Y-102216726D02*
X141079000Y-102215726D01*
X134000000Y-113200436D02*
X134000000Y-113128628D01*
X147661000Y-102316840D02*
X147661000Y-100128899D01*
X140680000Y-102216726D02*
X140681000Y-102215726D01*
X136493674Y-101446820D02*
X136555706Y-101508852D01*
X145170000Y-103307500D02*
X144570000Y-103307500D01*
X140680000Y-102750000D02*
X141080000Y-102750000D01*
X138338973Y-107186500D02*
X138379998Y-107145475D01*
X144457500Y-107187500D02*
X144458500Y-107188500D01*
X145120000Y-107567500D02*
X145734252Y-108181752D01*
X140470000Y-101570000D02*
X140470000Y-102004726D01*
X140680000Y-110817500D02*
X140740000Y-110877500D01*
X146003971Y-103307500D02*
X146547118Y-102764353D01*
X147661000Y-93546001D02*
X146359999Y-92245000D01*
X148290000Y-89270000D02*
X149430000Y-90410000D01*
X134281864Y-106411638D02*
X135395562Y-106411638D01*
X144458500Y-107188500D02*
X145090000Y-107188500D01*
X140470000Y-101570000D02*
X140480000Y-101570000D01*
X145479999Y-103307500D02*
X145170000Y-103307500D01*
X144230000Y-102570000D02*
X144588500Y-102928500D01*
X140476774Y-110363500D02*
X140680000Y-110160274D01*
X140570000Y-111080000D02*
X140570000Y-111389999D01*
X140570000Y-111389999D02*
X140616793Y-111436792D01*
X147661000Y-100128899D02*
X147730000Y-100059899D01*
X145090000Y-107480000D02*
X145110000Y-107500000D01*
X145170000Y-103307500D02*
X146003971Y-103307500D01*
X136210000Y-102707500D02*
X136210000Y-101660000D01*
X133321000Y-107086530D02*
X133745807Y-106661723D01*
X140570000Y-111080000D02*
X140570000Y-110500000D01*
X137501467Y-107186500D02*
X138338973Y-107186500D01*
X134530126Y-107764188D02*
X134321000Y-107973314D01*
X143490000Y-97890000D02*
X143580000Y-97980000D01*
X134891471Y-114530000D02*
X134430000Y-114068529D01*
X141080000Y-102750000D02*
X141080000Y-102216726D01*
X144197500Y-103307500D02*
X143917500Y-103587500D01*
%TO.N,VBUS*%
X141707000Y-117020000D02*
X142660000Y-117973000D01*
X136330000Y-98408529D02*
X135978529Y-98760000D01*
X134715153Y-114919368D02*
X134725786Y-114930000D01*
X140027500Y-88302500D02*
X139578445Y-87853445D01*
X133600000Y-113294314D02*
X133600000Y-113480000D01*
X141105500Y-119520000D02*
X140656500Y-119969000D01*
X138394532Y-89481000D02*
X137548660Y-89481000D01*
X135692594Y-115647186D02*
X135686589Y-115653191D01*
X142226000Y-87214000D02*
X143050000Y-86390000D01*
X132910000Y-103961372D02*
X132921000Y-103972371D01*
X133570000Y-113264314D02*
X133600000Y-113294314D01*
X140654000Y-117469000D02*
X142156000Y-117469000D01*
X140088900Y-118869000D02*
X140654000Y-118303900D01*
X137760000Y-118520000D02*
X137251470Y-118520000D01*
X135632843Y-97184314D02*
X136330000Y-97881471D01*
X142156000Y-118771500D02*
X141407500Y-119520000D01*
X135978529Y-98760000D02*
X134075685Y-98760000D01*
X138150000Y-86930000D02*
X138150000Y-85465000D01*
X134050000Y-101255685D02*
X134050000Y-102158628D01*
X138217500Y-118977500D02*
X137760000Y-118520000D01*
X141407500Y-119520000D02*
X141105500Y-119520000D01*
X135686589Y-115653191D02*
X135686589Y-115671996D01*
X134030000Y-114294215D02*
X134615786Y-114880000D01*
X140656500Y-121269000D02*
X141407500Y-122020000D01*
X133600000Y-113480000D02*
X134030000Y-113910000D01*
X138700000Y-87480000D02*
X138150000Y-86930000D01*
X137251470Y-118520000D02*
X136995735Y-118264265D01*
X142809337Y-83470161D02*
X142809337Y-85224337D01*
X132910000Y-103298629D02*
X132910000Y-103961372D01*
X142660000Y-118870000D02*
X143907500Y-118870000D01*
X140027500Y-88302500D02*
X139210000Y-89120000D01*
X132870000Y-100075685D02*
X134050000Y-101255685D01*
X134050000Y-92979660D02*
X134050000Y-97184314D01*
X133570000Y-111138470D02*
X133570000Y-113264314D01*
X142057500Y-118870000D02*
X142660000Y-118870000D01*
X142075890Y-87214000D02*
X142226000Y-87214000D01*
X138217500Y-119530000D02*
X138878500Y-118869000D01*
X133465685Y-98150000D02*
X133134315Y-98150000D01*
X142156000Y-117469000D02*
X142156000Y-118771500D01*
X134615786Y-114880000D02*
X134645633Y-114880000D01*
X134725786Y-114930000D02*
X135050000Y-114930000D01*
X143907500Y-118870000D02*
X144587500Y-119550000D01*
X138217500Y-119530000D02*
X138217500Y-118977500D01*
X142809337Y-85224337D02*
X143050000Y-85465000D01*
X139210000Y-89120000D02*
X138755532Y-89120000D01*
X140654000Y-118303900D02*
X140654000Y-117469000D01*
X134645633Y-114880000D02*
X134655155Y-114889521D01*
X134030000Y-113910000D02*
X134030000Y-114294215D01*
X141407500Y-119520000D02*
X142057500Y-118870000D01*
X132921000Y-110489470D02*
X133570000Y-111138470D01*
X137548660Y-89481000D02*
X134050000Y-92979660D01*
X135675024Y-115686240D02*
X135674277Y-115686987D01*
X138755532Y-89120000D02*
X138394532Y-89481000D01*
X135050000Y-114930000D02*
X135692594Y-115572594D01*
X143050000Y-86390000D02*
X143050000Y-85465000D01*
X139578445Y-87853445D02*
X139073445Y-87853445D01*
X134655155Y-114889521D02*
X134675145Y-114889521D01*
X134704993Y-114919368D02*
X134715153Y-114919368D01*
X134050000Y-97184314D02*
X135632843Y-97184314D01*
X134050000Y-102158628D02*
X132910000Y-103298629D01*
X136330000Y-97881471D02*
X136330000Y-98408529D01*
X142660000Y-117973000D02*
X142660000Y-118870000D01*
X139073445Y-87853445D02*
X138700000Y-87480000D01*
X133134315Y-98150000D02*
X132870000Y-98414315D01*
X132870000Y-98414315D02*
X132870000Y-100075685D01*
X141405000Y-117020000D02*
X141707000Y-117020000D01*
X135675024Y-115683561D02*
X135675024Y-115686240D01*
X138878500Y-118869000D02*
X140088900Y-118869000D01*
X140027500Y-88302500D02*
X140987390Y-88302500D01*
X134675145Y-114889521D02*
X134704993Y-114919368D01*
X140987390Y-88302500D02*
X142075890Y-87214000D01*
X134075685Y-98760000D02*
X133465685Y-98150000D01*
X135692594Y-115572594D02*
X135692594Y-115647186D01*
X135686589Y-115671996D02*
X135675024Y-115683561D01*
X140656500Y-119969000D02*
X140656500Y-121269000D01*
X132921000Y-103972371D02*
X132921000Y-110489470D01*
%TO.N,+1V1*%
X146298857Y-109465771D02*
X146298857Y-110656362D01*
X140280000Y-103541453D02*
X140194622Y-103626831D01*
X147195897Y-105380519D02*
X147195897Y-107171269D01*
X143230366Y-112310366D02*
X143728895Y-112310366D01*
X145160000Y-100657501D02*
X144195182Y-99692683D01*
X141283226Y-110363500D02*
X141751050Y-110363500D01*
X147373313Y-103918916D02*
X147373313Y-105203103D01*
X145160000Y-100967500D02*
X145160000Y-100581471D01*
X141080000Y-109625000D02*
X141080000Y-110160274D01*
X147195897Y-107171269D02*
X147480000Y-107455372D01*
X147480000Y-107455372D02*
X147480000Y-108284629D01*
X142700068Y-111619932D02*
X142780000Y-111619932D01*
X142780000Y-111392450D02*
X142780000Y-111619932D01*
X145160000Y-100581471D02*
X146211471Y-99530000D01*
X145160000Y-100967500D02*
X145160000Y-100657501D01*
X147480000Y-108284629D02*
X146298857Y-109465771D01*
X143973294Y-112554765D02*
X145848879Y-112554765D01*
X146211471Y-99530000D02*
X146220000Y-99530000D01*
X142280000Y-101948430D02*
X142460519Y-101767911D01*
X143120022Y-99692683D02*
X143120000Y-99692705D01*
X140280000Y-102750000D02*
X140280000Y-103541453D01*
X142620000Y-111700000D02*
X143230366Y-112310366D01*
X144195182Y-99692683D02*
X143120022Y-99692683D01*
X141080000Y-110160274D02*
X141283226Y-110363500D01*
X146818750Y-103364353D02*
X147373313Y-103918916D01*
X142620000Y-111700000D02*
X142700068Y-111619932D01*
X141751050Y-110363500D02*
X142780000Y-111392450D01*
X142280000Y-102750000D02*
X142280000Y-101948430D01*
X145848879Y-112554765D02*
X145849324Y-112555210D01*
X147373313Y-105203103D02*
X147195897Y-105380519D01*
X143728895Y-112310366D02*
X143973294Y-112554765D01*
%TO.N,XIN*%
X137894840Y-111639000D02*
X139638840Y-111639000D01*
X137030000Y-112637500D02*
X137030000Y-112503840D01*
X139880000Y-110241950D02*
X140031000Y-110392950D01*
X140031000Y-111246840D02*
X139747840Y-111530000D01*
X137030000Y-112503840D02*
X137894840Y-111639000D01*
X139747840Y-112207840D02*
X140080000Y-112540000D01*
X140031000Y-110392950D02*
X140031000Y-111246840D01*
X139638840Y-111639000D02*
X139747840Y-111530000D01*
X139747840Y-111530000D02*
X139747840Y-112207840D01*
X139880000Y-109625000D02*
X139880000Y-110241950D01*
X140080000Y-112540000D02*
X140780000Y-112540000D01*
%TO.N,XOUT*%
X139460000Y-110749240D02*
X139411136Y-110700376D01*
X139460000Y-110877500D02*
X139460000Y-110749240D01*
X140280000Y-109044402D02*
X140636461Y-108687941D01*
X140280000Y-109625000D02*
X140280000Y-109044402D01*
%TO.N,GPIO14*%
X138622181Y-108214384D02*
X138621325Y-108215240D01*
X138617101Y-108210786D02*
X138617101Y-108208666D01*
X138657268Y-108239825D02*
X138656343Y-108239825D01*
X138599464Y-108194962D02*
X138594468Y-108194962D01*
X138619354Y-108212241D02*
X138618673Y-108212922D01*
X138585380Y-108190876D02*
X138585380Y-108190481D01*
X138620016Y-108212922D02*
X138618673Y-108212922D01*
X138654840Y-108240782D02*
X138654485Y-108241137D01*
X138622165Y-108215477D02*
X138622165Y-108214959D01*
X138621649Y-108215491D02*
X138621944Y-108215491D01*
X138622264Y-108215271D02*
X138622018Y-108215517D01*
X138622181Y-108214384D02*
X138621325Y-108215240D01*
X138620201Y-108213692D02*
X138620727Y-108213166D01*
X138591713Y-108176903D02*
X138591713Y-108176348D01*
X138610443Y-108208327D02*
X138610277Y-108208327D01*
X138622245Y-108215402D02*
X138621822Y-108215402D01*
X138742799Y-108336587D02*
X138620404Y-108214192D01*
X138656153Y-108239093D02*
X138656958Y-108239898D01*
X138622194Y-108215367D02*
X138622194Y-108214792D01*
X138608314Y-108201928D02*
X138610178Y-108200064D01*
X138621995Y-108215499D02*
X138622234Y-108215260D01*
X138618048Y-108211686D02*
X138618872Y-108210862D01*
X138616822Y-108209893D02*
X138614612Y-108209893D01*
X138622075Y-108215396D02*
X138622134Y-108215337D01*
X138622220Y-108215422D02*
X138621751Y-108215422D01*
X138615977Y-108216709D02*
X138623833Y-108216709D01*
X138622715Y-108215630D02*
X138622016Y-108215630D01*
X138601159Y-108215517D02*
X138614228Y-108202448D01*
X138621042Y-108214459D02*
X138621042Y-108213554D01*
X138657268Y-108239825D02*
X138657341Y-108239898D01*
X138621892Y-108215232D02*
X138622165Y-108214959D01*
X138595003Y-108187010D02*
X138595003Y-108181253D01*
X138617101Y-108210786D02*
X138618048Y-108209839D01*
X138620563Y-108212962D02*
X138620563Y-108212123D01*
X138621892Y-108215232D02*
X138621892Y-108214617D01*
X138620580Y-108213507D02*
X138619431Y-108213507D01*
X138620404Y-108209938D02*
X138620404Y-108214192D01*
X138614564Y-108209845D02*
X138613123Y-108209845D01*
X138622194Y-108215367D02*
X138622336Y-108215509D01*
X138614564Y-108209845D02*
X138614612Y-108209893D01*
X138656958Y-108239898D02*
X138657341Y-108239898D01*
X138622274Y-108215372D02*
X138622016Y-108215630D01*
X138604065Y-108197462D02*
X138604065Y-108192519D01*
X138581575Y-108181621D02*
X138579600Y-108183596D01*
X138619327Y-108209852D02*
X138617310Y-108211869D01*
X138621995Y-108215499D02*
X138622396Y-108215499D01*
X138620893Y-108214395D02*
X138622134Y-108215636D01*
X138615977Y-108216709D02*
X138620563Y-108212123D01*
X138653443Y-108237259D02*
X138655277Y-108239093D01*
X138618048Y-108211686D02*
X138618048Y-108209839D01*
X138617927Y-108210798D02*
X138615917Y-108210798D01*
X138620016Y-108212922D02*
X138619431Y-108213507D01*
X138614795Y-108208551D02*
X138614795Y-108205805D01*
X138594330Y-108194824D02*
X138591314Y-108194824D01*
X138613417Y-108207183D02*
X138614795Y-108205805D01*
X138620009Y-108211491D02*
X138620009Y-108210731D01*
X138590286Y-108181380D02*
X138590286Y-108175477D01*
X138616822Y-108209893D02*
X138614612Y-108209893D01*
X138619327Y-108209852D02*
X138617310Y-108211869D01*
X138619586Y-108213124D02*
X138619586Y-108211746D01*
X138622094Y-108215111D02*
X138621833Y-108215372D01*
X138621176Y-108214585D02*
X138621176Y-108213726D01*
X138620173Y-108213084D02*
X138618884Y-108213084D01*
X138620893Y-108214395D02*
X138620893Y-108210607D01*
X138621058Y-108214009D02*
X138620078Y-108214009D01*
X138622715Y-108215630D02*
X138622818Y-108215733D01*
X138618581Y-108211452D02*
X138616770Y-108211452D01*
X138620712Y-108213647D02*
X138620231Y-108214128D01*
X138619671Y-108214128D02*
X138620648Y-108213151D01*
X138610178Y-108203881D02*
X138610178Y-108200064D01*
X138624004Y-108216112D02*
X138623637Y-108216479D01*
X138547770Y-108220291D02*
X138591713Y-108176348D01*
X138621785Y-108215135D02*
X138621785Y-108214484D01*
X138621443Y-108214826D02*
X138621443Y-108214058D01*
X138619103Y-108213254D02*
X138619730Y-108212627D01*
X138657268Y-108239825D02*
X138657341Y-108239898D01*
X138621803Y-108215383D02*
X138621483Y-108215383D01*
X138621688Y-108215260D02*
X138622234Y-108215260D01*
X138597491Y-108199093D02*
X138597491Y-108196935D01*
X138621569Y-108214940D02*
X138621892Y-108214617D01*
X138656153Y-108239093D02*
X138656958Y-108239898D01*
X138620563Y-108212962D02*
X138620563Y-108212123D01*
X138621324Y-108214978D02*
X138621970Y-108214978D01*
X138612528Y-108209250D02*
X138611366Y-108209250D01*
X138579600Y-108186163D02*
X138590286Y-108175477D01*
X138619671Y-108214128D02*
X138620231Y-108214128D01*
X138621806Y-108214801D02*
X138621099Y-108214801D01*
X138547770Y-108220291D02*
X138628765Y-108220291D01*
X138620648Y-108214278D02*
X138620648Y-108213151D01*
X138619327Y-108209852D02*
X138619327Y-108211015D01*
X138621962Y-108215509D02*
X138621944Y-108215491D01*
X138623701Y-108215733D02*
X138622818Y-108215733D01*
X138620404Y-108209938D02*
X138620404Y-108214192D01*
X138610443Y-108208327D02*
X138611366Y-108209250D01*
X138621803Y-108215383D02*
X138621822Y-108215402D01*
X138621042Y-108214459D02*
X138621042Y-108213554D01*
X138621324Y-108214978D02*
X138621658Y-108214644D01*
X138606295Y-108199765D02*
X138608314Y-108197746D01*
X138618794Y-108211672D02*
X138618036Y-108212430D01*
X138624063Y-108216479D02*
X138623833Y-108216709D01*
X138618794Y-108211672D02*
X138617053Y-108211672D01*
X138680000Y-109625000D02*
X138680000Y-108273788D01*
X138616020Y-108209747D02*
X138617101Y-108208666D01*
X138620016Y-108212922D02*
X138619431Y-108213507D01*
X138591713Y-108176903D02*
X138581575Y-108187041D01*
X138619586Y-108213124D02*
X138620201Y-108212509D01*
X138620896Y-108214644D02*
X138621658Y-108214644D01*
X138622075Y-108215396D02*
X138622075Y-108214845D01*
X138621558Y-108214932D02*
X138621558Y-108214203D01*
X138680000Y-108273788D02*
X138620404Y-108214192D01*
X138621892Y-108215232D02*
X138622165Y-108214959D01*
X138655386Y-108240782D02*
X138654840Y-108240782D01*
X138613417Y-108207183D02*
X138613417Y-108204092D01*
X138611880Y-108205629D02*
X138611880Y-108202179D01*
X138622715Y-108215630D02*
X138622016Y-108215630D01*
X138619586Y-108213124D02*
X138620201Y-108212509D01*
X138620712Y-108213647D02*
X138620231Y-108214128D01*
X138620648Y-108214278D02*
X138621189Y-108213737D01*
X138616020Y-108209747D02*
X138616020Y-108207326D01*
X138599464Y-108194962D02*
X138597491Y-108196935D01*
X138654840Y-108240782D02*
X138654485Y-108241137D01*
X138622075Y-108215396D02*
X138622075Y-108214845D01*
X138620009Y-108211491D02*
X138620009Y-108210731D01*
X138621883Y-108215225D02*
X138622158Y-108214950D01*
X138622165Y-108215477D02*
X138622165Y-108214959D01*
X138623701Y-108215733D02*
X138623322Y-108216112D01*
X138619798Y-108213792D02*
X138620851Y-108213792D01*
X138622033Y-108215614D02*
X138630757Y-108215614D01*
X138621962Y-108215509D02*
X138622336Y-108215509D01*
X138621042Y-108214459D02*
X138621443Y-108214058D01*
X138608314Y-108201928D02*
X138608314Y-108197746D01*
X138621569Y-108214940D02*
X138621569Y-108214214D01*
X138622261Y-108215693D02*
X138622261Y-108215369D01*
X138611880Y-108205629D02*
X138613417Y-108204092D01*
X138584105Y-108189206D02*
X138585380Y-108190481D01*
X138621558Y-108214932D02*
X138621883Y-108214607D01*
X138619327Y-108209852D02*
X138619327Y-108211015D01*
X138619103Y-108213254D02*
X138619730Y-108212627D01*
X138621340Y-108215240D02*
X138621325Y-108215240D01*
X138621336Y-108215359D02*
X138622199Y-108214496D01*
X138610443Y-108208327D02*
X138610277Y-108208327D01*
X138620391Y-108214252D02*
X138620851Y-108213792D01*
X138618794Y-108211672D02*
X138618036Y-108212430D01*
X138621803Y-108215383D02*
X138621822Y-108215402D01*
X138590071Y-108193581D02*
X138591314Y-108194824D01*
X138621443Y-108214826D02*
X138621443Y-108214058D01*
X138617927Y-108210798D02*
X138617053Y-108211672D01*
X138620201Y-108213692D02*
X138620201Y-108212509D01*
X138657268Y-108239825D02*
X138656343Y-108239825D01*
X138622075Y-108215396D02*
X138622134Y-108215337D01*
X138614795Y-108208551D02*
X138616020Y-108207326D01*
X138621463Y-108214437D02*
X138620630Y-108214437D01*
X138622274Y-108215372D02*
X138621833Y-108215372D01*
X138621189Y-108214594D02*
X138621569Y-108214214D01*
X138620896Y-108214644D02*
X138621288Y-108214252D01*
X138620727Y-108214175D02*
X138620727Y-108213166D01*
X138617101Y-108210786D02*
X138618048Y-108209839D01*
X138621688Y-108215260D02*
X138621970Y-108214978D01*
X138608314Y-108201928D02*
X138610178Y-108200064D01*
X138601159Y-108215517D02*
X138614228Y-108202448D01*
X138620574Y-108214022D02*
X138621042Y-108213554D01*
X138618457Y-108212283D02*
X138620009Y-108210731D01*
X138621042Y-108214459D02*
X138621443Y-108214058D01*
X138621176Y-108214585D02*
X138621558Y-108214203D01*
X138595003Y-108187010D02*
X138588432Y-108193581D01*
X138618872Y-108212460D02*
X138619586Y-108211746D01*
X138581575Y-108181621D02*
X138581575Y-108187041D01*
X138620173Y-108213084D02*
X138618884Y-108213084D01*
X138595003Y-108187010D02*
X138588432Y-108193581D01*
X138620391Y-108214252D02*
X138620851Y-108213792D01*
X138581575Y-108181621D02*
X138579600Y-108183596D01*
X138620173Y-108213084D02*
X138619610Y-108213647D01*
X138621336Y-108215359D02*
X138621517Y-108215359D01*
X138621715Y-108215271D02*
X138622264Y-108215271D01*
X138622158Y-108215472D02*
X138622158Y-108214950D01*
X138618581Y-108211452D02*
X138617792Y-108212241D01*
X138653443Y-108237259D02*
X138655277Y-108239093D01*
X138590071Y-108193581D02*
X138588432Y-108193581D01*
X138620563Y-108212962D02*
X138620574Y-108212951D01*
X138617349Y-108211897D02*
X138618457Y-108210789D01*
X138620404Y-108209938D02*
X138619327Y-108211015D01*
X138618872Y-108212460D02*
X138618872Y-108210862D01*
X138621569Y-108214940D02*
X138621892Y-108214617D01*
X138621995Y-108215499D02*
X138622396Y-108215499D01*
X138606295Y-108199765D02*
X138606295Y-108195232D01*
X138547770Y-108220291D02*
X138628765Y-108220291D01*
X138622134Y-108215337D02*
X138622134Y-108215636D01*
X138621806Y-108214801D02*
X138621099Y-108214801D01*
X138619354Y-108212241D02*
X138618673Y-108212922D01*
X138614564Y-108209845D02*
X138613123Y-108209845D01*
X138622181Y-108214384D02*
X138622181Y-108215613D01*
X138617101Y-108210786D02*
X138617101Y-108208666D01*
X138590286Y-108181380D02*
X138582460Y-108189206D01*
X138620893Y-108214395D02*
X138620893Y-108210607D01*
X138613417Y-108207183D02*
X138613417Y-108204092D01*
X138655386Y-108240782D02*
X138656343Y-108239825D01*
X138597491Y-108199093D02*
X138597491Y-108196935D01*
X138612528Y-108209250D02*
X138613123Y-108209845D01*
X138620712Y-108213647D02*
X138619610Y-108213647D01*
X138584105Y-108189206D02*
X138582460Y-108189206D01*
X138621688Y-108215260D02*
X138622234Y-108215260D01*
X138620574Y-108214022D02*
X138620574Y-108212951D01*
X138610178Y-108203881D02*
X138610178Y-108200064D01*
X138620009Y-108211491D02*
X138620893Y-108210607D01*
X138621189Y-108214594D02*
X138621189Y-108213737D01*
X138621715Y-108215271D02*
X138622264Y-108215271D01*
X138621176Y-108214585D02*
X138621558Y-108214203D01*
X138621569Y-108214940D02*
X138621569Y-108214214D01*
X138622715Y-108215630D02*
X138622818Y-108215733D01*
X138619354Y-108212241D02*
X138617792Y-108212241D01*
X138618457Y-108212283D02*
X138618457Y-108210789D01*
X138614795Y-108208551D02*
X138614795Y-108205805D01*
X138617927Y-108210798D02*
X138617053Y-108211672D01*
X138618292Y-108212627D02*
X138619022Y-108211897D01*
X138618292Y-108212627D02*
X138619730Y-108212627D01*
X138591713Y-108176903D02*
X138581575Y-108187041D01*
X138621785Y-108215135D02*
X138622075Y-108214845D01*
X138656153Y-108239093D02*
X138655277Y-108239093D01*
X138617310Y-108210912D02*
X138617310Y-108211869D01*
X138621892Y-108215232D02*
X138621892Y-108214617D01*
X138622094Y-108215111D02*
X138621496Y-108215111D01*
X138618048Y-108211686D02*
X138618048Y-108209839D01*
X138624004Y-108216112D02*
X138623322Y-108216112D01*
X138617310Y-108210912D02*
X138616770Y-108211452D01*
X138622158Y-108215472D02*
X138622261Y-108215369D01*
X138622274Y-108215372D02*
X138621833Y-108215372D01*
X138621340Y-108215240D02*
X138621483Y-108215383D01*
X138624004Y-108216112D02*
X138623322Y-108216112D01*
X138621336Y-108215359D02*
X138621517Y-108215359D01*
X138621649Y-108215491D02*
X138621944Y-108215491D01*
X138656958Y-108239898D02*
X138657341Y-108239898D01*
X138622245Y-108215402D02*
X138621822Y-108215402D01*
X138621688Y-108215260D02*
X138621970Y-108214978D01*
X138616020Y-108209747D02*
X138616020Y-108207326D01*
X138617310Y-108210912D02*
X138616770Y-108211452D01*
X138621340Y-108215240D02*
X138621483Y-108215383D01*
X138622094Y-108215111D02*
X138621833Y-108215372D01*
X138619671Y-108214128D02*
X138620648Y-108213151D01*
X138620201Y-108213692D02*
X138620201Y-108212509D01*
X138614795Y-108208551D02*
X138616020Y-108207326D01*
X138614228Y-108204376D02*
X138614228Y-108202448D01*
X138620896Y-108214644D02*
X138621288Y-108214252D01*
X138621324Y-108214978D02*
X138621970Y-108214978D01*
X138622199Y-108215302D02*
X138622199Y-108214496D01*
X138620648Y-108214278D02*
X138620648Y-108213151D01*
X138611880Y-108205629D02*
X138613417Y-108204092D01*
X138621463Y-108214437D02*
X138621099Y-108214801D01*
X138621962Y-108215509D02*
X138622336Y-108215509D01*
X138590286Y-108181380D02*
X138582460Y-108189206D01*
X138618872Y-108212460D02*
X138619586Y-108211746D01*
X138590071Y-108193581D02*
X138588432Y-108193581D01*
X138620896Y-108214644D02*
X138621658Y-108214644D01*
X138610443Y-108208327D02*
X138611366Y-108209250D01*
X138621189Y-108214594D02*
X138621569Y-108214214D01*
X138617349Y-108211897D02*
X138619022Y-108211897D01*
X138620727Y-108214175D02*
X138620727Y-108213166D01*
X138590286Y-108181380D02*
X138590286Y-108175477D01*
X138599464Y-108194962D02*
X138597491Y-108196935D01*
X138595003Y-108187010D02*
X138595003Y-108181253D01*
X138619671Y-108214128D02*
X138620231Y-108214128D01*
X138622220Y-108215422D02*
X138621751Y-108215422D01*
X138620574Y-108214022D02*
X138620574Y-108212951D01*
X138656153Y-108239093D02*
X138655277Y-108239093D01*
X138621785Y-108215135D02*
X138621785Y-108214484D01*
X138622158Y-108215472D02*
X138622261Y-108215369D01*
X138604065Y-108197462D02*
X138606295Y-108195232D01*
X138620201Y-108213692D02*
X138620727Y-108213166D01*
X138621995Y-108215499D02*
X138622234Y-108215260D01*
X138599464Y-108194962D02*
X138594468Y-108194962D01*
X138619538Y-108212430D02*
X138618036Y-108212430D01*
X138619586Y-108213124D02*
X138619586Y-108211746D01*
X138616822Y-108209893D02*
X138615917Y-108210798D01*
X138594330Y-108194824D02*
X138594468Y-108194962D01*
X138613417Y-108207183D02*
X138614795Y-108205805D01*
X138624821Y-108216347D02*
X138622676Y-108216347D01*
X138653443Y-108237259D02*
X138652402Y-108237259D01*
X138622245Y-108215402D02*
X138622033Y-108215614D01*
X138617310Y-108210912D02*
X138617310Y-108211869D01*
X138622094Y-108215111D02*
X138621496Y-108215111D01*
X138621558Y-108214932D02*
X138621883Y-108214607D01*
X138622199Y-108215302D02*
X138622199Y-108214496D01*
X138618872Y-108212460D02*
X138618872Y-108210862D01*
X138620712Y-108213647D02*
X138619610Y-108213647D01*
X138610178Y-108203881D02*
X138611880Y-108202179D01*
X138619538Y-108212430D02*
X138618884Y-108213084D01*
X138624063Y-108216479D02*
X138623637Y-108216479D01*
X138590071Y-108193581D02*
X138591314Y-108194824D01*
X138601159Y-108215517D02*
X138622018Y-108215517D01*
X138584105Y-108189206D02*
X138582460Y-108189206D01*
X138604065Y-108197462D02*
X138604065Y-108192519D01*
X138620648Y-108214278D02*
X138621189Y-108213737D01*
X138621443Y-108214826D02*
X138621785Y-108214484D01*
X138624821Y-108216347D02*
X138622676Y-108216347D01*
X138621751Y-108215422D02*
X138622676Y-108216347D01*
X138581575Y-108181621D02*
X138581575Y-108187041D01*
X138622181Y-108214384D02*
X138622181Y-108215613D01*
X138620580Y-108213507D02*
X138620078Y-108214009D01*
X138624063Y-108216479D02*
X138623833Y-108216709D01*
X138622199Y-108215302D02*
X138622396Y-108215499D01*
X138620391Y-108214252D02*
X138621288Y-108214252D01*
X138618292Y-108212627D02*
X138619022Y-108211897D01*
X138621176Y-108214585D02*
X138621176Y-108213726D01*
X138579600Y-108186163D02*
X138579600Y-108183596D01*
X138620563Y-108212962D02*
X138620574Y-108212951D01*
X138621649Y-108215491D02*
X138621517Y-108215359D01*
X138597491Y-108199093D02*
X138604065Y-108192519D01*
X138624004Y-108216112D02*
X138623637Y-108216479D01*
X138618581Y-108211452D02*
X138617792Y-108212241D01*
X138621962Y-108215509D02*
X138621944Y-108215491D01*
X138621715Y-108215271D02*
X138622194Y-108214792D01*
X138624063Y-108216479D02*
X138623637Y-108216479D01*
X138621058Y-108214009D02*
X138620630Y-108214437D01*
X138619103Y-108213254D02*
X138620336Y-108213254D01*
X138620173Y-108213084D02*
X138619610Y-108213647D01*
X138620404Y-108209938D02*
X138619327Y-108211015D01*
X138621806Y-108214801D02*
X138621496Y-108215111D01*
X138655386Y-108240782D02*
X138656343Y-108239825D01*
X138612528Y-108209250D02*
X138611366Y-108209250D01*
X138547770Y-108220291D02*
X138591713Y-108176348D01*
X138655386Y-108240782D02*
X138654840Y-108240782D01*
X138621803Y-108215383D02*
X138621483Y-108215383D01*
X138622264Y-108215271D02*
X138622018Y-108215517D01*
X138621324Y-108214978D02*
X138621658Y-108214644D01*
X138604065Y-108197462D02*
X138606295Y-108195232D01*
X138620009Y-108211491D02*
X138620893Y-108210607D01*
X138620727Y-108214175D02*
X138621176Y-108213726D01*
X138594330Y-108194824D02*
X138591314Y-108194824D01*
X138624821Y-108216347D02*
X138628765Y-108220291D01*
X138585380Y-108190876D02*
X138595003Y-108181253D01*
X138620391Y-108214252D02*
X138621288Y-108214252D01*
X138615977Y-108216709D02*
X138623833Y-108216709D01*
X138621340Y-108215240D02*
X138621325Y-108215240D01*
X138616020Y-108209747D02*
X138617101Y-108208666D01*
X138620580Y-108213507D02*
X138620078Y-108214009D01*
X138621649Y-108215491D02*
X138621517Y-108215359D01*
X138585380Y-108190876D02*
X138585380Y-108190481D01*
X138618457Y-108212283D02*
X138618457Y-108210789D01*
X138608314Y-108201928D02*
X138608314Y-108197746D01*
X138619354Y-108212241D02*
X138617792Y-108212241D01*
X138622199Y-108215302D02*
X138622396Y-108215499D01*
X138619538Y-108212430D02*
X138618036Y-108212430D01*
X138620893Y-108214395D02*
X138622134Y-108215636D01*
X138622165Y-108215477D02*
X138622220Y-108215422D01*
X138616822Y-108209893D02*
X138615917Y-108210798D01*
X138579600Y-108186163D02*
X138579600Y-108183596D01*
X138621558Y-108214932D02*
X138621558Y-108214203D01*
X138614228Y-108204376D02*
X138610277Y-108208327D01*
X138614564Y-108209845D02*
X138614612Y-108209893D01*
X138622165Y-108215477D02*
X138622220Y-108215422D01*
X138622158Y-108215472D02*
X138622158Y-108214950D01*
X138621443Y-108214826D02*
X138621785Y-108214484D01*
X138618048Y-108211686D02*
X138618872Y-108210862D01*
X138597491Y-108199093D02*
X138604065Y-108192519D01*
X138584105Y-108189206D02*
X138585380Y-108190481D01*
X138620574Y-108214022D02*
X138621042Y-108213554D01*
X138622245Y-108215402D02*
X138622033Y-108215614D01*
X138622194Y-108215367D02*
X138622194Y-108214792D01*
X138610178Y-108203881D02*
X138611880Y-108202179D01*
X138612528Y-108209250D02*
X138613123Y-108209845D01*
X138606295Y-108199765D02*
X138608314Y-108197746D01*
X138621785Y-108215135D02*
X138622075Y-108214845D01*
X138621463Y-108214437D02*
X138621099Y-108214801D01*
X138620727Y-108214175D02*
X138621176Y-108213726D01*
X138623701Y-108215733D02*
X138622818Y-108215733D01*
X138618581Y-108211452D02*
X138616770Y-108211452D01*
X138623701Y-108215733D02*
X138623322Y-108216112D01*
X138618457Y-108212283D02*
X138620009Y-108210731D01*
X138617349Y-108211897D02*
X138618457Y-108210789D01*
X138619538Y-108212430D02*
X138618884Y-108213084D01*
X138614228Y-108204376D02*
X138614228Y-108202448D01*
X138619798Y-108213792D02*
X138620336Y-108213254D01*
X138601159Y-108215517D02*
X138622018Y-108215517D01*
X138621058Y-108214009D02*
X138620078Y-108214009D01*
X138620016Y-108212922D02*
X138618673Y-108212922D01*
X138585380Y-108190876D02*
X138595003Y-108181253D01*
X138579600Y-108186163D02*
X138590286Y-108175477D01*
X138622261Y-108215693D02*
X138622261Y-108215369D01*
X138621715Y-108215271D02*
X138622194Y-108214792D01*
X138621189Y-108214594D02*
X138621189Y-108213737D01*
X138617349Y-108211897D02*
X138619022Y-108211897D01*
X138615977Y-108216709D02*
X138620563Y-108212123D01*
X138630757Y-108215614D02*
X138652402Y-108237259D01*
X138622194Y-108215367D02*
X138622336Y-108215509D01*
X138653443Y-108237259D02*
X138652402Y-108237259D01*
X138742799Y-108336600D02*
X138742799Y-108336587D01*
X138621883Y-108215225D02*
X138621883Y-108214607D01*
X138624821Y-108216347D02*
X138628765Y-108220291D01*
X138621883Y-108215225D02*
X138622158Y-108214950D01*
X138618794Y-108211672D02*
X138617053Y-108211672D01*
X138619103Y-108213254D02*
X138620336Y-108213254D01*
X138614228Y-108204376D02*
X138610277Y-108208327D01*
X138621806Y-108214801D02*
X138621496Y-108215111D01*
X138621883Y-108215225D02*
X138621883Y-108214607D01*
X138622134Y-108215337D02*
X138622134Y-108215636D01*
X138621336Y-108215359D02*
X138622199Y-108214496D01*
X138606295Y-108199765D02*
X138606295Y-108195232D01*
X138594330Y-108194824D02*
X138594468Y-108194962D01*
X138622261Y-108215693D02*
X138622181Y-108215613D01*
X138619798Y-108213792D02*
X138620851Y-108213792D01*
X138622261Y-108215693D02*
X138622181Y-108215613D01*
X138630757Y-108215614D02*
X138652402Y-108237259D01*
X138621463Y-108214437D02*
X138620630Y-108214437D01*
X138622033Y-108215614D02*
X138630757Y-108215614D01*
X138622274Y-108215372D02*
X138622016Y-108215630D01*
X138621058Y-108214009D02*
X138620630Y-108214437D01*
X138619798Y-108213792D02*
X138620336Y-108213254D01*
X138617927Y-108210798D02*
X138615917Y-108210798D01*
X138591713Y-108176903D02*
X138591713Y-108176348D01*
X138618292Y-108212627D02*
X138619730Y-108212627D01*
X138611880Y-108205629D02*
X138611880Y-108202179D01*
X138621751Y-108215422D02*
X138622676Y-108216347D01*
X138620580Y-108213507D02*
X138619431Y-108213507D01*
%TO.N,GPIO0*%
X137042500Y-103987500D02*
X137714689Y-103987500D01*
X137714689Y-103987500D02*
X138213689Y-103488500D01*
X139197815Y-103488500D02*
X139396932Y-103687617D01*
X138213689Y-103488500D02*
X139197815Y-103488500D01*
%TO.N,GPIO4*%
X136285372Y-104740957D02*
X136122875Y-104578460D01*
X136285372Y-105384763D02*
X136285372Y-104740957D01*
X136488109Y-105587500D02*
X136285372Y-105384763D01*
X137042500Y-105587500D02*
X136488109Y-105587500D01*
%TO.N,GPIO2*%
X138323168Y-104787500D02*
X138332008Y-104796340D01*
X137042500Y-104787500D02*
X138323168Y-104787500D01*
%TO.N,GPIO1*%
X137880375Y-104387500D02*
X138179375Y-104088500D01*
X137042500Y-104387500D02*
X137880375Y-104387500D01*
X138179375Y-104088500D02*
X138704789Y-104088500D01*
%TO.N,GPIO8*%
X137727624Y-107587500D02*
X137969211Y-107829087D01*
X137042500Y-107587500D02*
X137727624Y-107587500D01*
%TO.N,GPIO5*%
X138373829Y-106206171D02*
X138290000Y-106290000D01*
X137589650Y-105987500D02*
X137808321Y-106206171D01*
X137808321Y-106206171D02*
X138379998Y-106206171D01*
X138379998Y-106206171D02*
X138373829Y-106206171D01*
X137042500Y-105987500D02*
X137589650Y-105987500D01*
%TO.N,GPIO12*%
X137880000Y-109625000D02*
X137774691Y-109519691D01*
X137774691Y-109519691D02*
X136928086Y-109519691D01*
%TO.N,GPIO9*%
X136119504Y-108326182D02*
X136119504Y-108610896D01*
X136458186Y-107987500D02*
X136119504Y-108326182D01*
X137042500Y-107987500D02*
X136458186Y-107987500D01*
%TO.N,GPIO7*%
X137042500Y-106787500D02*
X136376950Y-106787500D01*
X135874265Y-113250000D02*
X135181471Y-113250000D01*
X135602902Y-108275684D02*
X135520000Y-108275684D01*
X136019785Y-113104480D02*
X135874265Y-113250000D01*
X135181471Y-113250000D02*
X134370000Y-112438529D01*
X134370000Y-110805685D02*
X133721000Y-110156685D01*
X134370000Y-112438529D02*
X134370000Y-110805685D01*
X133721000Y-107620251D02*
X133930126Y-107411125D01*
X136051000Y-107113450D02*
X136051000Y-107827586D01*
X136051000Y-107827586D02*
X135602902Y-108275684D01*
X133721000Y-110156685D02*
X133721000Y-107620251D01*
X135520000Y-109200000D02*
X135390000Y-109330000D01*
X136019785Y-112391256D02*
X136019785Y-113104480D01*
X136376950Y-106787500D02*
X136051000Y-107113450D01*
X135520000Y-108275684D02*
X135520000Y-109200000D01*
X135390000Y-109330000D02*
X135390000Y-111761471D01*
X135390000Y-111761471D02*
X136019785Y-112391256D01*
%TO.N,GPIO15*%
X139080000Y-108678402D02*
X139451805Y-108306597D01*
X139080000Y-109625000D02*
X139080000Y-108678402D01*
%TO.N,GPIO10*%
X137963854Y-108688665D02*
X137963931Y-108688742D01*
X137970423Y-108688962D02*
X137970471Y-108689010D01*
X137953293Y-108688375D02*
X137954754Y-108688375D01*
X137977392Y-108689686D02*
X137977739Y-108689339D01*
X137976956Y-108689299D02*
X137977343Y-108689686D01*
X137953094Y-108688176D02*
X137953293Y-108688375D01*
X137975059Y-108689217D02*
X137975504Y-108689217D01*
X137956179Y-108688473D02*
X137957543Y-108688473D01*
X137954754Y-108688375D02*
X137954809Y-108688430D01*
X137976043Y-108689259D02*
X137976064Y-108689280D01*
X137971438Y-108689010D02*
X137971482Y-108689054D01*
X137959464Y-108688518D02*
X137959529Y-108688583D01*
X137975925Y-108689259D02*
X137976043Y-108689259D01*
X137971482Y-108689054D02*
X137972347Y-108689054D01*
X137973869Y-108689131D02*
X137973901Y-108689163D01*
X137973901Y-108689163D02*
X137974492Y-108689163D01*
X137042500Y-108387500D02*
X137646875Y-108387500D01*
X137966811Y-108688856D02*
X137968077Y-108688856D01*
X137974492Y-108689163D02*
X137974521Y-108689192D01*
X137969302Y-108688910D02*
X137969354Y-108688962D01*
X137974521Y-108689192D02*
X137975034Y-108689192D01*
X137975527Y-108689240D02*
X137975906Y-108689240D01*
X137968077Y-108688856D02*
X137968131Y-108688910D01*
X137973155Y-108689094D02*
X137973192Y-108689131D01*
X137961780Y-108688665D02*
X137963854Y-108688665D01*
X137975906Y-108689240D02*
X137975925Y-108689259D01*
X137947551Y-108688176D02*
X137953094Y-108688176D01*
X137959529Y-108688583D02*
X137961043Y-108688583D01*
X137975034Y-108689192D02*
X137975059Y-108689217D01*
X137961754Y-108688639D02*
X137961780Y-108688665D01*
X137969354Y-108688962D02*
X137970423Y-108688962D01*
X137956136Y-108688430D02*
X137956179Y-108688473D01*
X137965406Y-108688800D02*
X137966755Y-108688800D01*
X137968131Y-108688910D02*
X137969302Y-108688910D01*
X137972347Y-108689054D02*
X137972387Y-108689094D01*
X137977739Y-108689339D02*
X137977775Y-108689339D01*
X137975504Y-108689217D02*
X137975527Y-108689240D01*
X137961099Y-108688639D02*
X137961754Y-108688639D01*
X137646875Y-108387500D02*
X137947551Y-108688176D01*
X137976733Y-108689280D02*
X137976752Y-108689299D01*
X137954809Y-108688430D02*
X137956136Y-108688430D01*
X137963931Y-108688742D02*
X137965348Y-108688742D01*
X137965348Y-108688742D02*
X137965406Y-108688800D01*
X137973192Y-108689131D02*
X137973869Y-108689131D01*
X137957543Y-108688473D02*
X137957588Y-108688518D01*
X137957588Y-108688518D02*
X137959464Y-108688518D01*
X137970471Y-108689010D02*
X137971438Y-108689010D01*
X137976752Y-108689299D02*
X137976956Y-108689299D01*
X137977343Y-108689686D02*
X137977392Y-108689686D01*
X137976064Y-108689280D02*
X137976733Y-108689280D01*
X137966755Y-108688800D02*
X137966811Y-108688856D01*
X137961043Y-108688583D02*
X137961099Y-108688639D01*
X137972387Y-108689094D02*
X137973155Y-108689094D01*
%TO.N,GPIO6*%
X137042500Y-106387500D02*
X136305050Y-106387500D01*
X134958115Y-105829569D02*
X134914526Y-105785980D01*
X136305050Y-106387500D02*
X135747119Y-105829569D01*
X135747119Y-105829569D02*
X134958115Y-105829569D01*
%TO.N,GPIO3*%
X137042500Y-105187500D02*
X137653045Y-105187500D01*
X137653045Y-105187500D02*
X137979660Y-105514115D01*
%TO.N,GPIO13*%
X137323335Y-110223320D02*
X137308756Y-110223320D01*
X138280000Y-110160274D02*
X138076774Y-110363500D01*
X138280000Y-109625000D02*
X138280000Y-110160274D01*
X138076774Y-110363500D02*
X137463515Y-110363500D01*
X137463515Y-110363500D02*
X137323335Y-110223320D01*
%TO.N,GPIO11*%
X137042500Y-108787500D02*
X136811748Y-108787500D01*
X136050000Y-109496065D02*
X136050000Y-110082830D01*
X136339449Y-109259799D02*
X136286266Y-109259799D01*
X136286266Y-109259799D02*
X136050000Y-109496065D01*
X136811748Y-108787500D02*
X136339449Y-109259799D01*
%TO.N,SWD*%
X141880000Y-109625000D02*
X141880000Y-108849437D01*
X141880000Y-108849437D02*
X141984634Y-108744803D01*
%TO.N,SWCLK*%
X141328485Y-108927809D02*
X141328485Y-108287121D01*
X141480000Y-109079324D02*
X141328485Y-108927809D01*
X141480000Y-109625000D02*
X141480000Y-109079324D01*
%TO.N,GPIO26_ADC0*%
X144800274Y-104840000D02*
X145907723Y-104840000D01*
X144451774Y-105185500D02*
X144390000Y-105185500D01*
X143917500Y-105187500D02*
X144452774Y-105187500D01*
X144452774Y-105187500D02*
X144800274Y-104840000D01*
%TO.N,GPIO21*%
X142980000Y-107767634D02*
X142980000Y-108043111D01*
X143917500Y-107587500D02*
X143160134Y-107587500D01*
X143160134Y-107587500D02*
X142980000Y-107767634D01*
%TO.N,GPIO28_ADC2*%
X143917500Y-104387500D02*
X144640291Y-104387500D01*
X144640291Y-104387500D02*
X144832637Y-104195154D01*
%TO.N,GPIO24*%
X142587876Y-105227623D02*
X142584117Y-105227623D01*
X143180002Y-105785276D02*
X143180002Y-105465697D01*
X142581517Y-105226895D02*
X142580002Y-105225380D01*
X142590091Y-105229838D02*
X142587876Y-105227623D01*
X142583389Y-105226895D02*
X142581517Y-105226895D01*
X143180002Y-105465697D02*
X142944143Y-105229838D01*
X142580002Y-105160893D02*
X142579993Y-105160884D01*
X142584117Y-105227623D02*
X142583389Y-105226895D01*
X143382226Y-105987500D02*
X143180002Y-105785276D01*
X142580002Y-105225380D02*
X142580002Y-105160893D01*
X143917500Y-105987500D02*
X143382226Y-105987500D01*
X142944143Y-105229838D02*
X142590091Y-105229838D01*
%TO.N,GPIO20*%
X143917500Y-107987500D02*
X144653685Y-107987500D01*
X144653685Y-107987500D02*
X144826634Y-108160449D01*
X144927943Y-108160449D02*
X145637494Y-108870000D01*
X144826634Y-108160449D02*
X144927943Y-108160449D01*
%TO.N,GPIO23*%
X142868790Y-106128395D02*
X142751468Y-106128395D01*
X143179345Y-106387500D02*
X143917500Y-106387500D01*
X142937572Y-106145727D02*
X143179345Y-106387500D01*
X142751468Y-106128395D02*
X142583950Y-105960877D01*
X142580002Y-106145727D02*
X142937572Y-106145727D01*
%TO.N,GPIO18*%
X145369977Y-109982298D02*
X145281303Y-110070972D01*
%TO.N,GPIO29_ADC3*%
X142459902Y-103672480D02*
X142458675Y-103672480D01*
X142458270Y-103672885D02*
X142457105Y-103672885D01*
X143917500Y-103987500D02*
X143263709Y-103987500D01*
X143076492Y-103800283D02*
X142587705Y-103800283D01*
X143263709Y-103987500D02*
X143076492Y-103800283D01*
X142458675Y-103672480D02*
X142458270Y-103672885D01*
X142587705Y-103800283D02*
X142459902Y-103672480D01*
%TO.N,GPIO27_ADC1*%
X143917500Y-104787500D02*
X143215180Y-104787500D01*
X142704650Y-104433398D02*
X142710719Y-104439467D01*
X142693735Y-104439156D02*
X142697146Y-104435745D01*
X142826269Y-104401977D02*
X142827963Y-104400283D01*
X142710719Y-104439467D02*
X142738276Y-104439467D01*
X142693735Y-104439241D02*
X142693735Y-104439156D01*
X142698286Y-104435745D02*
X142700633Y-104433398D01*
X142700633Y-104433398D02*
X142704650Y-104433398D01*
X142697146Y-104435745D02*
X142698286Y-104435745D01*
X142738276Y-104439467D02*
X142775766Y-104401977D01*
X142775766Y-104401977D02*
X142826269Y-104401977D01*
X143215180Y-104787500D02*
X142827963Y-104400283D01*
%TO.N,GPIO16*%
X142680000Y-109625000D02*
X142680000Y-110161079D01*
X143086586Y-110369000D02*
X143406586Y-110689000D01*
X142680000Y-110161079D02*
X142887920Y-110369000D01*
X144774009Y-110978123D02*
X144774009Y-111365706D01*
X143406586Y-110689000D02*
X144484886Y-110689000D01*
X144774009Y-111365706D02*
X144775047Y-111366744D01*
X144484886Y-110689000D02*
X144774009Y-110978123D01*
X142887920Y-110369000D02*
X143086586Y-110369000D01*
%TO.N,GPIO22*%
X143917500Y-106787500D02*
X142624665Y-106787500D01*
X142624665Y-106787500D02*
X142597923Y-106760758D01*
%TO.N,GPIO17*%
X143080000Y-109625000D02*
X143544000Y-110089000D01*
X143544000Y-110089000D02*
X143658362Y-110089000D01*
X143080000Y-109625000D02*
X143080000Y-109600039D01*
%TO.N,GPIO19*%
X144643163Y-109988638D02*
X144643163Y-110281592D01*
X143917500Y-108387500D02*
X144488000Y-108387500D01*
X144842211Y-108741711D02*
X144842211Y-108955955D01*
X145786763Y-111425192D02*
X146775047Y-111425192D01*
X144488000Y-108387500D02*
X144842211Y-108741711D01*
X144643163Y-110281592D02*
X145786763Y-111425192D01*
X144042025Y-109387500D02*
X144643163Y-109988638D01*
%TO.N,RUN*%
X144026499Y-111208949D02*
X143907396Y-111089846D01*
X147595897Y-106282022D02*
X147595897Y-107005584D01*
X147290000Y-110975685D02*
X147479000Y-111164685D01*
X145460048Y-112064899D02*
X144296370Y-112064899D01*
X146800000Y-109530313D02*
X147290000Y-110020313D01*
X147880000Y-107289687D02*
X147880000Y-108450315D01*
X144181000Y-111948943D02*
X144181000Y-111451057D01*
X144181000Y-111451057D02*
X144161000Y-111431057D01*
X144296370Y-112064899D02*
X144180707Y-111949236D01*
X147479000Y-111683963D02*
X147122963Y-112040000D01*
X142793235Y-110840000D02*
X142280000Y-110326764D01*
X146182643Y-112040000D02*
X146082324Y-111939681D01*
X148227919Y-105650000D02*
X147595897Y-106282022D01*
X143213152Y-111129298D02*
X142923854Y-110840000D01*
X147479000Y-111164685D02*
X147479000Y-111683963D01*
X142280000Y-110326764D02*
X142280000Y-109625000D01*
X147880000Y-108450315D02*
X146800000Y-109530313D01*
X145585266Y-111939681D02*
X145460048Y-112064899D01*
X144161000Y-111431057D02*
X144161000Y-111169180D01*
X143907396Y-111089846D02*
X143252604Y-111089846D01*
X143252604Y-111089846D02*
X143213152Y-111129298D01*
X144180707Y-111949236D02*
X144181000Y-111948943D01*
X142923854Y-110840000D02*
X142793235Y-110840000D01*
X144121231Y-111208949D02*
X144026499Y-111208949D01*
X147122963Y-112040000D02*
X146182643Y-112040000D01*
X146082324Y-111939681D02*
X145585266Y-111939681D01*
X147595897Y-107005584D02*
X147880000Y-107289687D01*
X149430000Y-105650000D02*
X148227919Y-105650000D01*
X144161000Y-111169180D02*
X144121231Y-111208949D01*
X147290000Y-110020313D02*
X147290000Y-110975685D01*
%TO.N,USB_D+*%
X139850000Y-86442000D02*
X139899000Y-86491000D01*
X135479000Y-83668215D02*
X135479000Y-87619000D01*
X139850000Y-84519239D02*
X140060000Y-84309239D01*
X140060000Y-83770761D02*
X139488239Y-83199000D01*
X140060000Y-84309239D02*
X140060000Y-83770761D01*
X135479000Y-87619000D02*
X136720000Y-88860000D01*
X139850000Y-85465000D02*
X139850000Y-86442000D01*
X139899000Y-86491000D02*
X140749000Y-86491000D01*
X140850000Y-86390000D02*
X140850000Y-85465000D01*
X140749000Y-86491000D02*
X140850000Y-86390000D01*
X135948215Y-83199000D02*
X135479000Y-83668215D01*
X139850000Y-85465000D02*
X139850000Y-84519239D01*
X139488239Y-83199000D02*
X135948215Y-83199000D01*
%TO.N,USB_D-*%
X142017538Y-99243223D02*
X142017538Y-99816777D01*
X141301000Y-85514000D02*
X141350000Y-85465000D01*
X143994214Y-98980000D02*
X143075785Y-98980000D01*
X141301000Y-86441000D02*
X141301000Y-85514000D01*
X141350000Y-84488000D02*
X141350000Y-85465000D01*
X142017538Y-99816777D02*
X141805315Y-100029000D01*
X141251000Y-86491000D02*
X141301000Y-86441000D01*
X140350000Y-84644925D02*
X140555925Y-84439000D01*
X144094215Y-98880000D02*
X143994214Y-98980000D01*
X140666100Y-87141000D02*
X141251000Y-86556100D01*
X146578529Y-98880000D02*
X144094215Y-98880000D01*
X140350000Y-85465000D02*
X140350000Y-84644925D01*
X140610000Y-87141000D02*
X140666100Y-87141000D01*
X146070000Y-101947500D02*
X146077550Y-101947500D01*
X140555925Y-84439000D02*
X141301000Y-84439000D01*
X141805315Y-100029000D02*
X141009000Y-100029000D01*
X142380761Y-98880000D02*
X142017538Y-99243223D01*
X146820000Y-101205050D02*
X146820000Y-99838529D01*
X142975786Y-98880000D02*
X142380761Y-98880000D01*
X146930000Y-99728529D02*
X146930000Y-99231471D01*
X141251000Y-86556100D02*
X141251000Y-86491000D01*
X146077550Y-101947500D02*
X146820000Y-101205050D01*
X141301000Y-84439000D02*
X141350000Y-84488000D01*
X141009000Y-100029000D02*
X140810000Y-99830000D01*
X143075785Y-98980000D02*
X142975786Y-98880000D01*
X140810000Y-99830000D02*
X140392727Y-99830000D01*
X146930000Y-99231471D02*
X146578529Y-98880000D01*
X146820000Y-99838529D02*
X146930000Y-99728529D01*
%TO.N,Net-(J4-CC1)*%
X143790000Y-87260000D02*
X143334773Y-87260000D01*
X143334773Y-87260000D02*
X143230416Y-87155643D01*
X141850000Y-86543556D02*
X141886334Y-86579890D01*
X141850000Y-85465000D02*
X141850000Y-86543556D01*
%TO.N,Net-(J4-CC2)*%
X138850000Y-85465000D02*
X138850000Y-86284007D01*
X138850000Y-86284007D02*
X139662404Y-87096411D01*
X143780000Y-88290000D02*
X143780000Y-88340116D01*
X143780000Y-88340116D02*
X143614378Y-88505738D01*
%TO.N,Net-(LED1-DI)*%
X142158500Y-123640739D02*
X140939239Y-124860000D01*
X137720761Y-122020000D02*
X139567500Y-122020000D01*
X136960000Y-122780761D02*
X137720761Y-122020000D01*
X142158500Y-121371000D02*
X142158500Y-123640739D01*
X141407500Y-120620000D02*
X142158500Y-121371000D01*
X140939239Y-124860000D02*
X137790761Y-124860000D01*
X136960000Y-124029239D02*
X136960000Y-122780761D01*
X137790761Y-124860000D02*
X136960000Y-124029239D01*
%TO.N,Net-(LED1-DO)*%
X140005000Y-119520000D02*
X139567500Y-119520000D01*
X141405000Y-118120000D02*
X140005000Y-119520000D01*
%TO.N,Net-(LED2-DO)*%
X145338500Y-120549000D02*
X145237500Y-120650000D01*
X139934998Y-117020000D02*
X140585998Y-116369000D01*
X145338500Y-118899000D02*
X145338500Y-120549000D01*
X145237500Y-120650000D02*
X144587500Y-120650000D01*
X140585998Y-116369000D02*
X142808500Y-116369000D01*
X142808500Y-116369000D02*
X145338500Y-118899000D01*
X139565000Y-117020000D02*
X139934998Y-117020000D01*
%TO.N,Net-(LED3-DI)*%
X137265629Y-116610000D02*
X137625629Y-116970000D01*
X142412338Y-115541000D02*
X144757529Y-115541000D01*
X135684314Y-116790000D02*
X136588571Y-116790000D01*
X148280001Y-107124000D02*
X148279000Y-107122999D01*
X136986079Y-118864265D02*
X136747206Y-118864265D01*
X148279000Y-107122999D02*
X148279000Y-106574221D01*
X137625629Y-116970000D02*
X138213000Y-116970000D01*
X136395735Y-118171421D02*
X135834314Y-117610000D01*
X148279000Y-106574221D02*
X148365825Y-106487396D01*
X148280000Y-111207760D02*
X148280000Y-110831485D01*
X135450000Y-117355686D02*
X135450000Y-117024314D01*
X136395735Y-118512794D02*
X136395735Y-118171421D01*
X148819546Y-109639056D02*
X148819546Y-109207306D01*
X145210000Y-106617500D02*
X146012610Y-106617500D01*
X148326315Y-111254075D02*
X148280000Y-111207760D01*
X138217500Y-120630000D02*
X137567500Y-120630000D01*
X136747206Y-118864265D02*
X136395735Y-118512794D01*
X148279000Y-110179602D02*
X148819546Y-109639056D01*
X138814000Y-116369000D02*
X140020312Y-116369000D01*
X136768571Y-116610000D02*
X137265629Y-116610000D01*
X146012610Y-106617500D02*
X146190110Y-106440000D01*
X136588571Y-116790000D02*
X136768571Y-116610000D01*
X148279000Y-110830485D02*
X148279000Y-110179602D01*
X135450000Y-117024314D02*
X135684314Y-116790000D01*
X141984338Y-115969000D02*
X142412338Y-115541000D01*
X148280000Y-110831485D02*
X148279000Y-110830485D01*
X137466500Y-120529000D02*
X137466500Y-119344686D01*
X137567500Y-120630000D02*
X137466500Y-120529000D01*
X144757529Y-115541000D02*
X148326315Y-111972214D01*
X148326315Y-111972214D02*
X148326315Y-111254075D01*
X135834314Y-117610000D02*
X135704314Y-117610000D01*
X137466500Y-119344686D02*
X136986079Y-118864265D01*
X148280001Y-108667761D02*
X148280001Y-107124000D01*
X140420313Y-115969000D02*
X141984338Y-115969000D01*
X138213000Y-116970000D02*
X138814000Y-116369000D01*
X148819546Y-109207306D02*
X148280001Y-108667761D01*
X140020312Y-116369000D02*
X140420313Y-115969000D01*
X135704314Y-117610000D02*
X135450000Y-117355686D01*
%TO.N,Net-(LED3-DO)*%
X140577500Y-123950000D02*
X137800000Y-123950000D01*
X135795735Y-118478480D02*
X135795735Y-118462092D01*
X136377500Y-119060245D02*
X135795735Y-118478480D01*
X141407500Y-123120000D02*
X140577500Y-123950000D01*
X136377500Y-119530000D02*
X136377500Y-119060245D01*
%TO.N,Net-(U1-USB_DP)*%
X137740000Y-88860000D02*
X138095251Y-88504749D01*
X141480000Y-102750000D02*
X141480000Y-103287498D01*
X140848678Y-103918820D02*
X140848678Y-104087498D01*
X141480000Y-103287498D02*
X140848678Y-103918820D01*
X138095251Y-88504749D02*
X138963790Y-88504749D01*
%TO.N,Net-(U1-USB_DM)*%
X142215075Y-98480000D02*
X141479840Y-99215235D01*
X147330000Y-99065785D02*
X146744214Y-98480000D01*
X147220000Y-100004214D02*
X147330000Y-99894214D01*
X147090000Y-101947500D02*
X147090000Y-101627501D01*
X141479840Y-99215235D02*
X141120000Y-99215235D01*
X146744214Y-98480000D02*
X143928529Y-98480000D01*
X143928529Y-98480000D02*
X143828529Y-98580000D01*
X143828529Y-98580000D02*
X143241471Y-98580000D01*
X147330000Y-99894214D02*
X147330000Y-99065785D01*
X143141471Y-98480000D02*
X142215075Y-98480000D01*
X141857105Y-103879074D02*
X141648681Y-104087498D01*
X141880000Y-102750000D02*
X141880000Y-103401461D01*
X147220000Y-101497501D02*
X147220000Y-100004214D01*
X141857105Y-103424356D02*
X141857105Y-103879074D01*
X147090000Y-101627501D02*
X147220000Y-101497501D01*
X143241471Y-98580000D02*
X143141471Y-98480000D01*
X141880000Y-103401461D02*
X141857105Y-103424356D01*
%TO.N,LED*%
X144452774Y-105587500D02*
X144462774Y-105597500D01*
X143917500Y-105587500D02*
X144452774Y-105587500D01*
X145210000Y-105597500D02*
X144462774Y-105597500D01*
%TO.N,Net-(R6-Pad1)*%
X136433704Y-99480000D02*
X137530000Y-98383704D01*
X135380000Y-99480000D02*
X136433704Y-99480000D01*
X137530000Y-97800000D02*
X137600000Y-97730000D01*
X137530000Y-98383704D02*
X137530000Y-97800000D01*
%TO.N,QSPI_SS*%
X136858000Y-92947001D02*
X136858000Y-96250529D01*
X137990000Y-96970000D02*
X138620000Y-97600000D01*
X136858000Y-96250529D02*
X136417058Y-96691471D01*
X138540000Y-97730000D02*
X138540340Y-97730000D01*
X138372500Y-91762500D02*
X137800000Y-91190000D01*
X137330000Y-99149390D02*
X137330000Y-102200000D01*
X138372500Y-92245000D02*
X138372500Y-91762500D01*
X138620000Y-97600000D02*
X138620000Y-97650000D01*
X137930000Y-98549390D02*
X137330000Y-99149390D01*
X137330000Y-102200000D02*
X137880000Y-102750000D01*
X136912793Y-97332893D02*
X137275686Y-96970000D01*
X137560001Y-92245000D02*
X136858000Y-92947001D01*
X138372500Y-92245000D02*
X137560001Y-92245000D01*
X137930000Y-98340340D02*
X137930000Y-98549390D01*
X138620000Y-97650000D02*
X138540000Y-97730000D01*
X136417058Y-96837158D02*
X136912793Y-97332893D01*
X137275686Y-96970000D02*
X137990000Y-96970000D01*
X138540340Y-97730000D02*
X137930000Y-98340340D01*
X136417058Y-96691471D02*
X136417058Y-96837158D01*
%TO.N,QSPI_SD2*%
X137259000Y-93156010D02*
X137526010Y-92889000D01*
X139914450Y-95819865D02*
X139914450Y-97758000D01*
X137560001Y-94785000D02*
X137259000Y-94483999D01*
X138130000Y-100547056D02*
X138680000Y-101097057D01*
X138130000Y-99542450D02*
X138130000Y-100547056D01*
X140010000Y-95724315D02*
X139914450Y-95819865D01*
X138372500Y-94785000D02*
X137560001Y-94785000D01*
X139218990Y-92889000D02*
X140010000Y-93680010D01*
X139914450Y-97758000D02*
X138130000Y-99542450D01*
X138680000Y-101097057D02*
X138680000Y-102750000D01*
X140010000Y-93680010D02*
X140010000Y-95724315D01*
X137259000Y-94483999D02*
X137259000Y-93156010D01*
X137526010Y-92889000D02*
X139218990Y-92889000D01*
%TO.N,QSPI_SD3*%
X145749990Y-93515000D02*
X145547500Y-93515000D01*
X139334200Y-100040000D02*
X141130000Y-98244200D01*
X141130000Y-98244200D02*
X141130000Y-97190000D01*
X139880000Y-100590000D02*
X139330000Y-100040000D01*
X139880000Y-102750000D02*
X139880000Y-100590000D01*
X146452090Y-97190000D02*
X147062000Y-96580090D01*
X147062000Y-96580090D02*
X147062000Y-94827010D01*
X141130000Y-97190000D02*
X146452090Y-97190000D01*
X147062000Y-94827010D02*
X145749990Y-93515000D01*
X139330000Y-100040000D02*
X139334200Y-100040000D01*
%TO.N,QSPI_SCLK*%
X146661000Y-96413990D02*
X146393990Y-96681000D01*
X145547500Y-94785000D02*
X146359999Y-94785000D01*
X140716450Y-98090650D02*
X140131000Y-98676100D01*
X138930000Y-100215686D02*
X139480000Y-100765686D01*
X146359999Y-94785000D02*
X146661000Y-95086001D01*
X139168514Y-99640000D02*
X139164314Y-99640000D01*
X139164314Y-99640000D02*
X138930000Y-99874314D01*
X138930000Y-99874314D02*
X138930000Y-100215686D01*
X146661000Y-95086001D02*
X146661000Y-96413990D01*
X146393990Y-96681000D02*
X140716450Y-96681000D01*
X140131000Y-98676100D02*
X140131000Y-98677514D01*
X140131000Y-98677514D02*
X139168514Y-99640000D01*
X139480000Y-100765686D02*
X139480000Y-102750000D01*
X140716450Y-96681000D02*
X140716450Y-98090650D01*
%TO.N,QSPI_SD1*%
X137730000Y-101660000D02*
X137730000Y-99376765D01*
X139184999Y-93515000D02*
X139513450Y-93843451D01*
X137730000Y-99376765D02*
X138400000Y-98706765D01*
X138280000Y-102750000D02*
X138280000Y-102210000D01*
X138410000Y-98696764D02*
X138400000Y-98706765D01*
X139513450Y-97593315D02*
X138400000Y-98706765D01*
X139513450Y-93843451D02*
X139513450Y-97593315D01*
X138372500Y-93515000D02*
X139184999Y-93515000D01*
X138280000Y-102210000D02*
X137730000Y-101660000D01*
%TO.N,QSPI_SD0*%
X138530000Y-99708628D02*
X139727628Y-98511000D01*
X142302785Y-96090000D02*
X142337785Y-96055000D01*
X140315450Y-97924550D02*
X140315450Y-96090000D01*
X139729000Y-98511000D02*
X139729000Y-98510550D01*
X139727628Y-98511000D02*
X139729000Y-98511000D01*
X140315450Y-96090000D02*
X142302785Y-96090000D01*
X139729000Y-98511000D02*
X140315450Y-97924550D01*
X138530000Y-100381371D02*
X138530000Y-99708628D01*
X145547500Y-96055000D02*
X142337785Y-96055000D01*
X139080000Y-102750000D02*
X139080000Y-100931372D01*
X139080000Y-100931372D02*
X138530000Y-100381371D01*
%TO.N,Net-(C17-Pad2)*%
X142931000Y-113280950D02*
X142931000Y-113304971D01*
X136419785Y-112310165D02*
X137852450Y-110877500D01*
X137852450Y-110877500D02*
X138440000Y-110877500D01*
X141044747Y-115569000D02*
X140616747Y-115141000D01*
X142320000Y-112669950D02*
X142931000Y-113280950D01*
X136419785Y-113923689D02*
X136419785Y-112310165D01*
X142970000Y-113343971D02*
X142970000Y-114417653D01*
X138580000Y-114240000D02*
X136736096Y-114240000D01*
X142970000Y-114417653D02*
X141818653Y-115569000D01*
X142320000Y-112647500D02*
X142320000Y-112669950D01*
X141818653Y-115569000D02*
X141044747Y-115569000D01*
X140616747Y-115141000D02*
X138881000Y-115141000D01*
X138881000Y-115141000D02*
X138580000Y-114840000D01*
X136736096Y-114240000D02*
X136419785Y-113923689D01*
X142931000Y-113304971D02*
X142970000Y-113343971D01*
X138580000Y-114840000D02*
X138580000Y-114240000D01*
%TD*%
%TA.AperFunction,Conductor*%
%TO.N,GND*%
G36*
X147998834Y-113251443D02*
G01*
X148054767Y-113293315D01*
X148079184Y-113358779D01*
X148079500Y-113367625D01*
X148079500Y-113376286D01*
X148110943Y-113574814D01*
X148112754Y-113586243D01*
X148155717Y-113718470D01*
X148178444Y-113788414D01*
X148274951Y-113977820D01*
X148399890Y-114149786D01*
X148550213Y-114300109D01*
X148722182Y-114425050D01*
X148730946Y-114429516D01*
X148781742Y-114477491D01*
X148798536Y-114545312D01*
X148775998Y-114611447D01*
X148730946Y-114650484D01*
X148722182Y-114654949D01*
X148550213Y-114779890D01*
X148399890Y-114930213D01*
X148274951Y-115102179D01*
X148178444Y-115291585D01*
X148112753Y-115493760D01*
X148087295Y-115654500D01*
X148079500Y-115703713D01*
X148079500Y-115916287D01*
X148089534Y-115979644D01*
X148108688Y-116100575D01*
X148112754Y-116126243D01*
X148168318Y-116297252D01*
X148178444Y-116328414D01*
X148274951Y-116517820D01*
X148399890Y-116689786D01*
X148550213Y-116840109D01*
X148722182Y-116965050D01*
X148730946Y-116969516D01*
X148781742Y-117017491D01*
X148798536Y-117085312D01*
X148775998Y-117151447D01*
X148730946Y-117190484D01*
X148722182Y-117194949D01*
X148550213Y-117319890D01*
X148399890Y-117470213D01*
X148274951Y-117642179D01*
X148178444Y-117831585D01*
X148112753Y-118033760D01*
X148079500Y-118243713D01*
X148079500Y-118456286D01*
X148104969Y-118617095D01*
X148112754Y-118666243D01*
X148169626Y-118841277D01*
X148178444Y-118868414D01*
X148274951Y-119057820D01*
X148399890Y-119229786D01*
X148550213Y-119380109D01*
X148722182Y-119505050D01*
X148730946Y-119509516D01*
X148781742Y-119557491D01*
X148798536Y-119625312D01*
X148775998Y-119691447D01*
X148730946Y-119730484D01*
X148722182Y-119734949D01*
X148550213Y-119859890D01*
X148399890Y-120010213D01*
X148274951Y-120182179D01*
X148178444Y-120371585D01*
X148112753Y-120573760D01*
X148103846Y-120630000D01*
X148079500Y-120783713D01*
X148079500Y-120996287D01*
X148084014Y-121024785D01*
X148110458Y-121191750D01*
X148112754Y-121206243D01*
X148146858Y-121311205D01*
X148178444Y-121408414D01*
X148274951Y-121597820D01*
X148399890Y-121769786D01*
X148550213Y-121920109D01*
X148722179Y-122045048D01*
X148722181Y-122045049D01*
X148722184Y-122045051D01*
X148911588Y-122141557D01*
X148940753Y-122151033D01*
X148998426Y-122190468D01*
X149025625Y-122254826D01*
X149013712Y-122323673D01*
X148966469Y-122375149D01*
X148958730Y-122379447D01*
X148827269Y-122446431D01*
X148811466Y-122457912D01*
X148811466Y-122457913D01*
X149300591Y-122947037D01*
X149237007Y-122964075D01*
X149122993Y-123029901D01*
X149029901Y-123122993D01*
X148964075Y-123237007D01*
X148947037Y-123300590D01*
X148457912Y-122811466D01*
X148446432Y-122827269D01*
X148364254Y-122988547D01*
X148364251Y-122988555D01*
X148308317Y-123160706D01*
X148280000Y-123339493D01*
X148280000Y-123520506D01*
X148308317Y-123699293D01*
X148364251Y-123871444D01*
X148364252Y-123871447D01*
X148446431Y-124032730D01*
X148457913Y-124048532D01*
X148457913Y-124048533D01*
X148947037Y-123559409D01*
X148964075Y-123622993D01*
X149029901Y-123737007D01*
X149122993Y-123830099D01*
X149237007Y-123895925D01*
X149300590Y-123912962D01*
X148811466Y-124402085D01*
X148811466Y-124402086D01*
X148827267Y-124413566D01*
X148827275Y-124413571D01*
X148958729Y-124480551D01*
X149009525Y-124528526D01*
X149026320Y-124596347D01*
X149003782Y-124662482D01*
X148949067Y-124705933D01*
X148940761Y-124708964D01*
X148930716Y-124712227D01*
X148911583Y-124718444D01*
X148722179Y-124814951D01*
X148550213Y-124939890D01*
X148399890Y-125090213D01*
X148274951Y-125262179D01*
X148178444Y-125451585D01*
X148112753Y-125653760D01*
X148079500Y-125863713D01*
X148079500Y-126076286D01*
X148112753Y-126286239D01*
X148178444Y-126488414D01*
X148274951Y-126677820D01*
X148399890Y-126849786D01*
X148550213Y-127000109D01*
X148722182Y-127125050D01*
X148730946Y-127129516D01*
X148781742Y-127177491D01*
X148798536Y-127245312D01*
X148775998Y-127311447D01*
X148730946Y-127350484D01*
X148722182Y-127354949D01*
X148550213Y-127479890D01*
X148399890Y-127630213D01*
X148274951Y-127802179D01*
X148178444Y-127991585D01*
X148112753Y-128193760D01*
X148079500Y-128403713D01*
X148079500Y-128616286D01*
X148099295Y-128741270D01*
X148112754Y-128826243D01*
X148162003Y-128977816D01*
X148178444Y-129028414D01*
X148265466Y-129199205D01*
X148278362Y-129267875D01*
X148252086Y-129332615D01*
X148194979Y-129372872D01*
X148154981Y-129379500D01*
X144239758Y-129379500D01*
X144172719Y-129359815D01*
X144126964Y-129307011D01*
X144117020Y-129237853D01*
X144146045Y-129174297D01*
X144152077Y-129167819D01*
X144170104Y-129149792D01*
X144170106Y-129149788D01*
X144170109Y-129149786D01*
X144295048Y-128977820D01*
X144295047Y-128977820D01*
X144295051Y-128977816D01*
X144391557Y-128788412D01*
X144457246Y-128586243D01*
X144490500Y-128376287D01*
X144490500Y-128163713D01*
X144457246Y-127953757D01*
X144391557Y-127751588D01*
X144295051Y-127562184D01*
X144295049Y-127562181D01*
X144295048Y-127562179D01*
X144170109Y-127390213D01*
X144019786Y-127239890D01*
X143847820Y-127114951D01*
X143658414Y-127018444D01*
X143658413Y-127018443D01*
X143658412Y-127018443D01*
X143456243Y-126952754D01*
X143456241Y-126952753D01*
X143456240Y-126952753D01*
X143294957Y-126927208D01*
X143246287Y-126919500D01*
X143033713Y-126919500D01*
X142985042Y-126927208D01*
X142823760Y-126952753D01*
X142621585Y-127018444D01*
X142432179Y-127114951D01*
X142260213Y-127239890D01*
X142109890Y-127390213D01*
X141984951Y-127562179D01*
X141888444Y-127751583D01*
X141878967Y-127780753D01*
X141839529Y-127838428D01*
X141775170Y-127865626D01*
X141706323Y-127853711D01*
X141654848Y-127806466D01*
X141650551Y-127798729D01*
X141583571Y-127667275D01*
X141583566Y-127667267D01*
X141572085Y-127651466D01*
X141082962Y-128140589D01*
X141065925Y-128077007D01*
X141000099Y-127962993D01*
X140907007Y-127869901D01*
X140792993Y-127804075D01*
X140729409Y-127787037D01*
X141218533Y-127297913D01*
X141202730Y-127286431D01*
X141041447Y-127204252D01*
X141041444Y-127204251D01*
X140869293Y-127148317D01*
X140690506Y-127120000D01*
X140509494Y-127120000D01*
X140330706Y-127148317D01*
X140158555Y-127204251D01*
X140158547Y-127204254D01*
X139997269Y-127286432D01*
X139981466Y-127297912D01*
X139981466Y-127297913D01*
X140470591Y-127787037D01*
X140407007Y-127804075D01*
X140292993Y-127869901D01*
X140199901Y-127962993D01*
X140134075Y-128077007D01*
X140117037Y-128140590D01*
X139627913Y-127651466D01*
X139621875Y-127651941D01*
X139610304Y-127660864D01*
X139587108Y-127681364D01*
X139582878Y-127682014D01*
X139579490Y-127684627D01*
X139548646Y-127687277D01*
X139518049Y-127691981D01*
X139514140Y-127690241D01*
X139509877Y-127690608D01*
X139482498Y-127676162D01*
X139454214Y-127663577D01*
X139451865Y-127659999D01*
X139448081Y-127658003D01*
X139432856Y-127631046D01*
X139415868Y-127605170D01*
X139415018Y-127599462D01*
X139413722Y-127597166D01*
X139410505Y-127570286D01*
X139410499Y-127569682D01*
X139410499Y-127372128D01*
X139404091Y-127312517D01*
X139400359Y-127302512D01*
X139353797Y-127177671D01*
X139353793Y-127177664D01*
X139267547Y-127062455D01*
X139267544Y-127062452D01*
X139152335Y-126976206D01*
X139152328Y-126976202D01*
X139017482Y-126925908D01*
X139017483Y-126925908D01*
X138957883Y-126919501D01*
X138957881Y-126919500D01*
X138957873Y-126919500D01*
X138957864Y-126919500D01*
X137162129Y-126919500D01*
X137162123Y-126919501D01*
X137102516Y-126925908D01*
X136967671Y-126976202D01*
X136967664Y-126976206D01*
X136852455Y-127062452D01*
X136852452Y-127062455D01*
X136766206Y-127177664D01*
X136766202Y-127177671D01*
X136715908Y-127312517D01*
X136709501Y-127372116D01*
X136709500Y-127372135D01*
X136709500Y-129167870D01*
X136709501Y-129167876D01*
X136716738Y-129235196D01*
X136715342Y-129235345D01*
X136712050Y-129296756D01*
X136671182Y-129353427D01*
X136606163Y-129379007D01*
X136595114Y-129379500D01*
X133045019Y-129379500D01*
X132977980Y-129359815D01*
X132932225Y-129307011D01*
X132922281Y-129237853D01*
X132934534Y-129199205D01*
X132959714Y-129149786D01*
X133021557Y-129028412D01*
X133087246Y-128826243D01*
X133120500Y-128616287D01*
X133120500Y-128403713D01*
X133087246Y-128193757D01*
X133021557Y-127991588D01*
X132925051Y-127802184D01*
X132925049Y-127802181D01*
X132925048Y-127802179D01*
X132800109Y-127630213D01*
X132649786Y-127479890D01*
X132477820Y-127354951D01*
X132472858Y-127352423D01*
X132469054Y-127350485D01*
X132418259Y-127302512D01*
X132401463Y-127234692D01*
X132423999Y-127168556D01*
X132469054Y-127129515D01*
X132477816Y-127125051D01*
X132563977Y-127062452D01*
X132649786Y-127000109D01*
X132649788Y-127000106D01*
X132649792Y-127000104D01*
X132800104Y-126849792D01*
X132800106Y-126849788D01*
X132800109Y-126849786D01*
X132925048Y-126677820D01*
X132925047Y-126677820D01*
X132925051Y-126677816D01*
X133021557Y-126488412D01*
X133087246Y-126286243D01*
X133120500Y-126076287D01*
X133120500Y-125863713D01*
X133087246Y-125653757D01*
X133021557Y-125451588D01*
X132925051Y-125262184D01*
X132925049Y-125262181D01*
X132925048Y-125262179D01*
X132800109Y-125090213D01*
X132649786Y-124939890D01*
X132477820Y-124814951D01*
X132288414Y-124718444D01*
X132288413Y-124718443D01*
X132288412Y-124718443D01*
X132259246Y-124708966D01*
X132201571Y-124669529D01*
X132174373Y-124605171D01*
X132186288Y-124536324D01*
X132233532Y-124484849D01*
X132241270Y-124480551D01*
X132372732Y-124413566D01*
X132388532Y-124402085D01*
X132388533Y-124402085D01*
X131899410Y-123912962D01*
X131962993Y-123895925D01*
X132077007Y-123830099D01*
X132170099Y-123737007D01*
X132235925Y-123622993D01*
X132252962Y-123559409D01*
X132742085Y-124048532D01*
X132753568Y-124032730D01*
X132835745Y-123871452D01*
X132835748Y-123871444D01*
X132891682Y-123699293D01*
X132920000Y-123520506D01*
X132920000Y-123339493D01*
X132891682Y-123160706D01*
X132835748Y-122988555D01*
X132835747Y-122988552D01*
X132753571Y-122827275D01*
X132753566Y-122827267D01*
X132742085Y-122811466D01*
X132252962Y-123300589D01*
X132235925Y-123237007D01*
X132170099Y-123122993D01*
X132077007Y-123029901D01*
X131962993Y-122964075D01*
X131899409Y-122947037D01*
X132388533Y-122457913D01*
X132372727Y-122446429D01*
X132241269Y-122379447D01*
X132190474Y-122331473D01*
X132173679Y-122263651D01*
X132196217Y-122197517D01*
X132250932Y-122154066D01*
X132259216Y-122151043D01*
X132288412Y-122141557D01*
X132477816Y-122045051D01*
X132499789Y-122029086D01*
X132649786Y-121920109D01*
X132649788Y-121920106D01*
X132649792Y-121920104D01*
X132800104Y-121769792D01*
X132800106Y-121769788D01*
X132800109Y-121769786D01*
X132925048Y-121597820D01*
X132925047Y-121597820D01*
X132925051Y-121597816D01*
X133021557Y-121408412D01*
X133087246Y-121206243D01*
X133115986Y-121024785D01*
X135627501Y-121024785D01*
X135627502Y-121024808D01*
X135630408Y-121049869D01*
X135630409Y-121049873D01*
X135675711Y-121152474D01*
X135675714Y-121152479D01*
X135755020Y-121231785D01*
X135755025Y-121231788D01*
X135857623Y-121277089D01*
X135882706Y-121279999D01*
X136127499Y-121279999D01*
X136127500Y-121279998D01*
X136127500Y-120880000D01*
X135627501Y-120880000D01*
X135627501Y-121024785D01*
X133115986Y-121024785D01*
X133120500Y-120996287D01*
X133120500Y-120783713D01*
X133087246Y-120573757D01*
X133021557Y-120371588D01*
X132925051Y-120182184D01*
X132925049Y-120182181D01*
X132925048Y-120182179D01*
X132800109Y-120010213D01*
X132649786Y-119859890D01*
X132477820Y-119734951D01*
X132477115Y-119734591D01*
X132469054Y-119730485D01*
X132418259Y-119682512D01*
X132401463Y-119614692D01*
X132423999Y-119548556D01*
X132469054Y-119509515D01*
X132477816Y-119505051D01*
X132499789Y-119489086D01*
X132649786Y-119380109D01*
X132649788Y-119380106D01*
X132649792Y-119380104D01*
X132800104Y-119229792D01*
X132800106Y-119229788D01*
X132800109Y-119229786D01*
X132925048Y-119057820D01*
X132925047Y-119057820D01*
X132925051Y-119057816D01*
X133021557Y-118868412D01*
X133087246Y-118666243D01*
X133120500Y-118456287D01*
X133120500Y-118243713D01*
X133087246Y-118033757D01*
X133021557Y-117831588D01*
X132925051Y-117642184D01*
X132925049Y-117642181D01*
X132925048Y-117642179D01*
X132800109Y-117470213D01*
X132649786Y-117319890D01*
X132477820Y-117194951D01*
X132477115Y-117194591D01*
X132469054Y-117190485D01*
X132418259Y-117142512D01*
X132401463Y-117074692D01*
X132423999Y-117008556D01*
X132469054Y-116969515D01*
X132477816Y-116965051D01*
X132505060Y-116945257D01*
X132649786Y-116840109D01*
X132649788Y-116840106D01*
X132649792Y-116840104D01*
X132800104Y-116689792D01*
X132800106Y-116689788D01*
X132800109Y-116689786D01*
X132925048Y-116517820D01*
X132925047Y-116517820D01*
X132925051Y-116517816D01*
X133021557Y-116328412D01*
X133087246Y-116126243D01*
X133120500Y-115916287D01*
X133120500Y-115703713D01*
X133087246Y-115493757D01*
X133021557Y-115291588D01*
X132925051Y-115102184D01*
X132925049Y-115102181D01*
X132925048Y-115102179D01*
X132800109Y-114930213D01*
X132649786Y-114779890D01*
X132477820Y-114654951D01*
X132477115Y-114654591D01*
X132469054Y-114650485D01*
X132418259Y-114602512D01*
X132401463Y-114534692D01*
X132423999Y-114468556D01*
X132469054Y-114429515D01*
X132477816Y-114425051D01*
X132549087Y-114373270D01*
X132649786Y-114300109D01*
X132649788Y-114300106D01*
X132649792Y-114300104D01*
X132800104Y-114149792D01*
X132800106Y-114149788D01*
X132800109Y-114149786D01*
X132925048Y-113977820D01*
X132925047Y-113977820D01*
X132925051Y-113977816D01*
X132956773Y-113915557D01*
X132976085Y-113895108D01*
X132992945Y-113872587D01*
X132999754Y-113870047D01*
X133004744Y-113864764D01*
X133032049Y-113858001D01*
X133058409Y-113848170D01*
X133065510Y-113849714D01*
X133072564Y-113847968D01*
X133099189Y-113857040D01*
X133126682Y-113863021D01*
X133134988Y-113869239D01*
X133138700Y-113870504D01*
X133154930Y-113884166D01*
X133231284Y-113960520D01*
X133231286Y-113960521D01*
X133238356Y-113967591D01*
X133393180Y-114122415D01*
X133426665Y-114183738D01*
X133429499Y-114210095D01*
X133429499Y-114373270D01*
X133429499Y-114373271D01*
X133429500Y-114373273D01*
X133441354Y-114417511D01*
X133469232Y-114521557D01*
X133470423Y-114526000D01*
X133499360Y-114576119D01*
X133541689Y-114649437D01*
X133549479Y-114662929D01*
X133549481Y-114662932D01*
X133668349Y-114781800D01*
X133668355Y-114781805D01*
X134135264Y-115248714D01*
X134135266Y-115248716D01*
X134247070Y-115360520D01*
X134368280Y-115430500D01*
X134384002Y-115439577D01*
X134414662Y-115447792D01*
X134421582Y-115450572D01*
X134424631Y-115452975D01*
X134437364Y-115458250D01*
X134473762Y-115479265D01*
X134474244Y-115479494D01*
X134476587Y-115480464D01*
X134478231Y-115481203D01*
X134489378Y-115486907D01*
X134494002Y-115489577D01*
X134494006Y-115489578D01*
X134494013Y-115489582D01*
X134494067Y-115489604D01*
X134494783Y-115489790D01*
X134588277Y-115514838D01*
X134646729Y-115530500D01*
X134646738Y-115530500D01*
X134646757Y-115530505D01*
X134745579Y-115530500D01*
X134749777Y-115530500D01*
X134816816Y-115550185D01*
X134862571Y-115602989D01*
X134873777Y-115654500D01*
X134873777Y-115765833D01*
X134904538Y-115920476D01*
X134904541Y-115920488D01*
X134964879Y-116066159D01*
X134964886Y-116066172D01*
X135052487Y-116197275D01*
X135052490Y-116197279D01*
X135152463Y-116297252D01*
X135156800Y-116305196D01*
X135164049Y-116310622D01*
X135173285Y-116335384D01*
X135185948Y-116358575D01*
X135185302Y-116367603D01*
X135188466Y-116376086D01*
X135182849Y-116401908D01*
X135180964Y-116428267D01*
X135175146Y-116437319D01*
X135173615Y-116444359D01*
X135152464Y-116472614D01*
X135081286Y-116543792D01*
X135081285Y-116543792D01*
X135081284Y-116543793D01*
X134969481Y-116655596D01*
X134969477Y-116655601D01*
X134921781Y-116738215D01*
X134921781Y-116738216D01*
X134890423Y-116792528D01*
X134890423Y-116792529D01*
X134849499Y-116945257D01*
X134849499Y-116945259D01*
X134849499Y-117113360D01*
X134849500Y-117113373D01*
X134849500Y-117269016D01*
X134849499Y-117269034D01*
X134849499Y-117434740D01*
X134849498Y-117434740D01*
X134859002Y-117470208D01*
X134889129Y-117582643D01*
X134890424Y-117587473D01*
X134900129Y-117604282D01*
X134900130Y-117604284D01*
X134969477Y-117724398D01*
X134969481Y-117724403D01*
X135088349Y-117843271D01*
X135088355Y-117843276D01*
X135111174Y-117866095D01*
X135144659Y-117927418D01*
X135139675Y-117997110D01*
X135126596Y-118022666D01*
X135086343Y-118082908D01*
X135086337Y-118082919D01*
X135025999Y-118228590D01*
X135025996Y-118228602D01*
X134995235Y-118383245D01*
X134995235Y-118540938D01*
X135025996Y-118695581D01*
X135025999Y-118695593D01*
X135086337Y-118841264D01*
X135086344Y-118841277D01*
X135173945Y-118972380D01*
X135173948Y-118972384D01*
X135285442Y-119083878D01*
X135285446Y-119083881D01*
X135371891Y-119141642D01*
X135416696Y-119195254D01*
X135427000Y-119244744D01*
X135427000Y-119927870D01*
X135427001Y-119927876D01*
X135433408Y-119987483D01*
X135483702Y-120122328D01*
X135483706Y-120122335D01*
X135569951Y-120237543D01*
X135569952Y-120237544D01*
X135569954Y-120237546D01*
X135577812Y-120243428D01*
X135619682Y-120299361D01*
X135627500Y-120342694D01*
X135627500Y-120380000D01*
X135868333Y-120380000D01*
X135876311Y-120380427D01*
X135876317Y-120380322D01*
X135879602Y-120380497D01*
X135879627Y-120380500D01*
X136253502Y-120380499D01*
X136320539Y-120400183D01*
X136366294Y-120452987D01*
X136377500Y-120504499D01*
X136377500Y-120630000D01*
X136503500Y-120630000D01*
X136570539Y-120649685D01*
X136616294Y-120702489D01*
X136627500Y-120754000D01*
X136627500Y-121279999D01*
X136872286Y-121279999D01*
X136872308Y-121279997D01*
X136897369Y-121277091D01*
X136897373Y-121277090D01*
X136999974Y-121231788D01*
X136999975Y-121231788D01*
X137082345Y-121149418D01*
X137106786Y-121136071D01*
X137129472Y-121119918D01*
X137137028Y-121119558D01*
X137143668Y-121115933D01*
X137171445Y-121117919D01*
X137199263Y-121116595D01*
X137209340Y-121120629D01*
X137213360Y-121120917D01*
X137232024Y-121129711D01*
X137243040Y-121136071D01*
X137266235Y-121149463D01*
X137314450Y-121200030D01*
X137320415Y-121213513D01*
X137323703Y-121222330D01*
X137323707Y-121222336D01*
X137414301Y-121343353D01*
X137438719Y-121408817D01*
X137423868Y-121477090D01*
X137377037Y-121525050D01*
X137352048Y-121539477D01*
X137352043Y-121539481D01*
X136479481Y-122412043D01*
X136479475Y-122412051D01*
X136441700Y-122477481D01*
X136441700Y-122477483D01*
X136400423Y-122548975D01*
X136386781Y-122599885D01*
X136359499Y-122701704D01*
X136359499Y-122701706D01*
X136359499Y-122869807D01*
X136359500Y-122869820D01*
X136359500Y-123942569D01*
X136359499Y-123942587D01*
X136359499Y-124108293D01*
X136359498Y-124108293D01*
X136359499Y-124108296D01*
X136400423Y-124261024D01*
X136423170Y-124300423D01*
X136479477Y-124397951D01*
X136479481Y-124397956D01*
X136598349Y-124516824D01*
X136598355Y-124516829D01*
X137305900Y-125224374D01*
X137305910Y-125224385D01*
X137310240Y-125228715D01*
X137310241Y-125228716D01*
X137422045Y-125340520D01*
X137422047Y-125340521D01*
X137422051Y-125340524D01*
X137558970Y-125419573D01*
X137558977Y-125419577D01*
X137670780Y-125449534D01*
X137711703Y-125460500D01*
X137711704Y-125460500D01*
X140852570Y-125460500D01*
X140852586Y-125460501D01*
X140860182Y-125460501D01*
X141018293Y-125460501D01*
X141018296Y-125460501D01*
X141171024Y-125419577D01*
X141221143Y-125390639D01*
X141307955Y-125340520D01*
X141419759Y-125228716D01*
X141419759Y-125228714D01*
X141429967Y-125218507D01*
X141429969Y-125218504D01*
X142517006Y-124131467D01*
X142517011Y-124131463D01*
X142527214Y-124121259D01*
X142527216Y-124121259D01*
X142639020Y-124009455D01*
X142718077Y-123872523D01*
X142759000Y-123719796D01*
X142759000Y-121423999D01*
X142778685Y-121356960D01*
X142831489Y-121311205D01*
X142883000Y-121299999D01*
X143242286Y-121299999D01*
X143242308Y-121299997D01*
X143267369Y-121297091D01*
X143267373Y-121297090D01*
X143369974Y-121251788D01*
X143369979Y-121251785D01*
X143449288Y-121172476D01*
X143455669Y-121163162D01*
X143509795Y-121118979D01*
X143579216Y-121111073D01*
X143641891Y-121141954D01*
X143674150Y-121189905D01*
X143693703Y-121242330D01*
X143693706Y-121242335D01*
X143779952Y-121357544D01*
X143779955Y-121357547D01*
X143895164Y-121443793D01*
X143895171Y-121443797D01*
X144030017Y-121494091D01*
X144030016Y-121494091D01*
X144036944Y-121494835D01*
X144089627Y-121500500D01*
X145085372Y-121500499D01*
X145144983Y-121494091D01*
X145279831Y-121443796D01*
X145395046Y-121357546D01*
X145455276Y-121277089D01*
X145481294Y-121242334D01*
X145481294Y-121242333D01*
X145481296Y-121242331D01*
X145484582Y-121233518D01*
X145526450Y-121177585D01*
X145538755Y-121169468D01*
X145606216Y-121130520D01*
X145718020Y-121018716D01*
X145819020Y-120917716D01*
X145898077Y-120780784D01*
X145903436Y-120760784D01*
X145919057Y-120702489D01*
X145919941Y-120699185D01*
X145939001Y-120628057D01*
X145939001Y-120469942D01*
X145939001Y-120462347D01*
X145939000Y-120462329D01*
X145939000Y-118819942D01*
X145936995Y-118812459D01*
X145936994Y-118812454D01*
X145898077Y-118667215D01*
X145869139Y-118617095D01*
X145819020Y-118530284D01*
X145707216Y-118418480D01*
X145707215Y-118418479D01*
X145702885Y-118414149D01*
X145702874Y-118414139D01*
X143641916Y-116353181D01*
X143608431Y-116291858D01*
X143613415Y-116222166D01*
X143655287Y-116166233D01*
X143720751Y-116141816D01*
X143729597Y-116141500D01*
X144670860Y-116141500D01*
X144670876Y-116141501D01*
X144678472Y-116141501D01*
X144836583Y-116141501D01*
X144836586Y-116141501D01*
X144989314Y-116100577D01*
X145056505Y-116061784D01*
X145126245Y-116021520D01*
X145238049Y-115909716D01*
X145238049Y-115909714D01*
X145248253Y-115899511D01*
X145248256Y-115899506D01*
X147867821Y-113279942D01*
X147929142Y-113246459D01*
X147998834Y-113251443D01*
G37*
%TD.AperFunction*%
%TA.AperFunction,Conductor*%
G36*
X140134075Y-128462993D02*
G01*
X140199901Y-128577007D01*
X140292993Y-128670099D01*
X140407007Y-128735925D01*
X140470590Y-128752962D01*
X139981466Y-129242085D01*
X139981757Y-129245771D01*
X139967393Y-129314149D01*
X139918341Y-129363905D01*
X139858139Y-129379500D01*
X139524886Y-129379500D01*
X139457847Y-129359815D01*
X139412092Y-129307011D01*
X139402148Y-129237853D01*
X139404060Y-129227765D01*
X139404090Y-129227485D01*
X139404091Y-129227483D01*
X139410500Y-129167873D01*
X139410499Y-128970919D01*
X139430183Y-128903883D01*
X139482987Y-128858128D01*
X139552145Y-128848184D01*
X139615701Y-128877209D01*
X139625953Y-128888378D01*
X139627913Y-128888533D01*
X140117037Y-128399409D01*
X140134075Y-128462993D01*
G37*
%TD.AperFunction*%
%TA.AperFunction,Conductor*%
G36*
X141572085Y-128888533D02*
G01*
X141572085Y-128888532D01*
X141583566Y-128872732D01*
X141650551Y-128741270D01*
X141698526Y-128690474D01*
X141766347Y-128673679D01*
X141832482Y-128696217D01*
X141875933Y-128750932D01*
X141878967Y-128759247D01*
X141888444Y-128788414D01*
X141984951Y-128977820D01*
X142109890Y-129149786D01*
X142127923Y-129167819D01*
X142161408Y-129229142D01*
X142156424Y-129298834D01*
X142114552Y-129354767D01*
X142049088Y-129379184D01*
X142040242Y-129379500D01*
X141341861Y-129379500D01*
X141274822Y-129359815D01*
X141229067Y-129307011D01*
X141218243Y-129245774D01*
X141218533Y-129242085D01*
X140729410Y-128752962D01*
X140792993Y-128735925D01*
X140907007Y-128670099D01*
X141000099Y-128577007D01*
X141065925Y-128462993D01*
X141082962Y-128399410D01*
X141572085Y-128888533D01*
G37*
%TD.AperFunction*%
%TA.AperFunction,Conductor*%
G36*
X150402085Y-124048532D02*
G01*
X150425598Y-124046682D01*
X150430513Y-124042893D01*
X150500126Y-124036914D01*
X150561921Y-124069520D01*
X150596278Y-124130359D01*
X150599500Y-124158444D01*
X150599500Y-124930242D01*
X150579815Y-124997281D01*
X150527011Y-125043036D01*
X150457853Y-125052980D01*
X150394297Y-125023955D01*
X150387819Y-125017923D01*
X150309786Y-124939890D01*
X150137820Y-124814951D01*
X149948414Y-124718444D01*
X149948413Y-124718443D01*
X149948412Y-124718443D01*
X149919246Y-124708966D01*
X149861571Y-124669529D01*
X149834373Y-124605171D01*
X149846288Y-124536324D01*
X149893532Y-124484849D01*
X149901270Y-124480551D01*
X150032732Y-124413566D01*
X150048532Y-124402085D01*
X150048533Y-124402085D01*
X149559410Y-123912962D01*
X149622993Y-123895925D01*
X149737007Y-123830099D01*
X149830099Y-123737007D01*
X149895925Y-123622993D01*
X149912962Y-123559409D01*
X150402085Y-124048532D01*
G37*
%TD.AperFunction*%
%TA.AperFunction,Conductor*%
G36*
X131304075Y-123622993D02*
G01*
X131369901Y-123737007D01*
X131462993Y-123830099D01*
X131577007Y-123895925D01*
X131640590Y-123912962D01*
X131151466Y-124402085D01*
X131151466Y-124402086D01*
X131167267Y-124413566D01*
X131167275Y-124413571D01*
X131298729Y-124480551D01*
X131349525Y-124528526D01*
X131366320Y-124596347D01*
X131343782Y-124662482D01*
X131289067Y-124705933D01*
X131280761Y-124708964D01*
X131270716Y-124712227D01*
X131251583Y-124718444D01*
X131062179Y-124814951D01*
X130890213Y-124939890D01*
X130890209Y-124939894D01*
X130812181Y-125017923D01*
X130750858Y-125051408D01*
X130681166Y-125046424D01*
X130625233Y-125004552D01*
X130600816Y-124939088D01*
X130600500Y-124930242D01*
X130600500Y-124158449D01*
X130620185Y-124091410D01*
X130672989Y-124045655D01*
X130742147Y-124035711D01*
X130764457Y-124045900D01*
X130797913Y-124048533D01*
X131287037Y-123559409D01*
X131304075Y-123622993D01*
G37*
%TD.AperFunction*%
%TA.AperFunction,Conductor*%
G36*
X138618018Y-122620579D02*
G01*
X138618289Y-122620501D01*
X138651646Y-122630453D01*
X138684788Y-122640185D01*
X138685035Y-122640415D01*
X138685242Y-122640477D01*
X138711814Y-122663706D01*
X138714532Y-122666871D01*
X138759954Y-122727546D01*
X138778701Y-122741580D01*
X138787565Y-122751900D01*
X138816314Y-122815581D01*
X138817500Y-122832694D01*
X138817500Y-122870000D01*
X139058333Y-122870000D01*
X139066311Y-122870427D01*
X139066317Y-122870322D01*
X139069602Y-122870497D01*
X139069627Y-122870500D01*
X139443502Y-122870499D01*
X139452186Y-122873049D01*
X139461147Y-122871761D01*
X139485183Y-122882738D01*
X139510539Y-122890183D01*
X139516467Y-122897025D01*
X139524703Y-122900786D01*
X139538989Y-122923017D01*
X139556294Y-122942987D01*
X139558581Y-122953502D01*
X139562477Y-122959564D01*
X139567500Y-122994499D01*
X139567500Y-123225500D01*
X139547815Y-123292539D01*
X139495011Y-123338294D01*
X139443500Y-123349500D01*
X138379766Y-123349500D01*
X138312727Y-123329815D01*
X138310875Y-123328602D01*
X138179185Y-123240609D01*
X138179172Y-123240602D01*
X138033501Y-123180264D01*
X138033489Y-123180261D01*
X137878845Y-123149500D01*
X137878842Y-123149500D01*
X137739858Y-123149500D01*
X137672819Y-123129815D01*
X137627064Y-123077011D01*
X137617120Y-123007853D01*
X137646145Y-122944297D01*
X137652177Y-122937819D01*
X137765708Y-122824289D01*
X137933178Y-122656819D01*
X137994501Y-122623334D01*
X138020859Y-122620500D01*
X138617749Y-122620500D01*
X138618018Y-122620579D01*
G37*
%TD.AperFunction*%
%TA.AperFunction,Conductor*%
G36*
X130805703Y-121836045D02*
G01*
X130812181Y-121842077D01*
X130890213Y-121920109D01*
X131062179Y-122045048D01*
X131062181Y-122045049D01*
X131062184Y-122045051D01*
X131251588Y-122141557D01*
X131280753Y-122151033D01*
X131338426Y-122190468D01*
X131365625Y-122254826D01*
X131353712Y-122323673D01*
X131306469Y-122375149D01*
X131298730Y-122379447D01*
X131167269Y-122446431D01*
X131151466Y-122457912D01*
X131151466Y-122457913D01*
X131640591Y-122947037D01*
X131577007Y-122964075D01*
X131462993Y-123029901D01*
X131369901Y-123122993D01*
X131304075Y-123237007D01*
X131287037Y-123300590D01*
X130797913Y-122811466D01*
X130774387Y-122813318D01*
X130769487Y-122817097D01*
X130699874Y-122823076D01*
X130638079Y-122790470D01*
X130603722Y-122729631D01*
X130600500Y-122701546D01*
X130600500Y-121929758D01*
X130620185Y-121862719D01*
X130672989Y-121816964D01*
X130742147Y-121807020D01*
X130805703Y-121836045D01*
G37*
%TD.AperFunction*%
%TA.AperFunction,Conductor*%
G36*
X150518834Y-121813576D02*
G01*
X150574767Y-121855448D01*
X150599184Y-121920912D01*
X150599500Y-121929758D01*
X150599500Y-122701551D01*
X150579815Y-122768590D01*
X150527011Y-122814345D01*
X150457853Y-122824289D01*
X150435540Y-122814099D01*
X150402085Y-122811466D01*
X149912962Y-123300589D01*
X149895925Y-123237007D01*
X149830099Y-123122993D01*
X149737007Y-123029901D01*
X149622993Y-122964075D01*
X149559409Y-122947037D01*
X150048533Y-122457913D01*
X150032727Y-122446429D01*
X149901269Y-122379447D01*
X149850474Y-122331473D01*
X149833679Y-122263651D01*
X149856217Y-122197517D01*
X149910932Y-122154066D01*
X149919216Y-122151043D01*
X149948412Y-122141557D01*
X150137816Y-122045051D01*
X150159789Y-122029086D01*
X150309786Y-121920109D01*
X150309788Y-121920106D01*
X150309792Y-121920104D01*
X150387819Y-121842077D01*
X150449142Y-121808592D01*
X150518834Y-121813576D01*
G37*
%TD.AperFunction*%
%TA.AperFunction,Conductor*%
G36*
X138612661Y-117516353D02*
G01*
X138655853Y-117571274D01*
X138656918Y-117574029D01*
X138671202Y-117612328D01*
X138671206Y-117612335D01*
X138757451Y-117727543D01*
X138757452Y-117727544D01*
X138757454Y-117727546D01*
X138765312Y-117733428D01*
X138807182Y-117789361D01*
X138815000Y-117832694D01*
X138815000Y-117870000D01*
X139055833Y-117870000D01*
X139063811Y-117870427D01*
X139063817Y-117870322D01*
X139067102Y-117870497D01*
X139067127Y-117870500D01*
X139441002Y-117870499D01*
X139449686Y-117873049D01*
X139458647Y-117871761D01*
X139482683Y-117882738D01*
X139508039Y-117890183D01*
X139513967Y-117897025D01*
X139522203Y-117900786D01*
X139536489Y-117923017D01*
X139553794Y-117942987D01*
X139556081Y-117953502D01*
X139559977Y-117959564D01*
X139565000Y-117994499D01*
X139565000Y-118144500D01*
X139545315Y-118211539D01*
X139492511Y-118257294D01*
X139441000Y-118268500D01*
X138799443Y-118268500D01*
X138646715Y-118309423D01*
X138613962Y-118328333D01*
X138613961Y-118328334D01*
X138605987Y-118332938D01*
X138571853Y-118352645D01*
X138503953Y-118369116D01*
X138437926Y-118346264D01*
X138422173Y-118332938D01*
X138358735Y-118269500D01*
X138240521Y-118151285D01*
X138240520Y-118151284D01*
X138128716Y-118039480D01*
X138041904Y-117989360D01*
X138041904Y-117989359D01*
X138041900Y-117989358D01*
X137991785Y-117960423D01*
X137839057Y-117919499D01*
X137839054Y-117919499D01*
X137794402Y-117919499D01*
X137727363Y-117899814D01*
X137691300Y-117864389D01*
X137623815Y-117763390D01*
X137602937Y-117696713D01*
X137621422Y-117629333D01*
X137673401Y-117582643D01*
X137726917Y-117570500D01*
X138126331Y-117570500D01*
X138126347Y-117570501D01*
X138133943Y-117570501D01*
X138292054Y-117570501D01*
X138292057Y-117570501D01*
X138444785Y-117529577D01*
X138478734Y-117509975D01*
X138546634Y-117493502D01*
X138612661Y-117516353D01*
G37*
%TD.AperFunction*%
%TA.AperFunction,Conductor*%
G36*
X141853039Y-114009685D02*
G01*
X141898794Y-114062489D01*
X141910000Y-114114000D01*
X141910000Y-114117229D01*
X141909999Y-114117229D01*
X141942076Y-114140903D01*
X141942079Y-114140905D01*
X142067267Y-114184711D01*
X142074643Y-114186322D01*
X142074330Y-114187752D01*
X142081838Y-114190742D01*
X142098285Y-114191919D01*
X142113627Y-114203404D01*
X142131431Y-114210495D01*
X142141018Y-114223908D01*
X142154219Y-114233790D01*
X142160916Y-114251746D01*
X142172060Y-114267337D01*
X142172873Y-114283805D01*
X142178636Y-114299255D01*
X142174562Y-114317981D01*
X142175508Y-114337122D01*
X142167156Y-114352023D01*
X142163784Y-114367528D01*
X142142634Y-114395782D01*
X141991682Y-114546735D01*
X141930358Y-114580220D01*
X141860667Y-114575236D01*
X141804733Y-114533365D01*
X141793649Y-114503649D01*
X141780000Y-114490000D01*
X140904000Y-114490000D01*
X140836961Y-114470315D01*
X140791206Y-114417511D01*
X140780000Y-114366000D01*
X140780000Y-114114000D01*
X140799685Y-114046961D01*
X140852489Y-114001206D01*
X140904000Y-113990000D01*
X141786000Y-113990000D01*
X141853039Y-114009685D01*
G37*
%TD.AperFunction*%
%TA.AperFunction,Conductor*%
G36*
X143722301Y-113107312D02*
G01*
X143736058Y-113111194D01*
X143741510Y-113114342D01*
X143853313Y-113144299D01*
X143894236Y-113155265D01*
X143894237Y-113155265D01*
X145268892Y-113155265D01*
X145335931Y-113174950D01*
X145337783Y-113176163D01*
X145470138Y-113264600D01*
X145470151Y-113264607D01*
X145615822Y-113324945D01*
X145615827Y-113324947D01*
X145709451Y-113343570D01*
X145770477Y-113355709D01*
X145770480Y-113355710D01*
X145794221Y-113355710D01*
X145861260Y-113375395D01*
X145907015Y-113428199D01*
X145916959Y-113497357D01*
X145887934Y-113560913D01*
X145881902Y-113567391D01*
X145328367Y-114120926D01*
X145267044Y-114154411D01*
X145197352Y-114149427D01*
X145153005Y-114120926D01*
X145040292Y-114008213D01*
X145040288Y-114008210D01*
X144909185Y-113920609D01*
X144909172Y-113920602D01*
X144763501Y-113860264D01*
X144763489Y-113860261D01*
X144608845Y-113829500D01*
X144608842Y-113829500D01*
X144451158Y-113829500D01*
X144451155Y-113829500D01*
X144296510Y-113860261D01*
X144296498Y-113860264D01*
X144150827Y-113920602D01*
X144150814Y-113920609D01*
X144019711Y-114008210D01*
X144019707Y-114008213D01*
X143908213Y-114119707D01*
X143908210Y-114119711D01*
X143820609Y-114250814D01*
X143820602Y-114250827D01*
X143809061Y-114278692D01*
X143765220Y-114333096D01*
X143698926Y-114355161D01*
X143631227Y-114337882D01*
X143583616Y-114286745D01*
X143570500Y-114231240D01*
X143570500Y-113264915D01*
X143570500Y-113264914D01*
X143568848Y-113258749D01*
X143569012Y-113251843D01*
X143566076Y-113245590D01*
X143569830Y-113217365D01*
X143570507Y-113188900D01*
X143574379Y-113183178D01*
X143575290Y-113176331D01*
X143593706Y-113154619D01*
X143609667Y-113131035D01*
X143616018Y-113128314D01*
X143620486Y-113123048D01*
X143647718Y-113114739D01*
X143673895Y-113103529D01*
X143681175Y-113104531D01*
X143687315Y-113102658D01*
X143722301Y-113107312D01*
G37*
%TD.AperFunction*%
%TA.AperFunction,Conductor*%
G36*
X132742085Y-111348532D02*
G01*
X132747251Y-111348126D01*
X132750978Y-111345252D01*
X132762180Y-111330290D01*
X132778072Y-111324362D01*
X132791507Y-111314004D01*
X132810130Y-111312405D01*
X132827644Y-111305873D01*
X132844219Y-111309478D01*
X132861120Y-111308028D01*
X132877651Y-111316751D01*
X132895917Y-111320725D01*
X132921560Y-111339921D01*
X132922914Y-111340636D01*
X132924171Y-111341876D01*
X132933181Y-111350886D01*
X132966666Y-111412209D01*
X132969500Y-111438567D01*
X132969500Y-112260242D01*
X132949815Y-112327281D01*
X132897011Y-112373036D01*
X132827853Y-112382980D01*
X132764297Y-112353955D01*
X132757819Y-112347923D01*
X132649786Y-112239890D01*
X132477820Y-112114951D01*
X132288414Y-112018444D01*
X132288413Y-112018443D01*
X132288412Y-112018443D01*
X132259246Y-112008966D01*
X132201571Y-111969529D01*
X132174373Y-111905171D01*
X132186288Y-111836324D01*
X132233532Y-111784849D01*
X132241270Y-111780551D01*
X132372732Y-111713566D01*
X132388532Y-111702085D01*
X132388533Y-111702085D01*
X131899410Y-111212962D01*
X131962993Y-111195925D01*
X132077007Y-111130099D01*
X132170099Y-111037007D01*
X132235925Y-110922993D01*
X132252962Y-110859409D01*
X132742085Y-111348532D01*
G37*
%TD.AperFunction*%
%TA.AperFunction,Conductor*%
G36*
X150402085Y-111348532D02*
G01*
X150425598Y-111346682D01*
X150430513Y-111342893D01*
X150500126Y-111336914D01*
X150561921Y-111369520D01*
X150596278Y-111430359D01*
X150599500Y-111458444D01*
X150599500Y-112230242D01*
X150579815Y-112297281D01*
X150527011Y-112343036D01*
X150457853Y-112352980D01*
X150394297Y-112323955D01*
X150387819Y-112317923D01*
X150309786Y-112239890D01*
X150137820Y-112114951D01*
X149948414Y-112018444D01*
X149948413Y-112018443D01*
X149948412Y-112018443D01*
X149919246Y-112008966D01*
X149861571Y-111969529D01*
X149834373Y-111905171D01*
X149846288Y-111836324D01*
X149893532Y-111784849D01*
X149901270Y-111780551D01*
X150032732Y-111713566D01*
X150048532Y-111702085D01*
X149559409Y-111212962D01*
X149622993Y-111195925D01*
X149737007Y-111130099D01*
X149830099Y-111037007D01*
X149895925Y-110922993D01*
X149912962Y-110859409D01*
X150402085Y-111348532D01*
G37*
%TD.AperFunction*%
%TA.AperFunction,Conductor*%
G36*
X131304075Y-110922993D02*
G01*
X131369901Y-111037007D01*
X131462993Y-111130099D01*
X131577007Y-111195925D01*
X131640590Y-111212962D01*
X131151466Y-111702085D01*
X131151466Y-111702086D01*
X131167267Y-111713566D01*
X131167275Y-111713571D01*
X131298729Y-111780551D01*
X131349525Y-111828526D01*
X131366320Y-111896347D01*
X131343782Y-111962482D01*
X131289067Y-112005933D01*
X131280761Y-112008964D01*
X131270716Y-112012227D01*
X131251583Y-112018444D01*
X131062179Y-112114951D01*
X130890213Y-112239890D01*
X130890209Y-112239894D01*
X130812181Y-112317923D01*
X130750858Y-112351408D01*
X130681166Y-112346424D01*
X130625233Y-112304552D01*
X130600816Y-112239088D01*
X130600500Y-112230242D01*
X130600500Y-111458449D01*
X130620185Y-111391410D01*
X130672989Y-111345655D01*
X130742147Y-111335711D01*
X130764457Y-111345900D01*
X130797913Y-111348533D01*
X131287037Y-110859409D01*
X131304075Y-110922993D01*
G37*
%TD.AperFunction*%
%TA.AperFunction,Conductor*%
G36*
X130805703Y-109136045D02*
G01*
X130812181Y-109142077D01*
X130890213Y-109220109D01*
X131062179Y-109345048D01*
X131062181Y-109345049D01*
X131062184Y-109345051D01*
X131251588Y-109441557D01*
X131280753Y-109451033D01*
X131338426Y-109490468D01*
X131365625Y-109554826D01*
X131353712Y-109623673D01*
X131306469Y-109675149D01*
X131298730Y-109679447D01*
X131167269Y-109746431D01*
X131151466Y-109757912D01*
X131151466Y-109757913D01*
X131640590Y-110247037D01*
X131577007Y-110264075D01*
X131462993Y-110329901D01*
X131369901Y-110422993D01*
X131304075Y-110537007D01*
X131287037Y-110600590D01*
X130797913Y-110111466D01*
X130774387Y-110113318D01*
X130769487Y-110117097D01*
X130699874Y-110123076D01*
X130638079Y-110090470D01*
X130603722Y-110029631D01*
X130600500Y-110001546D01*
X130600500Y-109229758D01*
X130620185Y-109162719D01*
X130672989Y-109116964D01*
X130742147Y-109107020D01*
X130805703Y-109136045D01*
G37*
%TD.AperFunction*%
%TA.AperFunction,Conductor*%
G36*
X150518834Y-109113576D02*
G01*
X150574767Y-109155448D01*
X150599184Y-109220912D01*
X150599500Y-109229758D01*
X150599500Y-110001551D01*
X150579815Y-110068590D01*
X150527011Y-110114345D01*
X150457853Y-110124289D01*
X150435540Y-110114099D01*
X150402085Y-110111466D01*
X149912962Y-110600589D01*
X149895925Y-110537007D01*
X149830099Y-110422993D01*
X149737007Y-110329901D01*
X149622993Y-110264075D01*
X149559408Y-110247037D01*
X150048533Y-109757913D01*
X150032727Y-109746429D01*
X149901269Y-109679447D01*
X149850474Y-109631473D01*
X149833679Y-109563651D01*
X149856217Y-109497517D01*
X149910932Y-109454066D01*
X149919216Y-109451043D01*
X149948412Y-109441557D01*
X150137816Y-109345051D01*
X150159789Y-109329086D01*
X150309786Y-109220109D01*
X150309788Y-109220106D01*
X150309792Y-109220104D01*
X150387819Y-109142077D01*
X150449142Y-109108592D01*
X150518834Y-109113576D01*
G37*
%TD.AperFunction*%
%TA.AperFunction,Conductor*%
G36*
X139894163Y-104369842D02*
G01*
X139901507Y-104371873D01*
X139961125Y-104396568D01*
X140066666Y-104417561D01*
X140071060Y-104418777D01*
X140097031Y-104434896D01*
X140124102Y-104449057D01*
X140126428Y-104453142D01*
X140130425Y-104455623D01*
X140141102Y-104469398D01*
X140226888Y-104597787D01*
X140338385Y-104709284D01*
X140338389Y-104709287D01*
X140469492Y-104796888D01*
X140469505Y-104796895D01*
X140615176Y-104857233D01*
X140615181Y-104857235D01*
X140769831Y-104887997D01*
X140769834Y-104887998D01*
X140769836Y-104887998D01*
X140927522Y-104887998D01*
X140927523Y-104887997D01*
X141082175Y-104857235D01*
X141201228Y-104807921D01*
X141270695Y-104800453D01*
X141296128Y-104807920D01*
X141415184Y-104857235D01*
X141569834Y-104887997D01*
X141569837Y-104887998D01*
X141666996Y-104887998D01*
X141734035Y-104907683D01*
X141779790Y-104960487D01*
X141789734Y-105029645D01*
X141788613Y-105036189D01*
X141779493Y-105082037D01*
X141779493Y-105239730D01*
X141810254Y-105394373D01*
X141810257Y-105394385D01*
X141861544Y-105518205D01*
X141869013Y-105587675D01*
X141861545Y-105613109D01*
X141814213Y-105727380D01*
X141814212Y-105727383D01*
X141814212Y-105727384D01*
X141814211Y-105727387D01*
X141783450Y-105882030D01*
X141783450Y-106039723D01*
X141814211Y-106194366D01*
X141814214Y-106194378D01*
X141870486Y-106330232D01*
X141877955Y-106399701D01*
X141870487Y-106425136D01*
X141828186Y-106527261D01*
X141828185Y-106527264D01*
X141828185Y-106527265D01*
X141828184Y-106527268D01*
X141797423Y-106681911D01*
X141797423Y-106839604D01*
X141828184Y-106994247D01*
X141828187Y-106994259D01*
X141888525Y-107139930D01*
X141888532Y-107139943D01*
X141976133Y-107271046D01*
X141976136Y-107271050D01*
X142087630Y-107382544D01*
X142087634Y-107382547D01*
X142218737Y-107470148D01*
X142218750Y-107470155D01*
X142221181Y-107471162D01*
X142222258Y-107472030D01*
X142224114Y-107473022D01*
X142223925Y-107473373D01*
X142275585Y-107515002D01*
X142297650Y-107581297D01*
X142287171Y-107635792D01*
X142282816Y-107645657D01*
X142270606Y-107663932D01*
X142210263Y-107809614D01*
X142210108Y-107810392D01*
X142206811Y-107817863D01*
X142185620Y-107842957D01*
X142165326Y-107868780D01*
X142163190Y-107869519D01*
X142161733Y-107871246D01*
X142130339Y-107880900D01*
X142099305Y-107891652D01*
X142097109Y-107891119D01*
X142094950Y-107891784D01*
X142063317Y-107882932D01*
X142031400Y-107875199D01*
X142029575Y-107873490D01*
X142027665Y-107872956D01*
X142021009Y-107865469D01*
X141990267Y-107836685D01*
X141950274Y-107776832D01*
X141950271Y-107776828D01*
X141838777Y-107665334D01*
X141838773Y-107665331D01*
X141707670Y-107577730D01*
X141707657Y-107577723D01*
X141561986Y-107517385D01*
X141561974Y-107517382D01*
X141407330Y-107486621D01*
X141407327Y-107486621D01*
X141249643Y-107486621D01*
X141249640Y-107486621D01*
X141094995Y-107517382D01*
X141094983Y-107517385D01*
X140949312Y-107577723D01*
X140949299Y-107577730D01*
X140818196Y-107665331D01*
X140818192Y-107665334D01*
X140706698Y-107776828D01*
X140706692Y-107776836D01*
X140669612Y-107832331D01*
X140616000Y-107877137D01*
X140566510Y-107887441D01*
X140557616Y-107887441D01*
X140402971Y-107918202D01*
X140402968Y-107918203D01*
X140402967Y-107918203D01*
X140402964Y-107918204D01*
X140339955Y-107944303D01*
X140302802Y-107959692D01*
X140233332Y-107967160D01*
X140170853Y-107935884D01*
X140152248Y-107914021D01*
X140073594Y-107796308D01*
X140073591Y-107796304D01*
X139962097Y-107684810D01*
X139962093Y-107684807D01*
X139830990Y-107597206D01*
X139830977Y-107597199D01*
X139685306Y-107536861D01*
X139685294Y-107536858D01*
X139530650Y-107506097D01*
X139530647Y-107506097D01*
X139372963Y-107506097D01*
X139295710Y-107521463D01*
X139226119Y-107515234D01*
X139170942Y-107472371D01*
X139147698Y-107406481D01*
X139149903Y-107375653D01*
X139180498Y-107221845D01*
X139180498Y-107064156D01*
X139180497Y-107064154D01*
X139173800Y-107030486D01*
X139149735Y-106909504D01*
X139108318Y-106809514D01*
X139089395Y-106763828D01*
X139089393Y-106763824D01*
X139089392Y-106763822D01*
X139046457Y-106699565D01*
X139025579Y-106632888D01*
X139034998Y-106583221D01*
X139037590Y-106576964D01*
X139059737Y-106523497D01*
X139090500Y-106368842D01*
X139090500Y-106211158D01*
X139090500Y-106211155D01*
X139090499Y-106211153D01*
X139068417Y-106100142D01*
X139059737Y-106056503D01*
X139052785Y-106039719D01*
X138999397Y-105910827D01*
X138999390Y-105910814D01*
X138911789Y-105779711D01*
X138911786Y-105779707D01*
X138816479Y-105684400D01*
X138801775Y-105657472D01*
X138785183Y-105631654D01*
X138784291Y-105625453D01*
X138782994Y-105623077D01*
X138780160Y-105596719D01*
X138780160Y-105525926D01*
X138799845Y-105458887D01*
X138835269Y-105422824D01*
X138842297Y-105418129D01*
X138953797Y-105306629D01*
X139041402Y-105175519D01*
X139101745Y-105029837D01*
X139132508Y-104875182D01*
X139132508Y-104831739D01*
X139152193Y-104764700D01*
X139187615Y-104728638D01*
X139215078Y-104710289D01*
X139326578Y-104598789D01*
X139363704Y-104543227D01*
X139417316Y-104498421D01*
X139466806Y-104488117D01*
X139475776Y-104488117D01*
X139475777Y-104488116D01*
X139630429Y-104457354D01*
X139776111Y-104397011D01*
X139792211Y-104386252D01*
X139792342Y-104386211D01*
X139792431Y-104386105D01*
X139792433Y-104386104D01*
X139825899Y-104375703D01*
X139858888Y-104365374D01*
X139859043Y-104365403D01*
X139859154Y-104365369D01*
X139894163Y-104369842D01*
G37*
%TD.AperFunction*%
%TA.AperFunction,Conductor*%
G36*
X136675378Y-100283787D02*
G01*
X136719666Y-100337827D01*
X136729500Y-100386223D01*
X136729500Y-100593102D01*
X136709815Y-100660141D01*
X136657011Y-100705896D01*
X136605500Y-100717102D01*
X136505612Y-100717102D01*
X136350967Y-100747863D01*
X136350955Y-100747866D01*
X136205284Y-100808204D01*
X136205271Y-100808211D01*
X136074168Y-100895812D01*
X136074164Y-100895815D01*
X135962670Y-101007309D01*
X135962664Y-101007317D01*
X135874873Y-101138705D01*
X135874852Y-101138806D01*
X135874430Y-101139369D01*
X135871679Y-101143487D01*
X135871458Y-101143339D01*
X135853702Y-101167062D01*
X135841286Y-101179478D01*
X135729481Y-101291282D01*
X135729477Y-101291287D01*
X135686236Y-101366185D01*
X135686236Y-101366186D01*
X135650423Y-101428214D01*
X135650423Y-101428215D01*
X135609499Y-101580943D01*
X135609499Y-101580945D01*
X135609499Y-101749046D01*
X135609500Y-101749059D01*
X135609500Y-101973384D01*
X135589815Y-102040423D01*
X135537011Y-102086178D01*
X135532401Y-102086840D01*
X135500000Y-102109830D01*
X135500000Y-102209145D01*
X135482734Y-102272263D01*
X135477507Y-102281100D01*
X135477504Y-102281108D01*
X135432357Y-102436502D01*
X135432356Y-102436508D01*
X135429500Y-102472802D01*
X135429500Y-102583500D01*
X135426949Y-102592185D01*
X135428238Y-102601147D01*
X135417259Y-102625187D01*
X135409815Y-102650539D01*
X135402974Y-102656466D01*
X135399213Y-102664703D01*
X135376978Y-102678992D01*
X135357011Y-102696294D01*
X135346496Y-102698581D01*
X135340435Y-102702477D01*
X135305500Y-102707500D01*
X135124000Y-102707500D01*
X135056961Y-102687815D01*
X135011206Y-102635011D01*
X135000000Y-102583500D01*
X135000000Y-102109830D01*
X134999999Y-102109830D01*
X134902079Y-102144094D01*
X134848134Y-102183908D01*
X134782505Y-102207879D01*
X134714335Y-102192564D01*
X134665266Y-102142824D01*
X134650500Y-102084138D01*
X134650500Y-101344744D01*
X134650501Y-101344731D01*
X134650501Y-101176630D01*
X134650501Y-101176628D01*
X134609577Y-101023900D01*
X134595521Y-100999555D01*
X134576321Y-100966299D01*
X134576321Y-100966298D01*
X134530524Y-100886975D01*
X134530521Y-100886971D01*
X134530520Y-100886969D01*
X134418716Y-100775165D01*
X134418715Y-100775164D01*
X134414385Y-100770834D01*
X134414374Y-100770824D01*
X134176385Y-100532835D01*
X134142900Y-100471512D01*
X134147884Y-100401820D01*
X134189756Y-100345887D01*
X134255220Y-100321470D01*
X134300949Y-100326767D01*
X134452804Y-100374086D01*
X134523384Y-100380500D01*
X134523387Y-100380500D01*
X136236613Y-100380500D01*
X136236616Y-100380500D01*
X136307196Y-100374086D01*
X136469606Y-100323478D01*
X136541350Y-100280106D01*
X136608904Y-100262270D01*
X136675378Y-100283787D01*
G37*
%TD.AperFunction*%
%TA.AperFunction,Conductor*%
G36*
X142718463Y-100387185D02*
G01*
X142720315Y-100388398D01*
X142740814Y-100402095D01*
X142740827Y-100402102D01*
X142886498Y-100462440D01*
X142886503Y-100462442D01*
X143041153Y-100493204D01*
X143041156Y-100493205D01*
X143146000Y-100493205D01*
X143154685Y-100495755D01*
X143163647Y-100494467D01*
X143187687Y-100505445D01*
X143213039Y-100512890D01*
X143218966Y-100519730D01*
X143227203Y-100523492D01*
X143241492Y-100545726D01*
X143258794Y-100565694D01*
X143261081Y-100576208D01*
X143264977Y-100582270D01*
X143270000Y-100617205D01*
X143270000Y-100705500D01*
X143250315Y-100772539D01*
X143197511Y-100818294D01*
X143146000Y-100829500D01*
X143035302Y-100829500D01*
X142999008Y-100832356D01*
X142999002Y-100832357D01*
X142866798Y-100870767D01*
X142796929Y-100870568D01*
X142769082Y-100858423D01*
X142763811Y-100855306D01*
X142746397Y-100845006D01*
X142746391Y-100845004D01*
X142590997Y-100799857D01*
X142590991Y-100799856D01*
X142554697Y-100797000D01*
X142554690Y-100797000D01*
X142138875Y-100797000D01*
X142135948Y-100796140D01*
X142132984Y-100796860D01*
X142102635Y-100786358D01*
X142071836Y-100777315D01*
X142069839Y-100775010D01*
X142066956Y-100774013D01*
X142047100Y-100748768D01*
X142026081Y-100724511D01*
X142025647Y-100721492D01*
X142023761Y-100719095D01*
X142020706Y-100687131D01*
X142016137Y-100655353D01*
X142017404Y-100652578D01*
X142017114Y-100649542D01*
X142031825Y-100621000D01*
X142045162Y-100591797D01*
X142048148Y-100589330D01*
X142049125Y-100587437D01*
X142076834Y-100565645D01*
X142076867Y-100565618D01*
X142076873Y-100565614D01*
X142076875Y-100565613D01*
X142082132Y-100562578D01*
X142088920Y-100558658D01*
X142093169Y-100556205D01*
X142174031Y-100509520D01*
X142279732Y-100403819D01*
X142341055Y-100370334D01*
X142367413Y-100367500D01*
X142651424Y-100367500D01*
X142718463Y-100387185D01*
G37*
%TD.AperFunction*%
%TA.AperFunction,Conductor*%
G36*
X133675703Y-99209700D02*
G01*
X133682181Y-99215732D01*
X133706969Y-99240520D01*
X133793780Y-99290639D01*
X133793780Y-99290640D01*
X133817499Y-99304334D01*
X133865715Y-99354900D01*
X133879500Y-99411721D01*
X133879500Y-99736616D01*
X133885914Y-99807196D01*
X133903049Y-99862184D01*
X133933231Y-99959044D01*
X133934381Y-100028904D01*
X133897580Y-100088296D01*
X133834511Y-100118364D01*
X133765198Y-100109560D01*
X133727164Y-100083614D01*
X133506819Y-99863269D01*
X133473334Y-99801946D01*
X133470500Y-99775588D01*
X133470500Y-99303413D01*
X133490185Y-99236374D01*
X133542989Y-99190619D01*
X133612147Y-99180675D01*
X133675703Y-99209700D01*
G37*
%TD.AperFunction*%
%TA.AperFunction,Conductor*%
G36*
X150402085Y-98648532D02*
G01*
X150425598Y-98646682D01*
X150430513Y-98642893D01*
X150500126Y-98636914D01*
X150561921Y-98669520D01*
X150596278Y-98730359D01*
X150599500Y-98758444D01*
X150599500Y-99530242D01*
X150579815Y-99597281D01*
X150527011Y-99643036D01*
X150457853Y-99652980D01*
X150394297Y-99623955D01*
X150387819Y-99617923D01*
X150309786Y-99539890D01*
X150137820Y-99414951D01*
X149948414Y-99318444D01*
X149948413Y-99318443D01*
X149948412Y-99318443D01*
X149919246Y-99308966D01*
X149861571Y-99269529D01*
X149834373Y-99205171D01*
X149846288Y-99136324D01*
X149893532Y-99084849D01*
X149901270Y-99080551D01*
X150032732Y-99013566D01*
X150048532Y-99002085D01*
X150048533Y-99002085D01*
X149559410Y-98512962D01*
X149622993Y-98495925D01*
X149737007Y-98430099D01*
X149830099Y-98337007D01*
X149895925Y-98222993D01*
X149912962Y-98159409D01*
X150402085Y-98648532D01*
G37*
%TD.AperFunction*%
%TA.AperFunction,Conductor*%
G36*
X131304075Y-98222993D02*
G01*
X131369901Y-98337007D01*
X131462993Y-98430099D01*
X131577007Y-98495925D01*
X131640590Y-98512962D01*
X131151466Y-99002085D01*
X131151466Y-99002086D01*
X131167267Y-99013566D01*
X131167275Y-99013571D01*
X131298729Y-99080551D01*
X131349525Y-99128526D01*
X131366320Y-99196347D01*
X131343782Y-99262482D01*
X131289067Y-99305933D01*
X131280761Y-99308964D01*
X131270716Y-99312227D01*
X131251583Y-99318444D01*
X131062179Y-99414951D01*
X130890213Y-99539890D01*
X130890209Y-99539894D01*
X130812181Y-99617923D01*
X130750858Y-99651408D01*
X130681166Y-99646424D01*
X130625233Y-99604552D01*
X130600816Y-99539088D01*
X130600500Y-99530242D01*
X130600500Y-98758449D01*
X130620185Y-98691410D01*
X130672989Y-98645655D01*
X130742147Y-98635711D01*
X130764457Y-98645900D01*
X130797913Y-98648533D01*
X131287037Y-98159409D01*
X131304075Y-98222993D01*
G37*
%TD.AperFunction*%
%TA.AperFunction,Conductor*%
G36*
X148964075Y-98222993D02*
G01*
X149029901Y-98337007D01*
X149122993Y-98430099D01*
X149237007Y-98495925D01*
X149300590Y-98512962D01*
X148811466Y-99002085D01*
X148811466Y-99002086D01*
X148827267Y-99013566D01*
X148827275Y-99013571D01*
X148958729Y-99080551D01*
X149009525Y-99128526D01*
X149026320Y-99196347D01*
X149003782Y-99262482D01*
X148949067Y-99305933D01*
X148940761Y-99308964D01*
X148930716Y-99312227D01*
X148911583Y-99318444D01*
X148722179Y-99414951D01*
X148550213Y-99539890D01*
X148550209Y-99539894D01*
X148542181Y-99547923D01*
X148480858Y-99581408D01*
X148411166Y-99576424D01*
X148355233Y-99534552D01*
X148330816Y-99469088D01*
X148330500Y-99460242D01*
X148330500Y-98991667D01*
X148330500Y-98979161D01*
X148330501Y-98979158D01*
X148330501Y-98821043D01*
X148322379Y-98790733D01*
X148321823Y-98776964D01*
X148327092Y-98755905D01*
X148327609Y-98734203D01*
X148335407Y-98722679D01*
X148338785Y-98709185D01*
X148354600Y-98694320D01*
X148366770Y-98676340D01*
X148379560Y-98670862D01*
X148389698Y-98661335D01*
X148411040Y-98657380D01*
X148430998Y-98648834D01*
X148455451Y-98648339D01*
X148457914Y-98648532D01*
X148947037Y-98159409D01*
X148964075Y-98222993D01*
G37*
%TD.AperFunction*%
%TA.AperFunction,Conductor*%
G36*
X135362186Y-97793458D02*
G01*
X135392173Y-97799982D01*
X135397188Y-97803736D01*
X135399785Y-97804499D01*
X135420427Y-97821133D01*
X135547113Y-97947819D01*
X135580598Y-98009142D01*
X135575614Y-98078834D01*
X135533742Y-98134767D01*
X135468278Y-98159184D01*
X135459432Y-98159500D01*
X134375782Y-98159500D01*
X134308743Y-98139815D01*
X134288101Y-98123181D01*
X134161415Y-97996495D01*
X134127930Y-97935172D01*
X134132914Y-97865480D01*
X134174786Y-97809547D01*
X134240250Y-97785130D01*
X134249096Y-97784814D01*
X135332746Y-97784814D01*
X135362186Y-97793458D01*
G37*
%TD.AperFunction*%
%TA.AperFunction,Conductor*%
G36*
X130805703Y-96436045D02*
G01*
X130812181Y-96442077D01*
X130890213Y-96520109D01*
X131062179Y-96645048D01*
X131062181Y-96645049D01*
X131062184Y-96645051D01*
X131251588Y-96741557D01*
X131280753Y-96751033D01*
X131338426Y-96790468D01*
X131365625Y-96854826D01*
X131353712Y-96923673D01*
X131306469Y-96975149D01*
X131298730Y-96979447D01*
X131167269Y-97046431D01*
X131151466Y-97057912D01*
X131151466Y-97057913D01*
X131640591Y-97547037D01*
X131577007Y-97564075D01*
X131462993Y-97629901D01*
X131369901Y-97722993D01*
X131304075Y-97837007D01*
X131287037Y-97900590D01*
X130797913Y-97411466D01*
X130774387Y-97413318D01*
X130769487Y-97417097D01*
X130699874Y-97423076D01*
X130638079Y-97390470D01*
X130603722Y-97329631D01*
X130600500Y-97301546D01*
X130600500Y-96529758D01*
X130620185Y-96462719D01*
X130672989Y-96416964D01*
X130742147Y-96407020D01*
X130805703Y-96436045D01*
G37*
%TD.AperFunction*%
%TA.AperFunction,Conductor*%
G36*
X135613608Y-79400185D02*
G01*
X135659363Y-79452989D01*
X135669307Y-79522147D01*
X135649671Y-79573391D01*
X135571052Y-79691051D01*
X135571047Y-79691060D01*
X135510743Y-79836648D01*
X135510741Y-79836656D01*
X135480000Y-79991202D01*
X135480000Y-80120000D01*
X135980000Y-80120000D01*
X135980000Y-80620000D01*
X135480000Y-80620000D01*
X135480000Y-80748797D01*
X135510741Y-80903343D01*
X135510743Y-80903351D01*
X135571047Y-81048939D01*
X135571052Y-81048948D01*
X135658598Y-81179969D01*
X135658601Y-81179973D01*
X135770026Y-81291398D01*
X135770034Y-81291404D01*
X135901047Y-81378944D01*
X135901065Y-81378954D01*
X136029999Y-81432360D01*
X136030000Y-81432360D01*
X136030000Y-80836988D01*
X136039940Y-80854205D01*
X136095795Y-80910060D01*
X136164204Y-80949556D01*
X136240504Y-80970000D01*
X136319496Y-80970000D01*
X136395796Y-80949556D01*
X136464205Y-80910060D01*
X136520060Y-80854205D01*
X136530000Y-80836988D01*
X136530000Y-81432360D01*
X136658934Y-81378954D01*
X136658952Y-81378944D01*
X136789965Y-81291404D01*
X136789973Y-81291398D01*
X136901398Y-81179973D01*
X136901401Y-81179969D01*
X136988947Y-81048948D01*
X136988952Y-81048939D01*
X137049256Y-80903351D01*
X137049258Y-80903343D01*
X137079999Y-80748797D01*
X137080000Y-80748794D01*
X137080000Y-80620000D01*
X136580000Y-80620000D01*
X136580000Y-80120000D01*
X137080000Y-80120000D01*
X137080000Y-79991206D01*
X137079999Y-79991202D01*
X137049258Y-79836656D01*
X137049256Y-79836648D01*
X136988952Y-79691060D01*
X136988947Y-79691051D01*
X136910329Y-79573391D01*
X136889451Y-79506713D01*
X136907936Y-79439333D01*
X136959914Y-79392643D01*
X137013431Y-79380500D01*
X144186569Y-79380500D01*
X144253608Y-79400185D01*
X144299363Y-79452989D01*
X144309307Y-79522147D01*
X144289671Y-79573391D01*
X144211052Y-79691051D01*
X144211047Y-79691060D01*
X144150743Y-79836648D01*
X144150741Y-79836656D01*
X144120000Y-79991202D01*
X144120000Y-80120000D01*
X144620000Y-80120000D01*
X144620000Y-80620000D01*
X144120000Y-80620000D01*
X144120000Y-80748797D01*
X144150741Y-80903343D01*
X144150743Y-80903351D01*
X144211047Y-81048939D01*
X144211052Y-81048948D01*
X144298598Y-81179969D01*
X144298601Y-81179973D01*
X144410026Y-81291398D01*
X144410034Y-81291404D01*
X144541047Y-81378944D01*
X144541065Y-81378954D01*
X144669999Y-81432360D01*
X144670000Y-81432360D01*
X144670000Y-80836988D01*
X144679940Y-80854205D01*
X144735795Y-80910060D01*
X144804204Y-80949556D01*
X144880504Y-80970000D01*
X144959496Y-80970000D01*
X145035796Y-80949556D01*
X145104205Y-80910060D01*
X145160060Y-80854205D01*
X145170000Y-80836988D01*
X145170000Y-81432360D01*
X145298934Y-81378954D01*
X145298952Y-81378944D01*
X145429965Y-81291404D01*
X145429973Y-81291398D01*
X145541398Y-81179973D01*
X145541401Y-81179969D01*
X145628947Y-81048948D01*
X145628952Y-81048939D01*
X145689256Y-80903351D01*
X145689258Y-80903343D01*
X145719999Y-80748797D01*
X145720000Y-80748794D01*
X145720000Y-80620000D01*
X145220000Y-80620000D01*
X145220000Y-80120000D01*
X145720000Y-80120000D01*
X145720000Y-79991206D01*
X145719999Y-79991202D01*
X145689258Y-79836656D01*
X145689256Y-79836648D01*
X145628952Y-79691060D01*
X145628947Y-79691051D01*
X145550329Y-79573391D01*
X145529451Y-79506713D01*
X145547936Y-79439333D01*
X145599914Y-79392643D01*
X145653431Y-79380500D01*
X147955500Y-79380500D01*
X148022539Y-79400185D01*
X148068294Y-79452989D01*
X148079500Y-79504500D01*
X148079500Y-81147870D01*
X148079501Y-81147876D01*
X148085908Y-81207483D01*
X148136202Y-81342328D01*
X148136206Y-81342335D01*
X148222452Y-81457544D01*
X148222455Y-81457547D01*
X148337664Y-81543793D01*
X148337671Y-81543797D01*
X148469082Y-81592810D01*
X148525016Y-81634681D01*
X148549433Y-81700145D01*
X148534582Y-81768418D01*
X148513431Y-81796673D01*
X148399889Y-81910215D01*
X148274951Y-82082179D01*
X148178444Y-82271585D01*
X148112753Y-82473760D01*
X148079500Y-82683713D01*
X148079500Y-82896286D01*
X148110337Y-83090988D01*
X148112754Y-83106243D01*
X148175547Y-83299500D01*
X148178444Y-83308414D01*
X148274951Y-83497820D01*
X148399890Y-83669786D01*
X148550213Y-83820109D01*
X148722179Y-83945048D01*
X148722181Y-83945049D01*
X148722184Y-83945051D01*
X148911588Y-84041557D01*
X148940753Y-84051033D01*
X148998426Y-84090468D01*
X149025625Y-84154826D01*
X149013712Y-84223673D01*
X148966469Y-84275149D01*
X148958730Y-84279447D01*
X148827269Y-84346431D01*
X148811466Y-84357912D01*
X148811466Y-84357913D01*
X149300591Y-84847037D01*
X149237007Y-84864075D01*
X149122993Y-84929901D01*
X149029901Y-85022993D01*
X148964075Y-85137007D01*
X148947037Y-85200590D01*
X148457912Y-84711466D01*
X148446432Y-84727269D01*
X148364254Y-84888547D01*
X148364251Y-84888555D01*
X148308317Y-85060706D01*
X148280000Y-85239493D01*
X148280000Y-85420506D01*
X148308317Y-85599293D01*
X148364251Y-85771444D01*
X148364252Y-85771447D01*
X148446431Y-85932730D01*
X148457913Y-85948532D01*
X148457913Y-85948533D01*
X148947037Y-85459409D01*
X148964075Y-85522993D01*
X149029901Y-85637007D01*
X149122993Y-85730099D01*
X149237007Y-85795925D01*
X149300590Y-85812962D01*
X148811466Y-86302085D01*
X148811466Y-86302086D01*
X148827267Y-86313566D01*
X148827275Y-86313571D01*
X148958729Y-86380551D01*
X149009525Y-86428526D01*
X149026320Y-86496347D01*
X149003782Y-86562482D01*
X148949067Y-86605933D01*
X148940761Y-86608964D01*
X148930716Y-86612227D01*
X148911583Y-86618444D01*
X148722179Y-86714951D01*
X148550213Y-86839890D01*
X148399890Y-86990213D01*
X148274951Y-87162179D01*
X148178444Y-87351585D01*
X148112753Y-87553760D01*
X148084840Y-87730000D01*
X148079500Y-87763713D01*
X148079500Y-87976287D01*
X148112754Y-88186243D01*
X148178443Y-88388412D01*
X148224335Y-88478481D01*
X148229800Y-88489205D01*
X148242696Y-88557874D01*
X148216420Y-88622614D01*
X148159314Y-88662872D01*
X148119315Y-88669500D01*
X146175258Y-88669500D01*
X146022528Y-88710423D01*
X145977307Y-88736533D01*
X145977306Y-88736533D01*
X145885602Y-88789477D01*
X145885597Y-88789481D01*
X144899481Y-89775597D01*
X144899477Y-89775602D01*
X144880322Y-89808782D01*
X144880321Y-89808784D01*
X144820423Y-89912530D01*
X144779499Y-90065258D01*
X144779499Y-90065260D01*
X144779499Y-90233361D01*
X144779500Y-90233374D01*
X144779500Y-90425500D01*
X144759815Y-90492539D01*
X144707011Y-90538294D01*
X144655500Y-90549500D01*
X144485097Y-90549500D01*
X144418058Y-90529815D01*
X144397416Y-90513181D01*
X143561818Y-89677583D01*
X143528333Y-89616260D01*
X143525499Y-89589902D01*
X143525499Y-89430238D01*
X143545184Y-89363199D01*
X143597988Y-89317444D01*
X143649499Y-89306238D01*
X143693222Y-89306238D01*
X143693223Y-89306237D01*
X143847875Y-89275475D01*
X143993557Y-89215132D01*
X144124667Y-89127527D01*
X144207106Y-89045086D01*
X144218089Y-89035336D01*
X144224560Y-89030242D01*
X144307598Y-88981135D01*
X144383895Y-88904837D01*
X144389676Y-88900288D01*
X144415544Y-88889919D01*
X144440006Y-88876562D01*
X144447695Y-88877033D01*
X144454530Y-88874294D01*
X144478623Y-88878927D01*
X144507321Y-88880686D01*
X144550000Y-88895620D01*
X145050000Y-88895620D01*
X145140557Y-88863934D01*
X145246065Y-88786065D01*
X145323933Y-88680559D01*
X145323934Y-88680557D01*
X145367244Y-88556787D01*
X145367244Y-88556785D01*
X145368818Y-88540000D01*
X145050000Y-88540000D01*
X145050000Y-88895620D01*
X144550000Y-88895620D01*
X144550000Y-88550408D01*
X144550004Y-88549404D01*
X144550039Y-88545034D01*
X144550500Y-88539181D01*
X144550499Y-88040820D01*
X144550434Y-88040000D01*
X144550382Y-88039332D01*
X144550000Y-88029607D01*
X144550000Y-87982693D01*
X145050000Y-87982693D01*
X145050000Y-88040000D01*
X145368818Y-88040000D01*
X145368818Y-88039999D01*
X145367244Y-88023214D01*
X145367244Y-88023212D01*
X145323934Y-87899442D01*
X145323932Y-87899439D01*
X145291436Y-87855409D01*
X145267464Y-87789780D01*
X145282779Y-87721610D01*
X145291436Y-87708138D01*
X145333934Y-87650556D01*
X145377244Y-87526787D01*
X145377244Y-87526785D01*
X145378818Y-87510000D01*
X145060000Y-87510000D01*
X145060000Y-87948638D01*
X145050000Y-87982693D01*
X144550000Y-87982693D01*
X144550000Y-87601362D01*
X144560000Y-87567306D01*
X144560000Y-87520408D01*
X144560382Y-87510679D01*
X144560500Y-87509181D01*
X144560499Y-87010820D01*
X144560434Y-87010000D01*
X145060000Y-87010000D01*
X145378818Y-87010000D01*
X145378818Y-87009999D01*
X145377244Y-86993214D01*
X145377244Y-86993212D01*
X145333934Y-86869442D01*
X145333933Y-86869440D01*
X145256065Y-86763934D01*
X145150559Y-86686066D01*
X145150557Y-86686065D01*
X145060000Y-86654378D01*
X145060000Y-87010000D01*
X144560434Y-87010000D01*
X144560382Y-87009332D01*
X144560000Y-86999607D01*
X144560000Y-86693660D01*
X144454016Y-86674239D01*
X144450959Y-86672698D01*
X144447541Y-86672873D01*
X144413277Y-86653707D01*
X144391622Y-86642793D01*
X144390566Y-86641003D01*
X144388685Y-86639951D01*
X144344180Y-86595446D01*
X144310695Y-86534123D01*
X144315679Y-86464431D01*
X144344180Y-86420083D01*
X144401788Y-86362475D01*
X144401788Y-86362474D01*
X144447089Y-86259877D01*
X144447089Y-86259875D01*
X144449999Y-86234794D01*
X144449999Y-85956812D01*
X144469683Y-85889773D01*
X144522487Y-85844018D01*
X144591646Y-85834074D01*
X144621451Y-85842251D01*
X144669999Y-85862360D01*
X144670000Y-85862360D01*
X144670000Y-85266988D01*
X144679940Y-85284205D01*
X144735795Y-85340060D01*
X144804204Y-85379556D01*
X144880504Y-85400000D01*
X144959496Y-85400000D01*
X145035796Y-85379556D01*
X145104205Y-85340060D01*
X145160060Y-85284205D01*
X145170000Y-85266988D01*
X145170000Y-85862360D01*
X145298934Y-85808954D01*
X145298952Y-85808944D01*
X145429965Y-85721404D01*
X145429973Y-85721398D01*
X145541398Y-85609973D01*
X145541401Y-85609969D01*
X145628947Y-85478948D01*
X145628952Y-85478939D01*
X145689256Y-85333351D01*
X145689258Y-85333343D01*
X145713702Y-85210459D01*
X145713707Y-85210431D01*
X145720000Y-85178791D01*
X145720000Y-84800000D01*
X145220000Y-84800000D01*
X145220000Y-84300000D01*
X145720000Y-84300000D01*
X145720000Y-83921206D01*
X145719999Y-83921202D01*
X145689258Y-83766656D01*
X145689256Y-83766648D01*
X145628952Y-83621060D01*
X145628947Y-83621051D01*
X145541401Y-83490030D01*
X145541398Y-83490026D01*
X145429973Y-83378601D01*
X145429969Y-83378598D01*
X145298948Y-83291052D01*
X145298938Y-83291047D01*
X145170000Y-83237639D01*
X145170000Y-83833011D01*
X145160060Y-83815795D01*
X145104205Y-83759940D01*
X145035796Y-83720444D01*
X144959496Y-83700000D01*
X144880504Y-83700000D01*
X144804204Y-83720444D01*
X144735795Y-83759940D01*
X144679940Y-83815795D01*
X144670000Y-83833011D01*
X144670000Y-83237639D01*
X144669999Y-83237639D01*
X144541061Y-83291047D01*
X144541051Y-83291052D01*
X144410030Y-83378598D01*
X144410026Y-83378601D01*
X144298601Y-83490026D01*
X144298598Y-83490030D01*
X144211052Y-83621051D01*
X144211047Y-83621060D01*
X144150743Y-83766648D01*
X144150741Y-83766656D01*
X144120000Y-83921202D01*
X144120000Y-84368638D01*
X144113339Y-84391320D01*
X144111065Y-84414856D01*
X144102717Y-84427495D01*
X144100315Y-84435677D01*
X144100000Y-84435949D01*
X144100000Y-86315500D01*
X144080315Y-86382539D01*
X144027511Y-86428294D01*
X143976000Y-86439500D01*
X143966868Y-86439500D01*
X143899829Y-86419815D01*
X143854074Y-86367011D01*
X143843579Y-86302244D01*
X143848134Y-86259875D01*
X143850500Y-86237873D01*
X143850499Y-84692128D01*
X143844091Y-84632517D01*
X143834559Y-84606961D01*
X143793797Y-84497671D01*
X143793795Y-84497668D01*
X143747592Y-84435949D01*
X143720701Y-84400027D01*
X143710946Y-84373873D01*
X143698183Y-84349046D01*
X143698903Y-84341587D01*
X143696285Y-84334567D01*
X143702218Y-84307289D01*
X143704904Y-84279501D01*
X143709543Y-84273615D01*
X143711136Y-84266294D01*
X143732289Y-84238038D01*
X143750465Y-84219862D01*
X143793318Y-84145638D01*
X143815500Y-84062853D01*
X143815500Y-83977147D01*
X143793318Y-83894362D01*
X143764189Y-83843909D01*
X143750469Y-83820144D01*
X143750463Y-83820136D01*
X143689861Y-83759534D01*
X143668622Y-83747272D01*
X143657469Y-83740833D01*
X143609254Y-83690267D01*
X143596030Y-83621660D01*
X143597852Y-83609253D01*
X143601850Y-83589158D01*
X143609837Y-83549003D01*
X143609837Y-83391319D01*
X143609837Y-83391316D01*
X143609836Y-83391314D01*
X143593346Y-83308414D01*
X143579074Y-83236664D01*
X143558790Y-83187693D01*
X143518734Y-83090988D01*
X143518727Y-83090975D01*
X143431126Y-82959872D01*
X143431123Y-82959868D01*
X143319629Y-82848374D01*
X143319625Y-82848371D01*
X143188522Y-82760770D01*
X143188509Y-82760763D01*
X143042838Y-82700425D01*
X143042826Y-82700422D01*
X142888182Y-82669661D01*
X142888179Y-82669661D01*
X142730495Y-82669661D01*
X142730492Y-82669661D01*
X142575847Y-82700422D01*
X142575835Y-82700425D01*
X142430164Y-82760763D01*
X142430151Y-82760770D01*
X142299048Y-82848371D01*
X142299044Y-82848374D01*
X142187550Y-82959868D01*
X142187547Y-82959872D01*
X142099946Y-83090975D01*
X142099939Y-83090988D01*
X142039601Y-83236659D01*
X142039598Y-83236671D01*
X142008837Y-83391314D01*
X142008837Y-83549007D01*
X142039598Y-83703650D01*
X142039601Y-83703662D01*
X142099939Y-83849333D01*
X142099946Y-83849346D01*
X142187939Y-83981035D01*
X142193589Y-83999081D01*
X142203814Y-84014991D01*
X142208265Y-84045950D01*
X142208817Y-84047712D01*
X142208837Y-84049926D01*
X142208837Y-84118758D01*
X142189152Y-84185797D01*
X142136348Y-84231552D01*
X142071586Y-84242048D01*
X142047883Y-84239500D01*
X142047873Y-84239500D01*
X141971518Y-84239500D01*
X141904479Y-84219815D01*
X141864131Y-84177499D01*
X141830524Y-84119290D01*
X141830518Y-84119282D01*
X141669717Y-83958481D01*
X141669709Y-83958475D01*
X141568426Y-83900000D01*
X141568425Y-83899999D01*
X141568425Y-83900000D01*
X141532785Y-83879423D01*
X141505041Y-83871989D01*
X141380057Y-83838499D01*
X141221943Y-83838499D01*
X141214347Y-83838499D01*
X141214331Y-83838500D01*
X140784500Y-83838500D01*
X140782550Y-83837927D01*
X140780585Y-83838438D01*
X140749167Y-83828125D01*
X140717461Y-83818815D01*
X140716131Y-83817281D01*
X140714200Y-83816647D01*
X140693335Y-83790972D01*
X140671706Y-83766011D01*
X140671012Y-83763503D01*
X140670135Y-83762424D01*
X140668593Y-83754758D01*
X140661266Y-83728263D01*
X140660500Y-83721404D01*
X140660500Y-83691704D01*
X140657235Y-83679520D01*
X140619577Y-83538976D01*
X140590639Y-83488856D01*
X140540520Y-83402045D01*
X140428716Y-83290241D01*
X140428715Y-83290240D01*
X140424385Y-83285910D01*
X140424374Y-83285900D01*
X139975829Y-82837355D01*
X139975827Y-82837352D01*
X139856956Y-82718481D01*
X139856955Y-82718480D01*
X139770143Y-82668360D01*
X139770143Y-82668359D01*
X139770139Y-82668358D01*
X139720024Y-82639423D01*
X139567296Y-82598499D01*
X139409182Y-82598499D01*
X139401586Y-82598499D01*
X139401570Y-82598500D01*
X136027272Y-82598500D01*
X135869157Y-82598500D01*
X135716430Y-82639423D01*
X135716429Y-82639423D01*
X135716427Y-82639424D01*
X135716424Y-82639425D01*
X135666311Y-82668359D01*
X135666310Y-82668360D01*
X135664057Y-82669661D01*
X135579500Y-82718479D01*
X135579497Y-82718481D01*
X134998481Y-83299497D01*
X134998480Y-83299499D01*
X134952813Y-83378598D01*
X134948361Y-83386309D01*
X134948359Y-83386311D01*
X134919425Y-83436424D01*
X134919424Y-83436425D01*
X134919423Y-83436430D01*
X134878499Y-83589158D01*
X134878499Y-83589160D01*
X134878499Y-83757261D01*
X134878500Y-83757274D01*
X134878500Y-87532330D01*
X134878499Y-87532348D01*
X134878499Y-87698054D01*
X134878498Y-87698054D01*
X134919424Y-87850789D01*
X134919425Y-87850790D01*
X134946053Y-87896910D01*
X134946054Y-87896912D01*
X134998475Y-87987709D01*
X134998481Y-87987717D01*
X135117349Y-88106585D01*
X135117355Y-88106590D01*
X135913181Y-88902416D01*
X135946666Y-88963739D01*
X135949500Y-88990096D01*
X135949500Y-89109168D01*
X135949501Y-89109192D01*
X135952335Y-89145205D01*
X135997129Y-89299388D01*
X135997131Y-89299393D01*
X136078863Y-89437595D01*
X136078869Y-89437603D01*
X136192396Y-89551130D01*
X136192400Y-89551133D01*
X136192402Y-89551135D01*
X136275908Y-89600520D01*
X136329334Y-89632116D01*
X136377017Y-89683185D01*
X136389521Y-89751927D01*
X136362876Y-89816516D01*
X136353894Y-89826529D01*
X133681286Y-92499138D01*
X133569481Y-92610942D01*
X133569475Y-92610950D01*
X133532215Y-92675488D01*
X133532215Y-92675490D01*
X133490423Y-92747874D01*
X133490423Y-92747875D01*
X133449499Y-92900603D01*
X133449499Y-92900605D01*
X133449499Y-93068706D01*
X133449500Y-93068719D01*
X133449500Y-97263370D01*
X133484343Y-97393407D01*
X133483747Y-97418401D01*
X133487306Y-97443147D01*
X133482930Y-97452727D01*
X133482680Y-97463257D01*
X133468667Y-97483960D01*
X133458281Y-97506703D01*
X133449419Y-97512397D01*
X133443517Y-97521119D01*
X133420536Y-97530960D01*
X133399503Y-97544477D01*
X133383647Y-97546756D01*
X133379289Y-97548623D01*
X133364568Y-97549500D01*
X133220984Y-97549500D01*
X133220968Y-97549499D01*
X133213372Y-97549499D01*
X133055258Y-97549499D01*
X132941599Y-97579954D01*
X132871749Y-97578291D01*
X132813887Y-97539128D01*
X132799021Y-97516474D01*
X132753571Y-97427275D01*
X132753566Y-97427267D01*
X132742085Y-97411466D01*
X132252962Y-97900590D01*
X132235925Y-97837007D01*
X132170099Y-97722993D01*
X132077007Y-97629901D01*
X131962993Y-97564075D01*
X131899409Y-97547037D01*
X132388533Y-97057913D01*
X132372727Y-97046429D01*
X132241269Y-96979447D01*
X132190474Y-96931473D01*
X132173679Y-96863651D01*
X132196217Y-96797517D01*
X132250932Y-96754066D01*
X132259216Y-96751043D01*
X132288412Y-96741557D01*
X132477816Y-96645051D01*
X132562102Y-96583814D01*
X132649786Y-96520109D01*
X132649788Y-96520106D01*
X132649792Y-96520104D01*
X132800104Y-96369792D01*
X132800106Y-96369788D01*
X132800109Y-96369786D01*
X132925048Y-96197820D01*
X132925047Y-96197820D01*
X132925051Y-96197816D01*
X133021557Y-96008412D01*
X133087246Y-95806243D01*
X133120500Y-95596287D01*
X133120500Y-95383713D01*
X133087246Y-95173757D01*
X133021557Y-94971588D01*
X132925051Y-94782184D01*
X132925049Y-94782181D01*
X132925048Y-94782179D01*
X132800109Y-94610213D01*
X132649786Y-94459890D01*
X132477820Y-94334951D01*
X132477115Y-94334591D01*
X132469054Y-94330485D01*
X132418259Y-94282512D01*
X132401463Y-94214692D01*
X132423999Y-94148556D01*
X132469054Y-94109515D01*
X132477816Y-94105051D01*
X132504244Y-94085850D01*
X132649786Y-93980109D01*
X132649788Y-93980106D01*
X132649792Y-93980104D01*
X132800104Y-93829792D01*
X132800106Y-93829788D01*
X132800109Y-93829786D01*
X132925048Y-93657820D01*
X132925047Y-93657820D01*
X132925051Y-93657816D01*
X133021557Y-93468412D01*
X133087246Y-93266243D01*
X133120500Y-93056287D01*
X133120500Y-92843713D01*
X133087246Y-92633757D01*
X133021557Y-92431588D01*
X132925051Y-92242184D01*
X132925049Y-92242181D01*
X132925048Y-92242179D01*
X132800109Y-92070213D01*
X132649786Y-91919890D01*
X132477820Y-91794951D01*
X132477115Y-91794591D01*
X132469054Y-91790485D01*
X132418259Y-91742512D01*
X132401463Y-91674692D01*
X132423999Y-91608556D01*
X132469054Y-91569515D01*
X132477816Y-91565051D01*
X132541595Y-91518713D01*
X132649786Y-91440109D01*
X132649788Y-91440106D01*
X132649792Y-91440104D01*
X132800104Y-91289792D01*
X132800106Y-91289788D01*
X132800109Y-91289786D01*
X132925048Y-91117820D01*
X132925047Y-91117820D01*
X132925051Y-91117816D01*
X133021557Y-90928412D01*
X133087246Y-90726243D01*
X133120500Y-90516287D01*
X133120500Y-90303713D01*
X133087246Y-90093757D01*
X133021557Y-89891588D01*
X132925051Y-89702184D01*
X132925049Y-89702181D01*
X132925048Y-89702179D01*
X132800109Y-89530213D01*
X132649786Y-89379890D01*
X132477820Y-89254951D01*
X132477115Y-89254591D01*
X132469054Y-89250485D01*
X132418259Y-89202512D01*
X132401463Y-89134692D01*
X132423999Y-89068556D01*
X132469054Y-89029515D01*
X132477816Y-89025051D01*
X132538262Y-88981135D01*
X132649786Y-88900109D01*
X132649788Y-88900106D01*
X132649792Y-88900104D01*
X132800104Y-88749792D01*
X132800106Y-88749788D01*
X132800109Y-88749786D01*
X132925048Y-88577820D01*
X132925047Y-88577820D01*
X132925051Y-88577816D01*
X133021557Y-88388412D01*
X133087246Y-88186243D01*
X133120500Y-87976287D01*
X133120500Y-87763713D01*
X133087246Y-87553757D01*
X133021557Y-87351588D01*
X132925051Y-87162184D01*
X132925049Y-87162181D01*
X132925048Y-87162179D01*
X132800109Y-86990213D01*
X132649786Y-86839890D01*
X132477820Y-86714951D01*
X132288414Y-86618444D01*
X132288413Y-86618443D01*
X132288412Y-86618443D01*
X132259246Y-86608966D01*
X132201571Y-86569529D01*
X132174373Y-86505171D01*
X132186288Y-86436324D01*
X132233532Y-86384849D01*
X132241270Y-86380551D01*
X132372732Y-86313566D01*
X132388532Y-86302085D01*
X132388533Y-86302085D01*
X131899410Y-85812962D01*
X131962993Y-85795925D01*
X132077007Y-85730099D01*
X132170099Y-85637007D01*
X132235925Y-85522993D01*
X132252962Y-85459409D01*
X132742085Y-85948532D01*
X132753568Y-85932730D01*
X132835745Y-85771452D01*
X132835748Y-85771444D01*
X132891682Y-85599293D01*
X132920000Y-85420506D01*
X132920000Y-85239493D01*
X132891682Y-85060706D01*
X132835748Y-84888555D01*
X132835747Y-84888552D01*
X132753571Y-84727275D01*
X132753566Y-84727267D01*
X132742085Y-84711466D01*
X132252962Y-85200589D01*
X132235925Y-85137007D01*
X132170099Y-85022993D01*
X132077007Y-84929901D01*
X131962993Y-84864075D01*
X131899409Y-84847037D01*
X132388533Y-84357913D01*
X132372727Y-84346429D01*
X132241269Y-84279447D01*
X132190474Y-84231473D01*
X132173679Y-84163651D01*
X132196217Y-84097517D01*
X132250932Y-84054066D01*
X132259216Y-84051043D01*
X132288412Y-84041557D01*
X132477816Y-83945051D01*
X132499789Y-83929086D01*
X132649786Y-83820109D01*
X132649788Y-83820106D01*
X132649792Y-83820104D01*
X132800104Y-83669792D01*
X132800106Y-83669788D01*
X132800109Y-83669786D01*
X132925048Y-83497820D01*
X132925047Y-83497820D01*
X132925051Y-83497816D01*
X133021557Y-83308412D01*
X133087246Y-83106243D01*
X133120500Y-82896287D01*
X133120500Y-82683713D01*
X133087246Y-82473757D01*
X133021557Y-82271588D01*
X132925051Y-82082184D01*
X132925049Y-82082181D01*
X132925048Y-82082179D01*
X132800109Y-81910213D01*
X132686569Y-81796673D01*
X132653084Y-81735350D01*
X132658068Y-81665658D01*
X132699940Y-81609725D01*
X132730915Y-81592810D01*
X132862331Y-81543796D01*
X132977546Y-81457546D01*
X133063796Y-81342331D01*
X133114091Y-81207483D01*
X133120500Y-81147873D01*
X133120499Y-80120000D01*
X133120499Y-79504500D01*
X133140183Y-79437461D01*
X133192987Y-79391706D01*
X133244499Y-79380500D01*
X135546569Y-79380500D01*
X135613608Y-79400185D01*
G37*
%TD.AperFunction*%
%TA.AperFunction,Conductor*%
G36*
X148466703Y-96437045D02*
G01*
X148473181Y-96443077D01*
X148550213Y-96520109D01*
X148722179Y-96645048D01*
X148722181Y-96645049D01*
X148722184Y-96645051D01*
X148911588Y-96741557D01*
X148940753Y-96751033D01*
X148998426Y-96790468D01*
X149025625Y-96854826D01*
X149013712Y-96923673D01*
X148966469Y-96975149D01*
X148958730Y-96979447D01*
X148827269Y-97046431D01*
X148811466Y-97057912D01*
X148811466Y-97057913D01*
X149300591Y-97547037D01*
X149237007Y-97564075D01*
X149122993Y-97629901D01*
X149029901Y-97722993D01*
X148964075Y-97837007D01*
X148947037Y-97900590D01*
X148457913Y-97411466D01*
X148433515Y-97413386D01*
X148430490Y-97415720D01*
X148360877Y-97421701D01*
X148299081Y-97389096D01*
X148264723Y-97328257D01*
X148261500Y-97300170D01*
X148261500Y-96530758D01*
X148281185Y-96463719D01*
X148333989Y-96417964D01*
X148403147Y-96408020D01*
X148466703Y-96437045D01*
G37*
%TD.AperFunction*%
%TA.AperFunction,Conductor*%
G36*
X150518834Y-96413576D02*
G01*
X150574767Y-96455448D01*
X150599184Y-96520912D01*
X150599500Y-96529758D01*
X150599500Y-97301551D01*
X150579815Y-97368590D01*
X150527011Y-97414345D01*
X150457853Y-97424289D01*
X150435540Y-97414099D01*
X150402085Y-97411466D01*
X149912962Y-97900589D01*
X149895925Y-97837007D01*
X149830099Y-97722993D01*
X149737007Y-97629901D01*
X149622993Y-97564075D01*
X149559409Y-97547037D01*
X150048533Y-97057913D01*
X150032727Y-97046429D01*
X149901269Y-96979447D01*
X149850474Y-96931473D01*
X149833679Y-96863651D01*
X149856217Y-96797517D01*
X149910932Y-96754066D01*
X149919216Y-96751043D01*
X149948412Y-96741557D01*
X150137816Y-96645051D01*
X150222102Y-96583814D01*
X150309786Y-96520109D01*
X150309788Y-96520106D01*
X150309792Y-96520104D01*
X150387819Y-96442077D01*
X150449142Y-96408592D01*
X150518834Y-96413576D01*
G37*
%TD.AperFunction*%
%TA.AperFunction,Conductor*%
G36*
X136898834Y-91082573D02*
G01*
X136954767Y-91124445D01*
X136979184Y-91189909D01*
X136979500Y-91198754D01*
X136979500Y-91389169D01*
X136979501Y-91389191D01*
X136982335Y-91425205D01*
X137027129Y-91579388D01*
X137027131Y-91579393D01*
X137102368Y-91706612D01*
X137110658Y-91739288D01*
X137119619Y-91771780D01*
X137119341Y-91773509D01*
X137119551Y-91774336D01*
X137114020Y-91806627D01*
X137107214Y-91828466D01*
X137076511Y-91879253D01*
X136489286Y-92466479D01*
X136377481Y-92578283D01*
X136377479Y-92578286D01*
X136345455Y-92633755D01*
X136345454Y-92633757D01*
X136298423Y-92715215D01*
X136298423Y-92715216D01*
X136257499Y-92867944D01*
X136257499Y-92867946D01*
X136257499Y-93036047D01*
X136257500Y-93036060D01*
X136257500Y-94456000D01*
X136237815Y-94523039D01*
X136185011Y-94568794D01*
X136133500Y-94580000D01*
X135630000Y-94580000D01*
X135630000Y-95156000D01*
X135610315Y-95223039D01*
X135557511Y-95268794D01*
X135506000Y-95280000D01*
X135254000Y-95280000D01*
X135186961Y-95260315D01*
X135141206Y-95207511D01*
X135130000Y-95156000D01*
X135130000Y-94580000D01*
X134774500Y-94580000D01*
X134707461Y-94560315D01*
X134661706Y-94507511D01*
X134650500Y-94456000D01*
X134650500Y-93279756D01*
X134670185Y-93212717D01*
X134686814Y-93192080D01*
X136767821Y-91111072D01*
X136829142Y-91077589D01*
X136898834Y-91082573D01*
G37*
%TD.AperFunction*%
%TA.AperFunction,Conductor*%
G36*
X148056942Y-89890185D02*
G01*
X148077584Y-89906819D01*
X148096241Y-89925476D01*
X148129726Y-89986799D01*
X148126492Y-90051473D01*
X148112753Y-90093757D01*
X148079534Y-90303500D01*
X148079500Y-90303713D01*
X148079500Y-90516287D01*
X148085209Y-90552330D01*
X148112336Y-90723608D01*
X148112754Y-90726243D01*
X148174188Y-90915317D01*
X148178444Y-90928414D01*
X148274951Y-91117820D01*
X148399890Y-91289786D01*
X148550213Y-91440109D01*
X148722182Y-91565050D01*
X148730946Y-91569516D01*
X148781742Y-91617491D01*
X148798536Y-91685312D01*
X148775998Y-91751447D01*
X148730946Y-91790484D01*
X148722182Y-91794949D01*
X148550213Y-91919890D01*
X148399890Y-92070213D01*
X148274951Y-92242179D01*
X148178444Y-92431585D01*
X148178443Y-92431587D01*
X148178443Y-92431588D01*
X148120165Y-92610950D01*
X148112755Y-92633755D01*
X148112754Y-92633757D01*
X148080441Y-92837770D01*
X148050512Y-92900905D01*
X147991200Y-92937836D01*
X147921338Y-92936838D01*
X147870287Y-92906053D01*
X146847589Y-91883355D01*
X146843476Y-91879242D01*
X146843429Y-91879157D01*
X146833840Y-91863294D01*
X146832096Y-91864457D01*
X146832094Y-91864454D01*
X146833838Y-91863291D01*
X146812782Y-91828460D01*
X146806531Y-91808398D01*
X146786364Y-91775039D01*
X146768528Y-91707485D01*
X146790045Y-91641011D01*
X146792712Y-91637254D01*
X146873405Y-91527920D01*
X146917212Y-91402727D01*
X146917213Y-91402725D01*
X146917469Y-91400000D01*
X146464000Y-91400000D01*
X146396961Y-91380315D01*
X146351206Y-91327511D01*
X146340000Y-91276000D01*
X146340000Y-91150000D01*
X146284500Y-91150000D01*
X146217461Y-91130315D01*
X146171706Y-91077511D01*
X146160500Y-91026000D01*
X146160500Y-90915317D01*
X146160499Y-90915302D01*
X146159295Y-90900000D01*
X146590000Y-90900000D01*
X146917467Y-90900000D01*
X146917212Y-90897270D01*
X146873405Y-90772080D01*
X146794641Y-90665358D01*
X146687920Y-90586594D01*
X146590000Y-90552330D01*
X146590000Y-90900000D01*
X146159295Y-90900000D01*
X146157643Y-90879008D01*
X146157642Y-90879002D01*
X146112495Y-90723608D01*
X146112492Y-90723600D01*
X146107266Y-90714763D01*
X146102916Y-90698862D01*
X146095023Y-90686580D01*
X146090000Y-90651645D01*
X146090000Y-90552330D01*
X146052537Y-90525749D01*
X146009253Y-90470901D01*
X146002493Y-90401359D01*
X146034404Y-90339202D01*
X146036572Y-90336977D01*
X146466731Y-89906819D01*
X146528054Y-89873334D01*
X146554412Y-89870500D01*
X147989903Y-89870500D01*
X148056942Y-89890185D01*
G37*
%TD.AperFunction*%
%TA.AperFunction,Conductor*%
G36*
X139811035Y-89540469D02*
G01*
X139811245Y-89540456D01*
X139811792Y-89540499D01*
X139811795Y-89540499D01*
X139811806Y-89540500D01*
X140053000Y-89540500D01*
X140120039Y-89560185D01*
X140165794Y-89612989D01*
X140177000Y-89664500D01*
X140177000Y-90077402D01*
X140157315Y-90144441D01*
X140140681Y-90165083D01*
X139865563Y-90440201D01*
X139804240Y-90473686D01*
X139734548Y-90468702D01*
X139690201Y-90440201D01*
X139677500Y-90427500D01*
X139201500Y-90427500D01*
X139134461Y-90407815D01*
X139088706Y-90355011D01*
X139077500Y-90303500D01*
X139077500Y-90051500D01*
X139097185Y-89984461D01*
X139149989Y-89938706D01*
X139201500Y-89927500D01*
X139677499Y-89927500D01*
X139677499Y-89664072D01*
X139681419Y-89650719D01*
X139680528Y-89636833D01*
X139691069Y-89617857D01*
X139697184Y-89597033D01*
X139707699Y-89587921D01*
X139714458Y-89575755D01*
X139733586Y-89565490D01*
X139749988Y-89551278D01*
X139765019Y-89548622D01*
X139776024Y-89542717D01*
X139809361Y-89540576D01*
X139809368Y-89540404D01*
X139811035Y-89540469D01*
G37*
%TD.AperFunction*%
%TA.AperFunction,Conductor*%
G36*
X141804410Y-88437225D02*
G01*
X141859880Y-88478481D01*
X141896514Y-88526789D01*
X141921338Y-88592100D01*
X141906911Y-88660464D01*
X141862811Y-88707252D01*
X141846955Y-88717032D01*
X141727031Y-88836956D01*
X141715535Y-88855596D01*
X141699478Y-88870038D01*
X141687018Y-88887678D01*
X141674016Y-88892940D01*
X141663588Y-88902321D01*
X141642271Y-88905790D01*
X141622253Y-88913893D01*
X141609996Y-88914500D01*
X141560941Y-88914500D01*
X141548529Y-88917826D01*
X141478679Y-88916163D01*
X141420816Y-88877000D01*
X141393313Y-88812771D01*
X141404900Y-88743869D01*
X141428753Y-88710372D01*
X141467910Y-88671216D01*
X141467910Y-88671214D01*
X141478114Y-88661011D01*
X141478118Y-88661006D01*
X141673400Y-88465723D01*
X141734719Y-88432241D01*
X141804410Y-88437225D01*
G37*
%TD.AperFunction*%
%TA.AperFunction,Conductor*%
G36*
X137337540Y-83819185D02*
G01*
X137383295Y-83871989D01*
X137393239Y-83941147D01*
X137390279Y-83955579D01*
X137384500Y-83977147D01*
X137384500Y-84062853D01*
X137405306Y-84140500D01*
X137406682Y-84145637D01*
X137406685Y-84145644D01*
X137449530Y-84219855D01*
X137449536Y-84219863D01*
X137467711Y-84238038D01*
X137471302Y-84244614D01*
X137477412Y-84248955D01*
X137487817Y-84274861D01*
X137501196Y-84299361D01*
X137500661Y-84306835D01*
X137503455Y-84313790D01*
X137498203Y-84341207D01*
X137496212Y-84369053D01*
X137491720Y-84375052D01*
X137490311Y-84382412D01*
X137479296Y-84400030D01*
X137406206Y-84497664D01*
X137406202Y-84497671D01*
X137355908Y-84632517D01*
X137351449Y-84674000D01*
X137349501Y-84692123D01*
X137349500Y-84692135D01*
X137349500Y-86237870D01*
X137349501Y-86237876D01*
X137355908Y-86297483D01*
X137406202Y-86432328D01*
X137406204Y-86432331D01*
X137461868Y-86506689D01*
X137486285Y-86572154D01*
X137471433Y-86640427D01*
X137422028Y-86689832D01*
X137412817Y-86692182D01*
X137400000Y-86705000D01*
X137400000Y-87356000D01*
X137380315Y-87423039D01*
X137327511Y-87468794D01*
X137276000Y-87480000D01*
X137150000Y-87480000D01*
X137150000Y-87606000D01*
X137130315Y-87673039D01*
X137077511Y-87718794D01*
X137026000Y-87730000D01*
X136490597Y-87730000D01*
X136423558Y-87710315D01*
X136402916Y-87693681D01*
X136115819Y-87406584D01*
X136082334Y-87345261D01*
X136079500Y-87318903D01*
X136079500Y-87188897D01*
X136400000Y-87188897D01*
X136400000Y-87230000D01*
X136900000Y-87230000D01*
X136900000Y-86715864D01*
X136871086Y-86706538D01*
X136799532Y-86715131D01*
X136799531Y-86715131D01*
X136665270Y-86768077D01*
X136550278Y-86855278D01*
X136463077Y-86970270D01*
X136410131Y-87104531D01*
X136410131Y-87104532D01*
X136400000Y-87188897D01*
X136079500Y-87188897D01*
X136079500Y-85323765D01*
X136095795Y-85340060D01*
X136164204Y-85379556D01*
X136240504Y-85400000D01*
X136319496Y-85400000D01*
X136395796Y-85379556D01*
X136464205Y-85340060D01*
X136520060Y-85284205D01*
X136530000Y-85266988D01*
X136530000Y-85862359D01*
X136578547Y-85842251D01*
X136648017Y-85834782D01*
X136710496Y-85866057D01*
X136746148Y-85926146D01*
X136750000Y-85956812D01*
X136750000Y-86234785D01*
X136750002Y-86234808D01*
X136752908Y-86259869D01*
X136752909Y-86259873D01*
X136798211Y-86362474D01*
X136798214Y-86362479D01*
X136877520Y-86441785D01*
X136877525Y-86441788D01*
X136930014Y-86464964D01*
X137007633Y-86489999D01*
X137100000Y-86489998D01*
X137100000Y-85715000D01*
X136744000Y-85715000D01*
X136676961Y-85695315D01*
X136631206Y-85642511D01*
X136620000Y-85591000D01*
X136620000Y-85339000D01*
X136639685Y-85271961D01*
X136692489Y-85226206D01*
X136744000Y-85215000D01*
X137100000Y-85215000D01*
X137100000Y-84428926D01*
X137096212Y-84419495D01*
X137082834Y-84394996D01*
X137081541Y-84382972D01*
X137080575Y-84380567D01*
X137081028Y-84378200D01*
X137080000Y-84368638D01*
X137080000Y-83923500D01*
X137099685Y-83856461D01*
X137152489Y-83810706D01*
X137204000Y-83799500D01*
X137270501Y-83799500D01*
X137337540Y-83819185D01*
G37*
%TD.AperFunction*%
%TA.AperFunction,Conductor*%
G36*
X150402085Y-85948532D02*
G01*
X150425598Y-85946682D01*
X150430513Y-85942893D01*
X150500126Y-85936914D01*
X150561921Y-85969520D01*
X150596278Y-86030359D01*
X150599500Y-86058444D01*
X150599500Y-86830242D01*
X150579815Y-86897281D01*
X150527011Y-86943036D01*
X150457853Y-86952980D01*
X150394297Y-86923955D01*
X150387819Y-86917923D01*
X150309786Y-86839890D01*
X150137820Y-86714951D01*
X149948414Y-86618444D01*
X149948413Y-86618443D01*
X149948412Y-86618443D01*
X149919246Y-86608966D01*
X149861571Y-86569529D01*
X149834373Y-86505171D01*
X149846288Y-86436324D01*
X149893532Y-86384849D01*
X149901270Y-86380551D01*
X150032732Y-86313566D01*
X150048532Y-86302085D01*
X150048533Y-86302085D01*
X149559410Y-85812962D01*
X149622993Y-85795925D01*
X149737007Y-85730099D01*
X149830099Y-85637007D01*
X149895925Y-85522993D01*
X149912962Y-85459409D01*
X150402085Y-85948532D01*
G37*
%TD.AperFunction*%
%TA.AperFunction,Conductor*%
G36*
X131304075Y-85522993D02*
G01*
X131369901Y-85637007D01*
X131462993Y-85730099D01*
X131577007Y-85795925D01*
X131640590Y-85812962D01*
X131151466Y-86302085D01*
X131151466Y-86302086D01*
X131167267Y-86313566D01*
X131167275Y-86313571D01*
X131298729Y-86380551D01*
X131349525Y-86428526D01*
X131366320Y-86496347D01*
X131343782Y-86562482D01*
X131289067Y-86605933D01*
X131280761Y-86608964D01*
X131270716Y-86612227D01*
X131251583Y-86618444D01*
X131062179Y-86714951D01*
X130890213Y-86839890D01*
X130890209Y-86839894D01*
X130812181Y-86917923D01*
X130750858Y-86951408D01*
X130681166Y-86946424D01*
X130625233Y-86904552D01*
X130600816Y-86839088D01*
X130600500Y-86830242D01*
X130600500Y-86058449D01*
X130620185Y-85991410D01*
X130672989Y-85945655D01*
X130742147Y-85935711D01*
X130764457Y-85945900D01*
X130797913Y-85948533D01*
X131287037Y-85459409D01*
X131304075Y-85522993D01*
G37*
%TD.AperFunction*%
%TA.AperFunction,Conductor*%
G36*
X130805703Y-83736045D02*
G01*
X130812181Y-83742077D01*
X130890213Y-83820109D01*
X131062179Y-83945048D01*
X131062181Y-83945049D01*
X131062184Y-83945051D01*
X131251588Y-84041557D01*
X131280753Y-84051033D01*
X131338426Y-84090468D01*
X131365625Y-84154826D01*
X131353712Y-84223673D01*
X131306469Y-84275149D01*
X131298730Y-84279447D01*
X131167269Y-84346431D01*
X131151466Y-84357912D01*
X131151466Y-84357913D01*
X131640591Y-84847037D01*
X131577007Y-84864075D01*
X131462993Y-84929901D01*
X131369901Y-85022993D01*
X131304075Y-85137007D01*
X131287037Y-85200590D01*
X130797913Y-84711466D01*
X130774387Y-84713318D01*
X130769487Y-84717097D01*
X130699874Y-84723076D01*
X130638079Y-84690470D01*
X130603722Y-84629631D01*
X130600500Y-84601546D01*
X130600500Y-83829758D01*
X130620185Y-83762719D01*
X130672989Y-83716964D01*
X130742147Y-83707020D01*
X130805703Y-83736045D01*
G37*
%TD.AperFunction*%
%TA.AperFunction,Conductor*%
G36*
X150518834Y-83713576D02*
G01*
X150574767Y-83755448D01*
X150599184Y-83820912D01*
X150599500Y-83829758D01*
X150599500Y-84601551D01*
X150579815Y-84668590D01*
X150527011Y-84714345D01*
X150457853Y-84724289D01*
X150435540Y-84714099D01*
X150402085Y-84711466D01*
X149912962Y-85200589D01*
X149895925Y-85137007D01*
X149830099Y-85022993D01*
X149737007Y-84929901D01*
X149622993Y-84864075D01*
X149559409Y-84847037D01*
X150048533Y-84357913D01*
X150032727Y-84346429D01*
X149901269Y-84279447D01*
X149850474Y-84231473D01*
X149833679Y-84163651D01*
X149856217Y-84097517D01*
X149910932Y-84054066D01*
X149919216Y-84051043D01*
X149948412Y-84041557D01*
X150137816Y-83945051D01*
X150159789Y-83929086D01*
X150309786Y-83820109D01*
X150309788Y-83820106D01*
X150309792Y-83820104D01*
X150387819Y-83742077D01*
X150449142Y-83708592D01*
X150518834Y-83713576D01*
G37*
%TD.AperFunction*%
%TD*%
M02*
