M48
; DRILL file {KiCad 9.0.3} date 2025-11-26T12:49:35-0600
; FORMAT={-:-/ absolute / metric / decimal}
; #@! TF.CreationDate,2025-11-26T12:49:35-06:00
; #@! TF.GenerationSoftware,Kicad,Pcbnew,9.0.3
; #@! TF.FileFunction,Plated,1,2,PTH
FMAT,2
METRIC
; #@! TA.AperFunction,Plated,PTH,ViaDrill
T1C0.300
; #@! TA.AperFunction,Plated,PTH,ComponentDrill
T2C0.600
; #@! TA.AperFunction,Plated,PTH,ComponentDrill
T3C1.000
%
G90
G05
T1
X133.715Y-105.7
X133.93Y-107.411
X134.321Y-108.364
X134.915Y-105.786
X135.13Y-107.225
X135.14Y-113.93
X135.413Y-106.43
X135.42Y-112.64
X135.674Y-115.687
X135.71Y-98.11
X135.796Y-118.462
X136.05Y-110.083
X136.12Y-108.611
X136.123Y-104.578
X136.17Y-96.09
X136.205Y-114.558
X136.584Y-101.518
X136.928Y-109.52
X136.93Y-98.135
X136.996Y-118.264
X137.017Y-117.21
X137.03Y-113.597
X137.309Y-110.223
X137.8Y-123.95
X137.969Y-107.829
X137.978Y-108.689
X137.98Y-105.514
X138.29Y-106.29
X138.332Y-104.796
X138.373Y-96.055
X138.38Y-107.143
X138.654Y-108.241
X138.705Y-104.088
X138.964Y-88.505
X139.397Y-103.688
X139.411Y-110.7
X139.452Y-108.307
X139.662Y-87.096
X139.7Y-115.769
X140.195Y-103.627
X140.393Y-99.83
X140.48Y-101.57
X140.483Y-100.625
X140.61Y-87.141
X140.636Y-108.688
X140.68Y-111.437
X140.849Y-104.087
X141.12Y-99.215
X141.296Y-106.737
X141.321Y-114.711
X141.328Y-108.287
X141.35Y-110.963
X141.649Y-104.087
X141.78Y-97.89
X141.886Y-86.58
X141.985Y-108.745
X142.37Y-113.582
X142.457Y-103.673
X142.461Y-101.768
X142.58Y-105.161
X142.584Y-105.961
X142.598Y-106.761
X142.78Y-111.62
X142.809Y-83.47
X142.828Y-104.4
X142.98Y-108.043
X143.12Y-99.693
X143.227Y-103.206
X143.23Y-87.156
X143.403Y-112.91
X143.58Y-97.98
X143.58Y-111.7
X143.614Y-88.506
X143.658Y-110.089
X144.042Y-109.387
X144.53Y-114.63
X144.775Y-111.367
X144.833Y-104.195
X144.842Y-108.956
X145.281Y-110.071
X145.637Y-108.87
X145.849Y-112.555
X145.908Y-104.84
X146.17Y-100.42
X146.19Y-106.44
X146.22Y-99.53
X146.299Y-110.656
X146.479Y-107.87
X146.775Y-111.425
X146.819Y-103.364
X147.756Y-109.458
X148.366Y-106.487
T3
X131.77Y-80.25
X131.77Y-82.79
X131.77Y-85.33
X131.77Y-87.87
X131.77Y-90.41
X131.77Y-92.95
X131.77Y-95.49
X131.77Y-98.03
X131.77Y-100.57
X131.77Y-103.11
X131.77Y-105.65
X131.77Y-108.19
X131.77Y-110.73
X131.77Y-113.27
X131.77Y-115.81
X131.77Y-118.35
X131.77Y-120.89
X131.77Y-123.43
X131.77Y-125.97
X131.77Y-128.51
X138.06Y-128.27
X140.6Y-128.27
X143.14Y-128.27
X149.43Y-80.25
X149.43Y-82.79
X149.43Y-85.33
X149.43Y-87.87
X149.43Y-90.41
X149.43Y-92.95
X149.43Y-95.49
X149.43Y-98.03
X149.43Y-100.57
X149.43Y-103.11
X149.43Y-105.65
X149.43Y-108.19
X149.43Y-110.73
X149.43Y-113.27
X149.43Y-115.81
X149.43Y-118.35
X149.43Y-120.89
X149.43Y-123.43
X149.43Y-125.97
X149.43Y-128.51
T2
G00X136.28Y-80.67
M15
G01X136.28Y-80.07
M16
G05
G00X136.28Y-85.1
M15
G01X136.28Y-84.0
M16
G05
G00X144.92Y-80.67
M15
G01X144.92Y-80.07
M16
G05
G00X144.92Y-85.1
M15
G01X144.92Y-84.0
M16
G05
M30
